<svg width="25" height="25" viewBox="0 0 25 25" fill="none" xmlns="http://www.w3.org/2000/svg">
<g clip-path="url(#clip0_216_12464)">
<path d="M6.79 15.07V22H5.88V16.47L3.67 22H2.86L0.64 16.49V22H-0.27V15.07H0.82L3.28 20.89L5.7 15.07H6.79ZM9.15563 15.69V18.1H11.8356V18.8H9.15563V21.26H12.1356V22H8.24563V14.95H12.1356V15.69H9.15563ZM18.7842 22H17.8742L14.2142 16.43V22H13.3042V14.95H14.2142L17.8742 20.53V14.95H18.7842V22ZM21.1076 14.95V19.18C21.1076 19.8733 21.2609 20.3867 21.5676 20.72C21.8742 21.0467 22.2976 21.21 22.8376 21.21C23.3709 21.21 23.7876 21.0433 24.0876 20.71C24.3876 20.3767 24.5376 19.8667 24.5376 19.18V14.95H25.4476V19.18C25.4476 20.14 25.2076 20.8633 24.7276 21.35C24.2542 21.83 23.6176 22.07 22.8176 22.07C22.0242 22.07 21.3876 21.83 20.9076 21.35C20.4342 20.8633 20.1976 20.14 20.1976 19.18V14.95H21.1076Z" fill="white"/>
<rect x="3" y="4" width="19" height="2" rx="1" fill="white"/>
<rect x="3" y="8" width="19" height="2" rx="1" fill="white"/>
</g>
<defs>
<clipPath id="clip0_216_12464">
<rect width="25" height="25" fill="white"/>
</clipPath>
</defs>
</svg>
