<svg width="16" height="16" viewBox="0 0 16 16" fill="none" xmlns="http://www.w3.org/2000/svg">
<g clip-path="url(#clip0_2009_778)">
<path d="M3.578 4.99951H0V15.9995H3.578V4.99951Z" fill="#1976D2"/>
<path d="M12.902 5.129C12.864 5.117 12.828 5.104 12.788 5.093C12.74 5.082 12.692 5.073 12.643 5.065C12.453 5.027 12.245 5 12.001 5C9.915 5 8.592 6.517 8.156 7.103V5H4.578V16H8.156V10C8.156 10 10.86 6.234 12.001 9C12.001 11.469 12.001 16 12.001 16H15.578V8.577C15.578 6.915 14.439 5.53 12.902 5.129Z" fill="#1976D2"/>
<path d="M1.75 2.99951C2.7165 2.99951 3.5 2.21601 3.5 1.24951C3.5 0.283013 2.7165 -0.500488 1.75 -0.500488C0.783502 -0.500488 0 0.283013 0 1.24951C0 2.21601 0.783502 2.99951 1.75 2.99951Z" fill="#1976D2"/>
</g>
<defs>
<clipPath id="clip0_2009_778">
<rect width="16" height="16" fill="white"/>
</clipPath>
</defs>
</svg>
