<svg width="20" height="20" viewBox="0 0 20 20" fill="none" xmlns="http://www.w3.org/2000/svg">
<g clip-path="url(#clip0_109_26)">
<path d="M4.32218 15.7081C5.75729 17.0389 7.69202 17.8567 9.82236 17.8567C14.2461 17.8567 17.8318 14.3386 17.8318 9.99967C17.8318 5.66017 14.2458 2.14242 9.82236 2.14242C7.65963 2.14242 5.69915 2.98473 4.25781 4.35097L3.33333 3.41271C5.01575 1.8173 7.3035 0.833008 9.82215 0.833008C14.9745 0.833008 19.1667 4.94538 19.1667 9.99967C19.1667 15.0544 14.9745 19.1663 9.82215 19.1663C7.34004 19.1663 5.08262 18.2106 3.40788 16.6565L4.32218 15.7081Z" fill="white"/>
<path d="M12.4944 9.99988L12.4996 9.99459L9.39787 6.66699L8.46219 7.67068L9.97282 9.29088H0.833328V10.7098H9.97282L8.46219 12.3302L9.39787 13.3337L12.5 10.0058L12.4944 9.99988Z" fill="white"/>
</g>
<defs>
<clipPath id="clip0_109_26">
<rect width="20" height="20" fill="white"/>
</clipPath>
</defs>
</svg>
