<svg width="216" height="60" viewBox="0 0 216 60" fill="none" xmlns="http://www.w3.org/2000/svg">
<g clip-path="url(#clip0_63_6614)">
<path d="M49.1921 39.3167C49.113 38.5023 47.6093 38.565 47.6093 38.565L39.4581 38.8625C39.4107 38.6276 39.1099 37.594 39.1099 37.594C39.1099 37.594 44.6021 37.5626 46.9129 37.406C49.2238 37.2494 48.9864 35.9965 48.9864 35.9965C48.9864 35.9965 49.2554 25.707 49.2079 23.7493C49.1605 21.776 48.7015 14.3682 48.5115 12.8334C48.3216 11.2986 48.3216 9.35657 46.7705 8.79276C45.2194 8.22895 43.5733 7.86874 42.4179 7.75911C41.2625 7.64948 32.0033 7.75911 28.2364 8.40123C24.4694 9.04334 22.301 9.57583 21.114 11.8311C19.9269 14.0863 19.2305 13.8984 19.2305 13.8984C18.3441 14.0236 15.3844 14.7441 14.8462 15.0103C14.3081 15.2766 13.4534 16.2632 13.2318 17.1403C13.0102 18.0173 13.6592 17.892 13.6592 17.892C12.4563 20.3038 12.1239 23.718 12.1239 23.718C11.4275 23.9059 10.7311 24.1879 10.0821 24.5011V20.9146C10.0821 20.6954 9.8922 20.5074 9.67061 20.5074H8.57851C8.35692 20.5074 8.16699 20.6954 8.16699 20.9146V25.4094C8.16699 25.4408 8.16699 25.4877 8.18282 25.5191C7.12237 26.1768 6.3943 26.725 6.3943 26.725C5.42882 27.5707 4.79571 28.526 4.35254 29.4657C4.96982 28.714 5.90364 28.3381 9.02168 28.2911C12.852 28.2285 16.2707 27.9466 20.0377 28.2911C23.8047 28.6357 23.0449 30.4837 23.0449 31.6896C23.0449 32.8956 22.2852 38.1734 21.5413 40.0058C21.2248 40.7889 21.1931 41.1804 20.9873 41.384C23.3298 41.6659 33.4278 41.243 33.4278 41.243C33.7919 39.7082 33.9185 39.4263 34.1876 38.5806C34.4566 37.7506 36.6567 34.2424 38.366 38.0168C40.0438 41.7129 39.4581 47.0377 39.4581 47.0377C39.9963 47.0064 41.769 46.7402 41.769 46.7402C41.769 46.7402 46.359 45.3933 47.8626 44.9704C49.3504 44.5476 49.1763 43.7332 49.1763 43.7332C49.1763 43.7332 49.2712 40.1311 49.1921 39.3167ZM46.4065 20.8207C46.4065 20.8207 46.4223 20.5388 46.6913 20.6641C46.9604 20.805 47.6568 21.1965 47.6568 21.1965C47.6568 21.1965 47.8309 21.3062 47.8309 21.8073C47.8309 22.3085 47.8309 25.801 47.8309 25.801C47.8309 25.801 47.8626 26.1612 47.4511 26.1612C47.0396 26.1612 46.8655 26.1142 46.6755 26.0359C46.5014 25.9732 46.4698 25.9419 46.3906 25.3625C46.3273 24.7986 46.4065 20.8207 46.4065 20.8207ZM40.6136 18.0329C40.9776 18.1739 41.8006 18.5968 41.8006 18.5968C41.8006 18.5968 42.0539 18.8473 42.0697 19.4268C42.0855 19.9906 42.0697 20.3978 42.0697 20.3978H40.297V19.7557V18.2679C40.3128 18.2679 40.2495 17.892 40.6136 18.0329ZM33.1271 38.9408C32.9372 39.9432 32.3357 41.0551 30.5314 40.9925C28.727 40.9298 22.3802 41.5719 23.0133 40.0841C23.0133 40.0841 23.2982 38.9095 25.3874 38.4866C27.4925 38.0638 32.2091 38.0168 32.2091 38.0168C32.2091 38.0168 33.317 37.9385 33.1271 38.9408ZM36.5775 23.0289C36.5775 23.0289 16.1599 22.7783 12.4721 23.6554C12.4721 23.6554 12.8203 19.0509 14.4505 17.1246C14.4505 17.1246 35.5012 15.2296 38.8092 16.4668C38.8092 16.4512 37.1473 21.3062 36.5775 23.0289ZM38.0178 26.1142C37.7804 23.3735 38.1603 21.9326 38.92 19.5991C39.6639 17.2655 40.0596 17.8607 40.0596 17.8607L39.933 23.6554C39.933 27.4454 38.0178 26.1142 38.0178 26.1142Z" fill="white"/>
<path d="M3.51371 34.0702C2.3583 34.7749 1.6144 36.3097 1.17123 37.7662C1.64606 37.7662 3.24464 37.7976 3.5612 38.4867C3.92523 39.301 3.81444 40.2721 3.2763 40.3817C2.8173 40.4756 1.06044 40.3347 0.585608 40.2877C0.522297 40.6949 0.50647 40.9298 0.50647 40.9298L4.84323 41.0081C4.40006 40.5226 3.78278 39.1288 3.57702 35.1978C3.5612 35.2134 3.52954 34.7436 3.51371 34.0702Z" fill="white"/>
<path d="M49.7778 23.765C49.8252 25.7383 49.5562 36.0122 49.5562 36.0122C49.5562 36.0122 49.6195 36.3411 49.3821 36.6699L51.4713 36.7169V9.02769L48.0367 9.23128C48.8914 10.0457 48.9231 11.5805 49.0655 12.8334C49.2554 14.3839 49.7144 21.7917 49.7778 23.765Z" fill="white"/>
<path d="M5.33391 40.2094H7.50229C7.72388 40.2094 7.91381 40.0215 7.91381 39.8022V30.7656C7.91381 30.5464 7.72388 30.3584 7.50229 30.3584H5.33391C5.11232 30.3584 4.92239 30.5464 4.92239 30.7656V39.8022C4.92239 40.0215 5.0965 40.2094 5.33391 40.2094Z" fill="white"/>
<path d="M17.5528 40.2094H20.3701C20.5917 40.2094 20.7816 40.0215 20.7816 39.8022V30.7656C20.7816 30.5464 20.5917 30.3584 20.3701 30.3584H17.5528C17.3312 30.3584 17.1413 30.5464 17.1413 30.7656V39.8022C17.1413 40.0215 17.3312 40.2094 17.5528 40.2094Z" fill="white"/>
<path d="M8.73687 40.2094H11.7125C11.934 40.2094 12.124 40.0215 12.124 39.8022V30.7656C12.124 30.5464 11.934 30.3584 11.7125 30.3584H8.73687C8.51528 30.3584 8.32535 30.5464 8.32535 30.7656V39.8022C8.32535 40.0215 8.51528 40.2094 8.73687 40.2094Z" fill="white"/>
<path d="M13.1053 40.2094H16.0809C16.3024 40.2094 16.4924 40.0215 16.4924 39.8022V30.7656C16.4924 30.5464 16.3024 30.3584 16.0809 30.3584H13.1053C12.8837 30.3584 12.6938 30.5464 12.6938 30.7656V39.8022C12.6938 40.0215 12.8679 40.2094 13.1053 40.2094Z" fill="white"/>
<path d="M27.54 42.2141C26.5745 42.2141 12.5671 41.9008 8.34115 41.7599C4.11518 41.6189 0.126625 41.337 0.126625 41.337C-0.0474782 42.1827 0.0158322 47.0221 0.0158322 47.0221C0.348212 47.2257 1.7727 47.398 3.56121 47.5389C4.0677 51.0314 5.7929 53.6155 7.85049 53.6155C9.81311 53.6155 11.4908 51.2506 12.0765 47.9774C12.4721 47.9931 12.6937 47.9931 12.6937 47.9931C12.6937 47.9931 25.245 48.3533 27.0335 48.3533C28.8221 48.3533 30.1357 48.134 30.1357 48.134L33.2538 47.9618C32.9689 44.9861 33.4437 41.7755 33.4437 41.7755C33.1113 41.8225 28.5055 42.2141 27.54 42.2141ZM5.00152 44.7042L7.42315 44.8138C7.67639 44.8295 7.86632 45.0331 7.86632 45.2837L7.80301 46.5679C7.78718 46.8185 7.58142 47.0064 7.32818 47.0064L4.90656 46.8968C4.65332 46.8811 4.46339 46.6775 4.46339 46.427L4.5267 45.1427C4.5267 44.8921 4.74828 44.6885 5.00152 44.7042ZM3.08639 46.7089L1.72521 46.6305C1.50363 46.6149 1.32952 46.4269 1.34535 46.2077L1.42449 44.9078C1.44032 44.6885 1.63025 44.5163 1.85183 44.5319L3.21301 44.6102C3.43459 44.6259 3.6087 44.8138 3.59287 45.0331L3.51373 46.333C3.51373 46.5522 3.3238 46.7245 3.08639 46.7089ZM15.4319 46.9125C15.4319 47.163 15.2103 47.3666 14.9571 47.351L9.21166 47.1944C8.95842 47.1944 8.75266 46.9751 8.76849 46.7245L8.80015 45.3463C8.80015 45.0957 9.02173 44.8921 9.27497 44.9078L15.0204 45.0644C15.2736 45.0644 15.4794 45.2837 15.4636 45.5343L15.4319 46.9125ZM20.2593 47.2257C20.2593 47.5076 20.0061 47.7425 19.7212 47.7268L16.9672 47.6642C16.6823 47.6642 16.4449 47.4136 16.4607 47.1317L16.4924 45.6752C16.4924 45.3933 16.7456 45.1584 17.0305 45.174L19.7845 45.2367C20.0694 45.2367 20.3068 45.4873 20.291 45.7692L20.2593 47.2257ZM25.1184 47.3353C25.1184 47.5859 24.9126 47.7895 24.6594 47.7895H22.1586C21.9054 47.7895 21.6996 47.5859 21.6996 47.3353V45.8631C21.6996 45.6126 21.9054 45.409 22.1586 45.409H24.6594C24.9126 45.409 25.1184 45.6126 25.1184 45.8631V47.3353Z" fill="white"/>
<path d="M36.3717 37.2024C34.9156 37.2024 33.7285 40.8829 33.7285 45.409C33.7285 49.9351 34.9156 53.6155 36.3717 53.6155C37.8278 53.6155 39.0149 49.9351 39.0149 45.409C39.0149 40.8672 37.8278 37.2024 36.3717 37.2024Z" fill="white"/>
<path d="M52.152 47.2727C52.7726 47.2727 53.2757 45.0289 53.2757 42.261C53.2757 39.4932 52.7726 37.2494 52.152 37.2494C51.5313 37.2494 51.0282 39.4932 51.0282 42.261C51.0282 45.0289 51.5313 47.2727 52.152 47.2727Z" fill="white"/>
<path d="M54.7002 37.1398C54.1462 37.1398 53.6872 39.1601 53.6872 41.6502C53.6872 44.1404 54.1462 46.1607 54.7002 46.1607C55.2542 46.1607 55.7132 44.1404 55.7132 41.6502C55.7132 39.1601 55.2542 37.1398 54.7002 37.1398Z" fill="white"/>
<path d="M64.8298 37.4374C64.5766 37.4374 64.3867 38.565 64.3867 39.9588C64.3867 41.3527 64.5924 42.4803 64.8298 42.4803C65.0831 42.4803 65.273 41.3527 65.273 39.9588C65.2888 38.565 65.0831 37.4374 64.8298 37.4374Z" fill="white"/>
<path d="M65.7478 37.4374C65.6054 37.4374 65.4946 38.471 65.4946 39.7552C65.4946 41.0395 65.6054 42.0731 65.7478 42.0731C65.8903 42.0731 66.001 41.0395 66.001 39.7552C66.001 38.471 65.8903 37.4374 65.7478 37.4374Z" fill="white"/>
<path d="M51.9778 9.02769V36.7013L67.8529 37.2494V23.9843L51.9778 9.02769Z" fill="white"/>
<path d="M56.3936 41.2431L64.0383 39.6143C64.0383 39.6143 64.0067 39.2854 64.0542 38.9252C64.0858 38.6746 64.1333 38.3144 64.1333 38.3144L56.1562 38.5806C56.2986 39.4107 56.3936 41.2431 56.3936 41.2431Z" fill="white"/>
</g>
<path d="M87.6458 22.13H79.2608L77.6612 26H73.3784L81.428 7.94003H85.556L93.6314 26H89.2454L87.6458 22.13ZM86.33 18.9566L83.4662 12.0422L80.6024 18.9566H86.33ZM100.227 7.94003V26H96.0477V11.294H92.4357V7.94003H100.227Z" fill="white"/>
<path d="M79.276 36.4421H73.4968V33.0365H89.2348V36.4421H83.4556V51.0965H79.276V36.4421ZM102.99 51.0965L99.5074 46.0655H99.301H95.6632V51.0965H91.4836V33.0365H99.301C100.901 33.0365 102.285 33.3031 103.455 33.8363C104.642 34.3695 105.553 35.1263 106.19 36.1067C106.826 37.0871 107.144 38.2481 107.144 39.5897C107.144 40.9313 106.817 42.0923 106.164 43.0727C105.527 44.0359 104.616 44.7755 103.429 45.2915L107.48 51.0965H102.99ZM102.913 39.5897C102.913 38.5749 102.586 37.8009 101.933 37.2677C101.279 36.7173 100.324 36.4421 99.0688 36.4421H95.6632V42.7373H99.0688C100.324 42.7373 101.279 42.4621 101.933 41.9117C102.586 41.3613 102.913 40.5873 102.913 39.5897ZM118.479 51.4061C115.899 51.4061 113.887 50.6923 112.442 49.2647C111.015 47.8371 110.301 45.7989 110.301 43.1501V33.0365H114.48V42.9953C114.48 46.2289 115.822 47.8457 118.505 47.8457C119.812 47.8457 120.81 47.4587 121.498 46.6847C122.186 45.8935 122.53 44.6637 122.53 42.9953V33.0365H126.658V43.1501C126.658 45.7989 125.936 47.8371 124.491 49.2647C123.063 50.6923 121.059 51.4061 118.479 51.4061ZM139.431 51.4061C137.591 51.4061 135.922 51.0105 134.426 50.2193C132.947 49.4109 131.777 48.3015 130.917 46.8911C130.074 45.4635 129.653 43.8553 129.653 42.0665C129.653 40.2777 130.074 38.6781 130.917 37.2677C131.777 35.8401 132.947 34.7307 134.426 33.9395C135.922 33.1311 137.599 32.7269 139.457 32.7269C141.022 32.7269 142.433 33.0021 143.688 33.5525C144.961 34.1029 146.027 34.8941 146.887 35.9261L144.204 38.4029C142.983 36.9925 141.469 36.2873 139.663 36.2873C138.545 36.2873 137.548 36.5367 136.671 37.0355C135.793 37.5171 135.105 38.1965 134.607 39.0737C134.125 39.9509 133.884 40.9485 133.884 42.0665C133.884 43.1845 134.125 44.1821 134.607 45.0593C135.105 45.9365 135.793 46.6245 136.671 47.1233C137.548 47.6049 138.545 47.8457 139.663 47.8457C141.469 47.8457 142.983 47.1319 144.204 45.7043L146.887 48.1811C146.027 49.2303 144.961 50.0301 143.688 50.5805C142.415 51.1309 140.996 51.4061 139.431 51.4061ZM156.289 44.0015L153.864 46.5299V51.0965H149.71V33.0365H153.864V41.4731L161.862 33.0365H166.506L159.024 41.0861L166.944 51.0965H162.068L156.289 44.0015ZM168.808 33.0365H172.988V51.0965H168.808V33.0365ZM193.837 33.0365V51.0965H190.406L181.402 40.1315V51.0965H177.274V33.0365H180.731L189.709 44.0015V33.0365H193.837ZM210.313 41.7827H214.132V49.1099C213.151 49.8495 212.016 50.4171 210.726 50.8127C209.436 51.2083 208.138 51.4061 206.83 51.4061C204.956 51.4061 203.27 51.0105 201.774 50.2193C200.277 49.4109 199.099 48.3015 198.239 46.8911C197.396 45.4635 196.975 43.8553 196.975 42.0665C196.975 40.2777 197.396 38.6781 198.239 37.2677C199.099 35.8401 200.286 34.7307 201.799 33.9395C203.313 33.1311 205.016 32.7269 206.908 32.7269C208.49 32.7269 209.926 32.9935 211.216 33.5267C212.506 34.0599 213.59 34.8339 214.467 35.8487L211.784 38.3255C210.494 36.9667 208.937 36.2873 207.114 36.2873C205.962 36.2873 204.938 36.5281 204.044 37.0097C203.15 37.4913 202.453 38.1707 201.954 39.0479C201.455 39.9251 201.206 40.9313 201.206 42.0665C201.206 43.1845 201.455 44.1821 201.954 45.0593C202.453 45.9365 203.141 46.6245 204.018 47.1233C204.913 47.6049 205.927 47.8457 207.063 47.8457C208.267 47.8457 209.35 47.5877 210.313 47.0717V41.7827Z" fill="white"/>
<defs>
<clipPath id="clip0_63_6614">
<rect width="67.8529" height="45.8877" fill="white" transform="translate(0 7.7278)"/>
</clipPath>
</defs>
</svg>
