<svg width="74" height="74" viewBox="0 0 74 74" fill="none" xmlns="http://www.w3.org/2000/svg">
<path d="M27.75 55.5H26.5938C25.9804 55.5 25.3922 55.7436 24.9586 56.1773C24.5249 56.611 24.2812 57.1992 24.2812 57.8125V62.4375C24.2812 63.0508 24.5249 63.639 24.9586 64.0727C25.3922 64.5064 25.9804 64.75 26.5938 64.75H47.4062C48.0196 64.75 48.6078 64.5064 49.0414 64.0727C49.4751 63.639 49.7188 63.0508 49.7188 62.4375V57.8125C49.7188 57.1992 49.4751 56.611 49.0414 56.1773C48.6078 55.7436 48.0196 55.5 47.4062 55.5H27.75Z" fill="url(#paint0_linear_107_58)"/>
<path d="M30.0625 68.2188C30.0625 68.8321 30.3061 69.4203 30.7398 69.8539C31.1735 70.2876 31.7617 70.5312 32.375 70.5312H41.625C42.2383 70.5312 42.8265 70.2876 43.2602 69.8539C43.6939 69.4203 43.9375 68.8321 43.9375 68.2188V64.75H30.0625V68.2188Z" fill="url(#paint1_linear_107_58)"/>
<path d="M53.1875 31.2188C53.1875 32.1387 52.822 33.021 52.1715 33.6715C51.521 34.322 50.6387 34.6875 49.7187 34.6875C48.7988 34.6875 47.9165 34.322 47.266 33.6715C46.6155 33.021 46.25 32.1387 46.25 31.2188C46.2481 30.3639 46.5656 29.5391 47.1403 28.9062H37V39.0466C36.3671 38.4718 35.5424 38.1543 34.6875 38.1562C33.7675 38.1562 32.8852 38.5217 32.2347 39.1722C31.5842 39.8227 31.2188 40.705 31.2188 41.625C31.2188 42.545 31.5842 43.4273 32.2347 44.0778C32.8852 44.7283 33.7675 45.0938 34.6875 45.0938C35.5424 45.0957 36.3671 44.7782 37 44.2034V55.5H46.25V54.4386C46.2587 53.2353 46.577 52.0544 47.1741 51.0097C47.7713 49.965 48.6273 49.0916 49.6598 48.4735C53.0424 46.4069 55.8669 43.5426 57.8859 40.1314C59.9049 36.7201 61.0568 32.8659 61.2408 28.9062H52.2972C52.8719 29.5391 53.1894 30.3639 53.1875 31.2188Z" fill="url(#paint2_linear_107_58)"/>
<path d="M37 44.2034C36.3671 44.7782 35.5424 45.0957 34.6875 45.0938C33.7675 45.0938 32.8852 44.7283 32.2347 44.0778C31.5842 43.4273 31.2187 42.545 31.2187 41.625C31.2187 40.705 31.5842 39.8227 32.2347 39.1722C32.8852 38.5217 33.7675 38.1562 34.6875 38.1562C35.5424 38.1543 36.3671 38.4718 37 39.0466V28.9062H26.8597C27.4344 28.2734 27.7519 27.4486 27.75 26.5938C27.75 25.6738 27.3845 24.7915 26.734 24.141C26.0835 23.4905 25.2012 23.125 24.2812 23.125C23.3613 23.125 22.479 23.4905 21.8285 24.141C21.1779 24.7915 20.8125 25.6738 20.8125 26.5938C20.8106 27.4486 21.1281 28.2734 21.7028 28.9062H12.7569C12.9415 32.8701 14.0959 36.7281 16.1189 40.1418C18.1419 43.5556 20.9716 46.4208 24.3599 48.4862C25.3886 49.1034 26.2409 49.9752 26.8347 51.0176C27.4285 52.06 27.7437 53.2378 27.75 54.4374V55.5H37V44.2034Z" fill="url(#paint3_linear_107_58)"/>
<path d="M39.3125 12.7188C40.2325 12.7188 41.1148 13.0842 41.7653 13.7347C42.4158 14.3852 42.7812 15.2675 42.7812 16.1875C42.7812 17.1075 42.4158 17.9898 41.7653 18.6403C41.1148 19.2908 40.2325 19.6562 39.3125 19.6562C38.4576 19.6582 37.6329 19.3407 37 18.7659V28.9062H47.1403C46.5656 29.5391 46.2481 30.3639 46.25 31.2188C46.25 32.1387 46.6155 33.021 47.266 33.6715C47.9165 34.322 48.7988 34.6875 49.7187 34.6875C50.6387 34.6875 51.521 34.322 52.1715 33.6715C52.822 33.021 53.1875 32.1387 53.1875 31.2188C53.1894 30.3639 52.8719 29.5391 52.2972 28.9062H61.2408C61.2778 28.12 61.2905 27.3268 61.2512 26.5232C60.9179 20.5503 58.404 14.9075 54.1865 10.665C49.9689 6.42247 44.341 3.87541 38.3702 3.50691C37.9107 3.48147 37.454 3.46875 37 3.46875V13.6091C37.6329 13.0343 38.4576 12.7168 39.3125 12.7188Z" fill="url(#paint4_linear_107_58)"/>
<path d="M12.7188 27.75C12.7188 28.1385 12.7384 28.5224 12.7569 28.9062H21.7028C21.1281 28.2734 20.8106 27.4486 20.8125 26.5938C20.8125 25.6738 21.178 24.7915 21.8285 24.141C22.479 23.4905 23.3613 23.125 24.2812 23.125C25.2012 23.125 26.0835 23.4905 26.734 24.141C27.3845 24.7915 27.75 25.6738 27.75 26.5938C27.7519 27.4486 27.4344 28.2734 26.8597 28.9062H37V18.7659C37.6329 19.3407 38.4576 19.6582 39.3125 19.6562C40.2325 19.6562 41.1148 19.2908 41.7653 18.6403C42.4158 17.9898 42.7812 17.1075 42.7812 16.1875C42.7812 15.2675 42.4158 14.3852 41.7653 13.7347C41.1148 13.0842 40.2325 12.7188 39.3125 12.7188C38.4576 12.7168 37.6329 13.0343 37 13.6091V3.46875C30.5602 3.46875 24.3842 6.02695 19.8306 10.5806C15.2769 15.1342 12.7188 21.3102 12.7188 27.75Z" fill="url(#paint5_linear_107_58)"/>
<path d="M53.1875 31.2188C53.1875 32.1387 52.822 33.021 52.1715 33.6715C51.521 34.322 50.6387 34.6875 49.7187 34.6875C48.7988 34.6875 47.9165 34.322 47.266 33.6715C46.6155 33.021 46.25 32.1387 46.25 31.2188C46.2481 30.3639 46.5656 29.5391 47.1403 28.9062H41.8875C40.3834 30.6659 38.7497 32.3104 37 33.8261V39.0466C36.3671 38.4718 35.5424 38.1543 34.6875 38.1562C33.7675 38.1562 32.8852 38.5217 32.2347 39.1722C31.5842 39.8227 31.2188 40.705 31.2188 41.625C31.2188 42.545 31.5842 43.4273 32.2347 44.0778C32.8852 44.7283 33.7675 45.0938 34.6875 45.0938C35.5424 45.0957 36.3671 44.7782 37 44.2034V55.5H46.25V54.4386C46.2587 53.2353 46.577 52.0544 47.1741 51.0097C47.7713 49.965 48.6273 49.0916 49.6598 48.4735C53.0424 46.4069 55.8669 43.5426 57.8859 40.1314C59.9049 36.7201 61.0568 32.8659 61.2408 28.9062H52.2972C52.8719 29.5391 53.1894 30.3639 53.1875 31.2188Z" fill="url(#paint6_linear_107_58)"/>
<path d="M34.6875 45.0937C33.7675 45.0937 32.8852 44.7282 32.2347 44.0777C31.5842 43.4272 31.2187 42.5449 31.2187 41.625C31.2187 40.705 31.5842 39.8227 32.2347 39.1722C32.8852 38.5217 33.7675 38.1562 34.6875 38.1562C35.5424 38.1543 36.3671 38.4718 37 39.0465V33.826C31.7253 38.3302 25.6816 41.8463 19.1591 44.2057C20.6866 45.8662 22.4378 47.306 24.3622 48.4838C25.3908 49.1015 26.2429 49.9738 26.8363 51.0166C27.4297 52.0594 27.7444 53.2375 27.75 54.4374V55.4999H37V44.2034C36.3671 44.7781 35.5424 45.0956 34.6875 45.0937Z" fill="url(#paint7_linear_107_58)"/>
<path d="M61.2512 26.5232C61.0501 22.8167 60.0046 19.2053 58.1944 15.9647C56.3842 12.7241 53.8574 9.94016 50.8068 7.82544C50.2148 15.6377 47.0823 23.0415 41.8875 28.9062H47.1403C46.5656 29.5391 46.2481 30.3638 46.25 31.2187C46.25 32.1387 46.6155 33.021 47.266 33.6715C47.9165 34.322 48.7988 34.6874 49.7188 34.6874C50.6387 34.6874 51.521 34.322 52.1715 33.6715C52.822 33.021 53.1875 32.1387 53.1875 31.2187C53.1894 30.3638 52.8719 29.5391 52.2972 28.9062H61.2408C61.2812 28.1199 61.2905 27.3268 61.2512 26.5232Z" fill="url(#paint8_linear_107_58)"/>
<defs>
<linearGradient id="paint0_linear_107_58" x1="30.0446" y1="60.1019" x2="18.802" y2="69.8702" gradientUnits="userSpaceOnUse">
<stop offset="0.0353535" stop-color="#1968B3"/>
<stop offset="1" stop-color="#4C97DD"/>
</linearGradient>
<linearGradient id="paint1_linear_107_58" x1="33.2061" y1="67.6262" x2="26.3732" y2="72.8075" gradientUnits="userSpaceOnUse">
<stop offset="0.0353535" stop-color="#1968B3"/>
<stop offset="1" stop-color="#4C97DD"/>
</linearGradient>
<linearGradient id="paint2_linear_107_58" x1="25.5052" y1="22.0388" x2="53.5338" y2="61.9519" gradientUnits="userSpaceOnUse">
<stop offset="0.0353535" stop-color="#1968B3"/>
<stop offset="1" stop-color="#4C97DD"/>
</linearGradient>
<linearGradient id="paint3_linear_107_58" x1="8.14313" y1="14.7647" x2="44.36" y2="48.9738" gradientUnits="userSpaceOnUse">
<stop offset="0.0353535" stop-color="#1968B3"/>
<stop offset="1" stop-color="#4C97DD"/>
</linearGradient>
<linearGradient id="paint4_linear_107_58" x1="42.5" y1="19" x2="24.7432" y2="23.3625" gradientUnits="userSpaceOnUse">
<stop offset="0.0353535" stop-color="#1968B3"/>
<stop offset="1" stop-color="#4C97DD"/>
</linearGradient>
<linearGradient id="paint5_linear_107_58" x1="6.99748" y1="-3.10007" x2="33.3697" y2="36.2141" gradientUnits="userSpaceOnUse">
<stop offset="0.0353535" stop-color="#1968B3"/>
<stop offset="1" stop-color="#4C97DD"/>
</linearGradient>
<linearGradient id="paint6_linear_107_58" x1="98.7491" y1="41.9492" x2="42.9579" y2="15.615" gradientUnits="userSpaceOnUse">
<stop offset="0.0353535" stop-color="#1968B3"/>
<stop offset="1" stop-color="#4C97DD"/>
</linearGradient>
<linearGradient id="paint7_linear_107_58" x1="59.2897" y1="44.4561" x2="23.0421" y2="31.9807" gradientUnits="userSpaceOnUse">
<stop offset="0.0353535" stop-color="#1968B3"/>
<stop offset="1" stop-color="#4C97DD"/>
</linearGradient>
<linearGradient id="paint8_linear_107_58" x1="69.5" y1="13" x2="27.1992" y2="15.6404" gradientUnits="userSpaceOnUse">
<stop offset="0.0353535" stop-color="#1968B3"/>
<stop offset="1" stop-color="#4C97DD"/>
</linearGradient>
</defs>
</svg>
