<svg width="113" height="78" viewBox="0 0 113 78" fill="none" xmlns="http://www.w3.org/2000/svg">
<path d="M85.7242 25.3275C85.7242 24.1585 84.9448 23.3792 83.7758 23.3792H1.94839C0.779358 23.3792 0 24.1585 0 25.3275V75.9832C0 77.1523 0.779358 77.9308 1.94839 77.9308H83.7758C84.9448 77.9308 85.7242 77.1523 85.7242 75.9832V25.3275Z" fill="url(#paint0_linear_290_6260)"/>
<path d="M93.5169 17.5348C93.5169 16.3658 92.7375 15.5864 91.5694 15.5864H9.74109C8.57205 15.5864 7.79269 16.3658 7.79269 17.5348V68.1896C7.79269 69.3587 8.57205 70.138 9.74109 70.138H91.5694C92.7375 70.138 93.5169 69.3587 93.5169 68.1896V17.5348Z" fill="url(#paint1_linear_290_6260)"/>
<path d="M113 7.79272H17.5347C16.3656 7.79272 15.5863 8.57208 15.5863 9.74112V60.3968C15.5863 61.5658 16.3656 62.3452 17.5347 62.3452H109.103C111.246 62.3452 113 60.5916 113 58.4484V7.79272Z" fill="url(#paint2_linear_290_6260)"/>
<path d="M31.1726 15.5864C31.1726 19.8729 27.6655 23.3791 23.379 23.3791V46.759C27.6655 46.759 31.1726 50.2653 31.1726 54.5517H97.4137V15.5864H31.1726Z" fill="url(#paint3_linear_290_6260)"/>
<path d="M83.7758 35.0695C83.7758 45.8288 75.0529 54.5517 64.2927 54.5517C53.5334 54.5517 44.8105 45.8288 44.8105 35.0695C44.8105 24.3094 53.5334 15.5864 64.2927 15.5864C75.0529 15.5864 83.7758 24.3094 83.7758 35.0695Z" fill="url(#paint4_linear_290_6260)"/>
<path d="M68.1895 44.8105H58.4484C57.2794 44.8105 56.5 44.0311 56.5 42.8621C56.5 41.693 57.2794 40.9137 58.4484 40.9137H68.1895C69.3585 40.9137 70.1379 40.1343 70.1379 38.9653C70.1379 37.7963 69.3585 37.0169 68.1895 37.0169H60.3968C57.0845 37.0169 54.5516 34.4848 54.5516 31.1726C54.5516 27.8603 57.0845 25.3274 60.3968 25.3274H70.1379C71.3069 25.3274 72.0863 26.1068 72.0863 27.2758C72.0863 28.4448 71.3069 29.2242 70.1379 29.2242H60.3968C59.2278 29.2242 58.4484 30.0035 58.4484 31.1726C58.4484 32.3416 59.2278 33.121 60.3968 33.121H68.1895C71.5018 33.121 74.0347 35.653 74.0347 38.9653C74.0347 42.2776 71.3069 44.8105 68.1895 44.8105Z" fill="url(#paint5_linear_290_6260)"/>
<path d="M64.2927 48.7073C63.1245 48.7073 62.3452 47.928 62.3452 46.7589V23.3791C62.3452 22.21 63.1245 21.4307 64.2927 21.4307C65.4618 21.4307 66.2411 22.21 66.2411 23.3791V46.7589C66.2411 47.928 65.2669 48.7073 64.2927 48.7073Z" fill="url(#paint6_linear_290_6260)"/>
<path d="M109.103 0H105.207V54.5516H109.103C111.246 54.5516 113 56.3052 113 58.4484V3.89679C113 1.75356 111.246 0 109.103 0Z" fill="#519ADE"/>
<defs>
<linearGradient id="paint0_linear_290_6260" x1="35.5641" y1="31.6507" x2="9.75082" y2="112.564" gradientUnits="userSpaceOnUse">
<stop offset="0.0353535" stop-color="#1968B3"/>
<stop offset="1" stop-color="#4C97DD"/>
</linearGradient>
<linearGradient id="paint1_linear_290_6260" x1="43.3568" y1="23.858" x2="17.5435" y2="104.771" gradientUnits="userSpaceOnUse">
<stop offset="0.0353535" stop-color="#1968B3"/>
<stop offset="1" stop-color="#4C97DD"/>
</linearGradient>
<linearGradient id="paint2_linear_290_6260" x1="56" y1="16.0645" x2="32.8001" y2="98.701" gradientUnits="userSpaceOnUse">
<stop offset="0.0353535" stop-color="#1968B3"/>
<stop offset="1" stop-color="#4C97DD"/>
</linearGradient>
<linearGradient id="paint3_linear_290_6260" x1="115.133" y1="-59.8293" x2="61.4162" y2="52.7001" gradientUnits="userSpaceOnUse">
<stop offset="0.0353535" stop-color="#1968B3"/>
<stop offset="1" stop-color="#4C97DD"/>
</linearGradient>
<linearGradient id="paint4_linear_290_6260" x1="60.5" y1="-15.4355" x2="76.2626" y2="96.0227" gradientUnits="userSpaceOnUse">
<stop offset="0.0353535" stop-color="#1968B3"/>
<stop offset="1" stop-color="#4C97DD"/>
</linearGradient>
<linearGradient id="paint5_linear_290_6260" x1="23" y1="-38.9355" x2="18.2362" y2="31.6312" gradientUnits="userSpaceOnUse">
<stop offset="0.0353535" stop-color="#1968B3"/>
<stop offset="1" stop-color="#4C97DD"/>
</linearGradient>
<linearGradient id="paint6_linear_290_6260" x1="23" y1="-38.9355" x2="18.2362" y2="31.6312" gradientUnits="userSpaceOnUse">
<stop offset="0.0353535" stop-color="#1968B3"/>
<stop offset="1" stop-color="#4C97DD"/>
</linearGradient>
</defs>
</svg>
