<svg width="113" height="113" viewBox="0 0 113 113" fill="none" xmlns="http://www.w3.org/2000/svg">
<g clip-path="url(#clip0_290_6202)">
<path d="M55.5 2L16 25C16 25 5.21292 68.3421 27.5 91C33.709 97.3123 43.4072 110 55.5 110C68.0374 110 78.0537 97.7155 84.5 91C106.59 67.9878 97.5 25 97.5 25L55.5 2Z" fill="url(#paint0_linear_290_6202)"/>
<path d="M99.2904 22.8793L56.8201 0.248874C56.19 -0.0873965 55.4349 -0.0826773 54.8095 0.260672L13.5144 22.8911C12.8371 23.2627 12.4171 23.973 12.4171 24.7459V54.307C12.4418 78.6069 26.8389 100.591 49.1035 110.326L54.8355 112.824C55.3711 113.058 55.9812 113.059 56.518 112.826L62.9767 110.037C85.6543 100.513 100.408 78.3167 100.41 53.7206V24.7459C100.41 23.9648 99.9794 23.2462 99.2904 22.8793ZM96.1814 53.7206C96.1766 76.6211 82.4368 97.2847 61.3214 106.147L61.3072 106.154L55.6826 108.582L50.7955 106.45C30.0706 97.3885 16.6682 76.9267 16.6446 54.307V25.9977L55.8396 4.51656L96.1814 26.0131V53.7206Z" fill="url(#paint1_linear_290_6202)"/>
<path d="M40.2398 52.9361C39.4812 52.0476 38.1467 51.9426 37.2582 52.7013C36.3698 53.4588 36.2648 54.7944 37.0234 55.6817L48.1923 68.7608C48.938 69.6339 50.2442 69.7531 51.1338 69.0287L77.1458 47.8661C78.0519 47.1298 78.1888 45.7977 77.4514 44.8915C76.7151 43.9866 75.383 43.8485 74.4769 44.5859L50.0672 64.4436L40.2398 52.9361Z" fill="url(#paint2_linear_290_6202)"/>
</g>
<defs>
<linearGradient id="paint0_linear_290_6202" x1="119.927" y1="-207.029" x2="-69.9368" y2="-40.4111" gradientUnits="userSpaceOnUse">
<stop offset="0.0353535" stop-color="#1968B3"/>
<stop offset="1" stop-color="#4C97DD"/>
</linearGradient>
<linearGradient id="paint1_linear_290_6202" x1="51.6971" y1="101.693" x2="-7.10184" y2="138.135" gradientUnits="userSpaceOnUse">
<stop offset="0.0353535" stop-color="#1968B3"/>
<stop offset="1" stop-color="#4C97DD"/>
</linearGradient>
<linearGradient id="paint2_linear_290_6202" x1="78" y1="-6.49994" x2="49.5" y2="64.2028" gradientUnits="userSpaceOnUse">
<stop offset="0.0353535" stop-color="#98BADA"/>
<stop offset="1" stop-color="#A3D2FF"/>
</linearGradient>
<clipPath id="clip0_290_6202">
<rect width="113" height="113" fill="white"/>
</clipPath>
</defs>
</svg>
