<svg width="501" height="302" viewBox="0 0 501 302" fill="none" xmlns="http://www.w3.org/2000/svg">
<g clip-path="url(#clip0_107_377)">
<path d="M293.049 15.0165C345.578 15.2833 402.732 16.3201 437.008 49.4666C472.781 84.0604 474.627 133.673 461.607 178.018C448.671 222.077 419.432 264.978 368.815 281.73C320.774 297.629 271.702 274.139 224.561 256.47C173.837 237.458 111.658 223.775 95.7617 179.387C79.044 132.707 108.551 82.4622 149.904 48.0085C186.726 17.3301 240.962 14.752 293.049 15.0165Z" fill="#DEE5F6"/>
<path d="M467 301.673C467 301.755 383.467 301.918 280.5 301.918C177.451 301.918 94 301.836 94 301.673C94 301.509 177.451 301.428 280.5 301.428C383.467 301.509 467 301.591 467 301.673Z" fill="#1968B3"/>
<path d="M436.869 260.398L435.808 280.668C435.808 281.404 435.155 281.976 434.42 281.976L398.002 282.221C397.267 282.221 396.613 281.649 396.613 280.831L396.532 265.057C396.532 264.322 397.103 263.668 397.92 263.668H420.293C420.62 263.668 421.028 263.504 421.273 263.259L425.111 259.418C425.356 259.172 425.683 259.009 426.091 259.009L435.563 258.927C436.298 258.927 436.951 259.581 436.869 260.398Z" fill="#E8505B"/>
<path opacity="0.3" d="M436.869 260.398L435.808 280.668C435.808 281.404 435.155 281.976 434.42 281.976L398.002 282.221C397.267 282.221 396.613 281.649 396.613 280.831L396.532 265.057C396.532 264.322 397.103 263.668 397.92 263.668H420.293C420.62 263.668 421.028 263.504 421.273 263.259L425.111 259.418C425.356 259.172 425.683 259.009 426.091 259.009L435.563 258.927C436.298 258.927 436.951 259.581 436.869 260.398Z" fill="black"/>
<path d="M396.692 285.063L436.458 284.771L436.283 260.987L396.517 261.279L396.692 285.063Z" fill="#F5F5F5"/>
<path d="M439.482 263.177L436.624 288.024C436.543 288.433 436.216 288.759 435.726 288.841L397.022 289.086C396.532 289.086 396.205 288.759 396.123 288.269L394 263.504C393.919 263.014 394.327 262.523 394.899 262.523L438.584 262.197C439.074 262.197 439.482 262.605 439.482 263.177Z" fill="url(#paint0_linear_107_377)"/>
<path d="M447.566 256.557L446.505 276.827C446.505 277.562 445.851 278.134 445.116 278.134L408.698 278.38C407.963 278.38 407.31 277.807 407.31 276.99L407.229 261.216C407.229 260.48 407.8 259.826 408.617 259.826H430.99C431.317 259.826 431.725 259.663 431.97 259.418L435.808 255.576C436.053 255.331 436.379 255.168 436.788 255.168L446.26 255.086C446.994 255.168 447.648 255.822 447.566 256.557Z" fill="#E8505B"/>
<path d="M447.566 256.557L446.505 276.827C446.505 277.562 445.851 278.134 445.116 278.134L408.698 278.38C407.963 278.38 407.31 277.807 407.31 276.99L407.229 261.216C407.229 260.48 407.8 259.826 408.617 259.826H430.99C431.317 259.826 431.725 259.663 431.97 259.418L435.808 255.576C436.053 255.331 436.379 255.168 436.788 255.168L446.26 255.086C446.994 255.168 447.648 255.822 447.566 256.557Z" fill="url(#paint1_linear_107_377)"/>
<path d="M407.401 281.269L447.167 280.977L446.993 257.193L407.227 257.485L407.401 281.269Z" fill="#F5F5F5"/>
<path d="M450.179 259.336L447.321 284.183C447.239 284.591 446.913 284.918 446.423 285L407.718 285.245C407.228 285.245 406.902 284.918 406.82 284.428L404.697 259.663C404.616 259.173 405.024 258.682 405.595 258.682L449.281 258.355C449.852 258.355 450.261 258.846 450.179 259.336Z" fill="#E8505B"/>
<path d="M450.179 259.336L447.321 284.183C447.239 284.591 446.913 284.918 446.423 285L407.718 285.245C407.228 285.245 406.902 284.918 406.82 284.428L404.697 259.663C404.616 259.173 405.024 258.682 405.595 258.682L449.281 258.355C449.852 258.355 450.261 258.846 450.179 259.336Z" fill="url(#paint2_linear_107_377)"/>
<path d="M459.651 261.298L458.59 281.567C458.59 282.303 457.936 282.875 457.201 282.875L420.783 283.12C420.048 283.12 419.395 282.548 419.395 281.731L419.313 265.956C419.313 265.221 419.885 264.567 420.702 264.567H443.075C443.402 264.567 443.81 264.403 444.055 264.158L447.893 260.317C448.138 260.072 448.464 259.908 448.873 259.908L458.345 259.826C459.079 259.908 459.733 260.562 459.651 261.298Z" fill="url(#paint3_linear_107_377)"/>
<path d="M419.44 286.005L459.206 285.714L459.032 261.93L419.266 262.221L419.44 286.005Z" fill="#F5F5F5"/>
<path d="M462.264 264.076L459.406 288.923C459.324 289.332 458.998 289.659 458.508 289.74L419.803 289.986C419.313 289.986 418.987 289.659 418.905 289.168L416.782 264.403C416.7 263.913 417.109 263.423 417.68 263.423L461.366 263.096C461.856 263.096 462.264 263.504 462.264 264.076Z" fill="url(#paint4_linear_107_377)"/>
<path d="M416.782 267.427V301.837H466.347V267.427H416.782ZM432.95 273.639C432.95 272.25 434.093 271.105 435.481 271.105H447.648C449.036 271.105 450.179 272.25 450.179 273.639C450.179 275.029 449.036 276.173 447.648 276.173H435.481C434.093 276.173 432.95 275.029 432.95 273.639Z" fill="url(#paint5_linear_107_377)"/>
<path d="M389.999 267.427V301.837H416.782V267.427H389.999Z" fill="url(#paint6_linear_107_377)"/>
<path d="M294.436 275.846L291.823 290.803C291.823 290.803 275.819 293.173 275.002 295.87L303.745 301.918L308.726 278.788L294.436 275.846Z" fill="url(#paint7_linear_107_377)"/>
<g opacity="0.6">
<path opacity="0.6" d="M303.037 291.457C303.527 291.702 303.853 292.437 303.527 293.009C303.282 293.582 302.547 293.827 302.057 293.582C301.567 293.336 301.159 292.519 301.485 291.947C301.812 291.457 302.628 291.211 303.118 291.538" fill="white"/>
</g>
<path opacity="0.6" d="M305.895 302L306.303 299.63L278.54 294.726C278.54 294.726 277.152 295.053 277.071 295.952L305.895 302Z" fill="white"/>
<path d="M293.483 290.558C293.483 290.721 294.136 290.885 294.708 291.538C295.28 292.11 295.525 292.764 295.688 292.764C295.851 292.764 295.769 291.865 295.035 291.13C294.381 290.476 293.483 290.394 293.483 290.558Z" fill="#263238"/>
<path d="M290.217 291.211C290.135 291.375 290.707 291.702 291.034 292.437C291.442 293.091 291.36 293.827 291.524 293.827C291.687 293.908 291.932 293.091 291.442 292.192C291.034 291.293 290.217 291.048 290.217 291.211Z" fill="#263238"/>
<path d="M287.686 294.399C287.767 294.481 288.176 293.827 287.931 292.928C287.767 292.11 287.114 291.62 287.032 291.702C286.951 291.783 287.277 292.274 287.441 293.009C287.686 293.745 287.604 294.399 287.686 294.399Z" fill="#263238"/>
<path d="M294.463 287.206C294.463 287.37 295.198 287.288 295.933 287.533C296.749 287.779 297.321 288.105 297.403 288.024C297.484 287.942 296.994 287.288 296.096 287.043C295.116 286.798 294.381 287.125 294.463 287.206Z" fill="#263238"/>
<path opacity="0.3" d="M293.946 278.788L293.456 281.485L307.583 284.346L308.154 281.976L293.946 278.788Z" fill="black"/>
<path d="M292.966 284.183C292.966 284.264 293.456 284.428 294.436 284.51C294.926 284.51 295.416 284.51 296.069 284.346C296.396 284.264 296.641 284.183 296.967 284.101C297.131 284.019 297.294 284.019 297.457 283.856C297.621 283.774 297.784 283.365 297.702 283.12C297.621 282.875 297.376 282.711 297.131 282.63C296.886 282.548 296.722 282.548 296.559 282.63C296.232 282.63 295.906 282.711 295.579 282.711C295.008 282.875 294.436 283.038 294.028 283.284C293.211 283.774 292.885 284.264 292.966 284.264C293.048 284.346 293.456 283.937 294.191 283.61C294.599 283.447 295.089 283.284 295.661 283.12C295.906 283.038 296.232 283.038 296.559 283.038C296.886 283.038 297.131 283.038 297.212 283.202C297.212 283.284 297.212 283.284 297.131 283.365C297.049 283.447 296.886 283.529 296.722 283.529C296.396 283.61 296.151 283.692 295.906 283.774C295.334 283.937 294.844 284.019 294.436 284.019C293.538 284.183 292.966 284.183 292.966 284.183Z" fill="#263238"/>
<path d="M293.048 284.427C293.13 284.427 293.456 284.019 293.701 283.12C293.783 282.711 293.865 282.139 293.865 281.485C293.865 281.158 293.783 280.831 293.701 280.504C293.62 280.177 293.456 279.769 292.966 279.605C292.721 279.524 292.395 279.687 292.313 279.85C292.15 280.014 292.15 280.177 292.068 280.341C291.905 280.668 291.905 280.995 291.823 281.322C291.823 281.975 291.905 282.548 292.15 282.956C292.558 283.855 293.13 284.1 293.13 284.1C293.211 284.019 292.721 283.692 292.476 282.875C292.313 282.466 292.232 281.975 292.313 281.403C292.313 281.158 292.395 280.831 292.476 280.586C292.558 280.259 292.721 280.096 292.885 280.096C293.048 280.096 293.211 280.423 293.293 280.668C293.375 280.995 293.456 281.24 293.456 281.485C293.538 282.057 293.538 282.548 293.456 282.956C293.293 283.937 293.048 284.427 293.048 284.427Z" fill="#263238"/>
<path d="M392.177 276.173L385.89 268.081L385.563 267.673L374.948 275.601L384.746 286.389L384.42 297.341C378.949 298.731 378.132 301.51 378.132 301.51H389.482L399.771 281.649L392.177 276.173Z" fill="url(#paint8_linear_107_377)"/>
<path opacity="0.6" d="M401.921 281.485L391.632 301.346L380.201 301.428L381.507 299.712L390.734 299.139L400.288 280.341L401.921 281.485Z" fill="white"/>
<path d="M386.57 292.274C386.652 292.356 387.305 292.029 388.203 292.029C389.101 292.029 389.754 292.437 389.836 292.274C389.918 292.192 389.264 291.538 388.203 291.538C387.141 291.457 386.488 292.192 386.57 292.274Z" fill="#263238"/>
<path d="M386.733 289.495C386.815 289.577 387.386 288.923 388.285 288.759C389.183 288.596 389.918 289.005 389.999 288.841C389.999 288.76 389.918 288.596 389.591 288.433C389.264 288.269 388.775 288.106 388.203 288.269C387.631 288.351 387.223 288.678 386.978 289.005C386.733 289.25 386.733 289.495 386.733 289.495Z" fill="#263238"/>
<path d="M386.733 286.062C386.896 286.144 387.223 285.49 388.039 285.163C388.856 284.918 389.509 285.163 389.591 285C389.591 284.918 389.509 284.755 389.183 284.673C388.856 284.591 388.366 284.51 387.876 284.673C387.386 284.836 387.06 285.163 386.896 285.49C386.651 285.817 386.651 286.062 386.733 286.062Z" fill="#263238"/>
<path d="M383.63 283.365C383.794 283.447 384.12 282.793 384.773 282.303C385.427 281.812 386.161 281.812 386.161 281.649C386.161 281.485 385.345 281.322 384.447 281.894C383.712 282.466 383.549 283.365 383.63 283.365Z" fill="#263238"/>
<path d="M382.16 280.995C382.242 280.995 382.569 280.586 383.14 279.769C383.467 279.279 383.793 278.87 384.12 278.38C384.283 278.134 384.528 277.889 384.61 277.481C384.692 277.235 384.692 276.99 384.528 276.827C384.447 276.582 384.12 276.418 383.875 276.5C383.385 276.582 383.14 276.827 382.814 277.072C382.569 277.317 382.324 277.562 382.16 277.889C381.834 278.461 381.589 279.033 381.589 279.524C381.507 280.505 381.834 281.077 381.834 281.077C381.915 281.077 381.752 280.505 381.915 279.606C381.997 279.197 382.16 278.625 382.569 278.134C382.732 277.889 382.977 277.644 383.222 277.481C383.467 277.317 383.793 277.072 384.038 277.072C384.12 277.072 384.202 277.072 384.283 277.154C384.365 277.235 384.365 277.399 384.283 277.481C384.202 277.726 384.038 277.971 383.875 278.298C383.548 278.788 383.304 279.279 382.977 279.687C382.405 280.423 382.079 280.995 382.16 280.995Z" fill="#263238"/>
<path d="M379.684 281.322C379.765 281.322 379.684 280.75 379.112 280.014C378.541 279.36 377.234 278.706 375.764 279.442C375.683 279.524 375.601 279.687 375.601 279.851C375.601 280.014 375.683 280.096 375.764 280.177C375.928 280.341 376.009 280.423 376.173 280.504C376.418 280.668 376.744 280.831 376.989 280.995C377.561 281.24 378.051 281.403 378.459 281.403C379.357 281.485 379.847 281.322 379.847 281.24C379.847 281.158 379.276 281.24 378.541 280.995C378.132 280.913 377.642 280.75 377.153 280.504C376.908 280.341 376.663 280.259 376.418 280.096C376.336 280.014 376.173 279.932 376.091 279.851C376.009 279.769 376.009 279.769 376.091 279.769C376.091 279.687 376.254 279.687 376.418 279.687C376.581 279.687 376.663 279.605 376.826 279.605C377.071 279.605 377.397 279.605 377.642 279.687C378.132 279.769 378.541 280.014 378.867 280.341C379.439 280.831 379.602 281.403 379.684 281.322Z" fill="#263238"/>
<path opacity="0.6" d="M394.164 282.548C394.93 282.548 395.552 281.926 395.552 281.159C395.552 280.391 394.93 279.769 394.164 279.769C393.397 279.769 392.776 280.391 392.776 281.159C392.776 281.926 393.397 282.548 394.164 282.548Z" fill="white"/>
<path opacity="0.3" d="M376.009 276.582L378.132 279.033L387.359 269.961L386.053 268.245L376.009 276.582Z" fill="black"/>
<path d="M320.484 130.199C320.484 130.199 309.869 166.243 300.397 207.028C294.681 231.711 289.21 277.726 289.21 277.726L314.442 283.284L325.22 224.191L336.733 189.21C340.653 178.176 346.369 170.085 353.309 164.118C360.822 153.493 364.741 141.315 363.19 128.401L320.484 130.199Z" fill="url(#paint9_linear_107_377)"/>
<path d="M318.443 136.002L327.833 213.648C328.731 221.167 330.038 228.36 335.1 233.917L373.233 279.197L392.095 262.278L351.676 206.946L358.699 128.973L319.178 135.757" fill="url(#paint10_linear_107_377)"/>
<path d="M273.151 107.805L266.537 111.237L255.024 116.877C254.289 117.122 253.636 117.694 253.227 118.43L248.981 125.867H257.065L259.188 122.271C259.188 122.271 263.679 124.069 266.945 120.146L278.622 116.06L273.151 107.805Z" fill="#FFBE9D"/>
<path d="M348.002 16.7552C348.9 14.7936 351.186 13.5676 353.309 13.8128C355.432 14.058 357.392 15.8561 357.8 17.9812C358.045 18.9619 357.882 20.1062 358.372 21.0053C358.943 22.313 360.495 23.0486 361.883 22.7216C361.475 23.4572 360.822 24.1111 360.087 24.5197C360.413 24.1928 361.066 24.5197 361.23 24.9284C361.311 25.4188 361.067 25.9092 360.658 26.1544C360.25 26.3996 359.76 26.4813 359.27 26.563C356.902 26.89 354.371 26.9717 352.411 25.7457C350.288 24.3563 349.308 21.7408 348.492 19.3706" fill="#263238"/>
<path d="M325.71 9.97144C323.26 10.2166 321.219 12.0147 319.831 13.9763C318.443 16.0196 317.463 18.3081 315.911 20.2697C314.768 21.7409 313.38 23.0486 312.808 24.8467C311.91 27.6256 313.462 30.8948 312.237 33.5103C311.583 34.9815 310.114 36.044 309.379 37.5151C308.481 39.395 308.889 41.6017 309.46 43.5633C309.869 44.9528 310.359 46.4239 311.502 47.323C312.4 48.0586 313.543 48.3038 314.605 48.4672C322.934 50.0202 331.671 48.9576 339.346 45.3614" fill="#263238"/>
<path d="M344.817 23.9475C344.654 16.8369 338.693 11.1973 331.507 11.5243C324.73 11.8512 319.504 17.7359 319.504 24.5197C319.504 30.4861 319.586 36.4526 319.912 38.5776C320.974 45.0344 325.057 46.996 326.69 47.4864C327.098 47.5681 328.078 47.6498 328.486 47.6498C328.486 47.6498 328.568 47.6498 328.568 47.7316L328.241 55.3327C328.323 60.2366 331.671 64.2415 336.57 64.2415C341.551 64.2415 344.817 59.9914 344.817 55.0057V23.9475Z" fill="#FFBE9D"/>
<path d="M328.486 47.7315C328.486 47.7315 332.814 48.0584 338.203 44.8708C338.203 44.8708 336.488 50.5921 328.405 49.7748L328.486 47.7315Z" fill="#EB996E"/>
<path d="M317.953 23.1303C319.586 25.0101 323.668 23.1303 325.955 21.3322C328.894 22.7216 332.569 21.4139 334.039 18.3898C335.753 20.0244 338.611 18.9619 339.428 16.7552C340.244 14.5484 339.183 11.6878 337.386 10.0531C335.672 8.4185 333.304 7.84637 331.099 7.76464C325.873 7.60118 320.647 10.3801 318.198 15.3657C317.218 17.736 316.809 20.6783 317.953 23.1303Z" fill="#263238"/>
<path d="M337.06 9.97145C341.714 8.3368 347.022 12.4234 348.002 15.7744C349.716 21.5774 348.981 22.4765 350.533 25.1736C351.513 26.89 354.207 28.4429 355.432 30.241C356.739 32.1208 357.229 35.6353 356.902 37.9238C356.575 39.8854 354.861 45.3614 354.861 45.3614C354.861 45.3614 347.675 46.1788 343.919 45.7701C342.939 45.6884 341.959 45.4432 341.143 44.9528C340.326 44.4624 341.469 42.0104 341.224 41.1114C340.489 38.4959 338.285 37.27 338.448 34.6545C338.693 31.0583 341.387 30.4862 340.816 26.9717C340.489 25.0919 337.305 22.8034 336.815 21.0053C336.243 19.1254 334.202 12.8321 337.06 9.97145Z" fill="#263238"/>
<path d="M348.981 21.087C348.818 21.087 348.9 19.861 348.737 18.4716C348.492 17.0004 348.083 15.9379 348.165 15.8562C348.247 15.7744 348.9 16.9187 349.145 18.3899C349.308 19.861 349.063 21.087 348.981 21.087Z" fill="url(#paint11_linear_107_377)"/>
<path d="M348.492 19.0436C348.492 19.0436 348.328 19.1253 348.002 19.207C347.675 19.2888 347.185 19.3705 346.532 19.3705C345.879 19.3705 345.144 19.207 344.409 18.8801C343.674 18.5532 342.939 17.9811 342.286 17.2455C341.633 16.5099 341.143 15.856 340.489 15.4474C339.836 14.957 339.183 14.7118 338.693 14.5483C337.55 14.2214 336.815 14.3031 336.815 14.2214C336.815 14.2214 336.978 14.1396 337.305 14.1396C337.631 14.1396 338.121 14.1396 338.775 14.3031C339.346 14.4666 340.081 14.7118 340.734 15.2022C341.388 15.6926 342.041 16.3464 342.612 17.082C343.756 18.4714 345.389 19.1253 346.532 19.207C347.757 19.207 348.492 18.9618 348.492 19.0436Z" fill="#455A64"/>
<path d="M361.23 24.6831C361.23 24.6831 361.066 24.8465 360.658 25.01C360.25 25.0917 359.596 25.0917 358.862 24.7648C358.127 24.4379 357.473 23.784 356.984 22.885C356.494 21.9859 356.167 20.9234 355.677 19.9426C355.187 18.9618 354.616 18.0628 353.717 17.6541C352.901 17.2455 352.003 17.2455 351.349 17.4907C349.961 17.8993 349.471 18.7984 349.39 18.7166C349.39 18.7166 349.471 18.4714 349.716 18.1445C349.961 17.8176 350.451 17.4089 351.186 17.1637C351.921 16.9185 352.901 16.8368 353.881 17.3272C354.861 17.7358 355.514 18.7166 356.004 19.7791C356.494 20.8417 356.82 21.8224 357.229 22.7215C357.637 23.5388 358.208 24.1927 358.862 24.5196C359.515 24.8465 360.086 24.9283 360.495 24.8465C361.066 24.7648 361.23 24.6831 361.23 24.6831Z" fill="#455A64"/>
<path d="M348.492 18.3082C348.492 18.3082 348.328 18.3899 347.92 18.3899C347.512 18.3899 346.94 18.1447 346.45 17.7361C345.879 17.3274 345.389 16.6735 344.899 15.938C344.409 15.2024 344 14.3033 343.347 13.5677C341.959 12.0966 340.081 11.6879 338.775 11.7696C337.468 11.8514 336.733 12.26 336.733 12.1783C336.733 12.1783 336.896 12.0148 337.223 11.8514C337.55 11.6879 338.121 11.5244 338.775 11.4427C340.081 11.2792 342.204 11.6879 343.674 13.2408C344.409 14.0581 344.817 14.9572 345.225 15.6928C345.634 16.4284 346.123 17.0822 346.613 17.4909C347.593 18.3899 348.573 18.2265 348.492 18.3082Z" fill="#455A64"/>
<path d="M350.615 46.097C350.615 46.097 350.941 45.6884 351.431 44.7893C351.921 43.972 352.574 42.746 353.064 41.1114C353.554 39.4767 353.799 37.4334 353.228 35.2267C352.738 33.1016 351.35 30.8131 349.145 29.5054C348.002 28.8516 346.859 28.4429 345.715 27.7073C344.654 27.0535 343.756 26.0727 343.266 25.0102C342.776 23.9476 342.531 22.8851 342.204 21.9043C341.959 20.9236 341.633 20.0245 341.306 19.2889C340.571 17.736 339.346 16.9187 338.448 16.6735C337.55 16.4283 336.978 16.6735 336.978 16.5918C336.978 16.5918 337.06 16.51 337.387 16.51C337.632 16.4283 338.04 16.4283 338.53 16.51C339.51 16.6735 340.816 17.4908 341.633 19.1255C342.041 19.861 342.368 20.8418 342.612 21.7409C342.939 22.7217 343.184 23.7842 343.674 24.765C344.164 25.7458 344.899 26.6448 345.96 27.2987C347.022 27.9525 348.165 28.3612 349.39 29.015C351.758 30.4045 353.064 32.7747 353.636 35.0632C354.208 37.3517 353.881 39.4767 353.309 41.1114C352.819 42.746 352.084 43.972 351.513 44.7893C351.268 45.198 351.023 45.5249 350.86 45.6884C350.696 46.0153 350.615 46.1788 350.615 46.097Z" fill="#455A64"/>
<path d="M315.258 48.1402C315.258 48.1402 315.176 48.0584 315.013 47.895C314.85 47.7315 314.686 47.4863 314.523 47.1594C314.115 46.5055 313.625 45.443 313.462 44.0536C313.217 42.6641 313.298 40.866 314.115 39.1496C314.523 38.2506 315.095 37.515 315.585 36.6159C316.075 35.7986 316.565 34.8178 316.646 33.837C316.809 31.7937 315.83 29.8322 315.666 27.9523C315.503 26.0725 315.748 24.3561 316.32 23.0484C316.891 21.7407 317.626 20.8416 318.198 20.2695C318.524 20.0243 318.688 19.7791 318.932 19.6974C319.096 19.6157 319.177 19.5339 319.177 19.5339C319.177 19.5339 318.851 19.8609 318.361 20.433C317.871 21.0051 317.136 21.9042 316.646 23.2119C316.156 24.5196 315.911 26.1542 316.156 27.9523C316.238 28.8514 316.483 29.7504 316.728 30.7312C316.973 31.712 317.218 32.7745 317.136 33.837C317.054 34.9813 316.564 35.9621 315.993 36.7794C315.421 37.6785 314.85 38.414 314.523 39.2314C313.788 40.866 313.625 42.5824 313.788 43.8901C313.952 45.2795 314.36 46.342 314.768 46.9959C315.013 47.7315 315.34 48.0584 315.258 48.1402Z" fill="#455A64"/>
<path d="M330.283 8.58203C330.283 8.66376 329.058 8.58203 327.18 9.23589C325.383 9.80801 322.934 11.1975 321.3 13.6494C319.749 16.1014 319.259 18.8803 319.177 20.7601C319.096 22.7217 319.586 23.8659 319.504 23.8659C319.504 23.8659 319.341 23.6207 319.177 23.0486C319.014 22.4765 318.932 21.7409 318.851 20.7601C318.851 18.7985 319.259 16.0196 320.892 13.4042C322.607 10.8705 325.22 9.48108 327.098 8.99069C328.078 8.7455 328.813 8.66376 329.384 8.58203C329.956 8.58203 330.283 8.58203 330.283 8.58203Z" fill="#455A64"/>
<path d="M324.73 19.1254C324.73 19.1254 324.648 18.8802 324.485 18.3898C324.403 17.8994 324.322 17.2456 324.403 16.3465C324.567 14.6301 325.383 12.2599 327.425 10.5435C329.548 8.90888 332.079 8.58196 333.712 8.82715C334.529 8.90888 335.264 9.15408 335.672 9.31754C336.08 9.48101 336.325 9.64447 336.325 9.64447C336.325 9.7262 335.345 9.23581 333.712 9.07235C332.079 8.90888 329.629 9.23581 327.67 10.8705C325.71 12.5051 324.812 14.7936 324.648 16.3465C324.567 18.0629 324.812 19.1254 324.73 19.1254Z" fill="#455A64"/>
<path d="M361.965 135.267L353.146 101.103L356.167 87.7803L360.577 62.6886C360.577 62.6886 356.494 57.1308 346.042 56.6404L345.307 51.573L327.343 52.2269L327.016 57.0491C323.832 57.8664 317.953 60.2366 314.442 66.8569L301.785 90.7227L267 108.213L271.573 119.002C271.573 119.002 306.521 105.761 309.461 104.454C311.42 103.555 313.543 99.9584 315.421 96.0352C316.81 102.737 318.279 108.05 318.279 108.05L317.953 134.286L361.965 135.267Z" fill="url(#paint12_linear_107_377)"/>
<path d="M346.287 65.9577C346.287 65.9577 345.797 66.1212 345.062 66.3664C344.246 66.6116 343.102 66.9385 341.633 67.4289C340.163 67.9193 338.53 68.4914 336.488 68.9818C335.509 69.227 334.447 69.3905 333.304 69.3087C332.161 69.227 331.099 68.7366 330.038 68.1645C328.976 67.5924 328.078 67.0202 327.098 66.5298C326.118 66.0394 325.138 65.7125 324.24 65.4673C322.28 64.9769 320.484 64.9769 319.014 65.1404C315.993 65.549 314.36 66.6116 314.36 66.4481C314.36 66.4481 314.442 66.3664 314.605 66.2846C314.768 66.2029 315.095 66.0394 315.503 65.876C316.32 65.549 317.463 65.1404 318.933 64.8952C320.484 64.65 322.28 64.65 324.322 65.1404C325.302 65.3856 326.281 65.7125 327.343 66.2029C328.323 66.6933 329.303 67.3472 330.283 67.8376C331.262 68.3279 332.324 68.8183 333.385 68.9001C334.447 68.9818 335.508 68.8183 336.407 68.5731C338.366 68.1645 340.081 67.5924 341.469 67.102C342.939 66.6116 344.082 66.2846 344.899 66.1212C345.307 66.0394 345.634 65.9577 345.879 65.9577C346.205 65.9577 346.287 65.9577 346.287 65.9577Z" fill="#FAFAFA"/>
<path d="M351.676 83.2852C351.676 83.3669 351.023 83.1217 349.717 83.1217C348.492 83.04 346.614 83.2034 344.491 83.8573C342.368 84.5111 339.918 85.5737 337.223 86.8814C334.529 88.1074 331.508 89.5785 328.078 90.0689C327.18 90.2324 326.363 90.2324 325.465 90.2324C324.648 90.1507 323.75 90.0689 323.015 89.8237C321.382 89.4151 319.994 88.6795 318.688 87.8622C316.156 86.2275 314.033 84.5929 311.91 83.939C309.787 83.2034 307.909 83.2852 306.766 83.6938C305.623 84.1025 305.051 84.6746 305.051 84.5929C305.051 84.5929 305.133 84.4294 305.46 84.266C305.705 84.1025 306.113 83.7756 306.766 83.5304C307.909 83.04 309.869 82.8765 312.074 83.6121C314.278 84.266 316.483 85.9823 319.014 87.5352C320.239 88.2708 321.627 89.0064 323.179 89.4151C323.914 89.6603 324.73 89.742 325.547 89.742C326.363 89.742 327.18 89.742 328.078 89.5785C331.426 89.0881 334.447 87.6987 337.142 86.4727C339.836 85.165 342.286 84.1025 344.491 83.5304C346.695 82.9582 348.573 82.8765 349.798 82.9582C350.451 83.04 350.941 83.1217 351.268 83.2034C351.513 83.2034 351.676 83.2852 351.676 83.2852Z" fill="#FAFAFA"/>
<path d="M319.014 71.3524C319.014 71.3524 319.014 71.5158 318.933 71.6793C318.851 71.9245 318.769 72.2514 318.606 72.6601C318.361 73.4774 317.871 74.7034 317.3 76.1745C316.728 77.6457 315.993 79.4438 315.34 81.4054C315.013 82.3862 314.768 83.4487 314.523 84.5929C314.278 85.7372 314.197 86.8814 314.278 88.1074C314.442 90.4777 314.85 92.7662 315.258 94.8912C315.666 96.9345 316.156 98.8143 316.483 100.367C316.891 101.92 317.136 103.146 317.381 104.045C317.463 104.454 317.545 104.781 317.626 105.026C317.708 105.271 317.708 105.353 317.708 105.353C317.708 105.353 317.545 104.863 317.3 104.045C317.055 103.146 316.728 101.92 316.32 100.367C315.911 98.8143 315.421 97.0162 315.013 94.8912C314.605 92.8479 314.115 90.5594 313.952 88.1074C313.87 86.8814 314.033 85.6555 314.278 84.5112C314.523 83.367 314.768 82.3045 315.176 81.3237C315.83 79.2804 316.565 77.564 317.218 76.0928C317.871 74.6216 318.361 73.4774 318.688 72.5783C318.851 71.761 319.014 71.2706 319.014 71.3524Z" fill="#263238"/>
<path d="M299.09 108.458C299.09 108.458 298.845 108.54 298.437 108.377C298.029 108.295 297.539 107.968 296.967 107.559C296.396 107.069 295.824 106.497 295.253 105.68C294.681 104.862 294.436 103.8 294.191 102.737C293.946 101.675 293.701 100.694 293.375 99.7948C293.048 98.9775 292.558 98.2419 291.986 97.8333C290.925 96.8525 289.945 96.9342 290.027 96.8525C290.027 96.8525 290.272 96.7708 290.68 96.8525C291.088 96.9342 291.66 97.0977 292.231 97.5881C292.803 98.0785 293.375 98.7323 293.783 99.6314C294.191 100.53 294.436 101.511 294.681 102.574C294.926 103.636 295.171 104.617 295.661 105.353C296.151 106.17 296.722 106.742 297.212 107.232C297.702 107.723 298.192 107.968 298.601 108.132C298.845 108.377 299.09 108.458 299.09 108.458Z" fill="#FAFAFA"/>
<path d="M281.235 116.141C281.153 116.141 281.235 115.406 281.072 114.262C280.908 113.117 280.582 111.564 279.929 109.93C279.275 108.295 278.377 106.906 277.724 106.007C276.989 105.108 276.499 104.617 276.499 104.535C276.499 104.535 277.152 104.944 277.887 105.761C278.704 106.66 279.602 108.05 280.255 109.685C280.908 111.319 281.317 112.954 281.317 114.098C281.398 115.406 281.235 116.141 281.235 116.141Z" fill="#FAFAFA"/>
<path d="M353.228 100.776C353.228 100.857 352.738 100.776 351.758 100.857C350.86 100.939 349.472 101.102 347.92 101.593C346.287 102.002 344.491 102.737 342.368 103.473C340.326 104.208 337.958 105.026 335.427 105.434C330.364 106.252 325.628 105.434 322.444 104.29C320.892 103.718 319.667 103.146 318.769 102.737C318.361 102.492 318.034 102.328 317.871 102.165C317.626 102.002 317.544 102.002 317.544 101.92C317.544 101.92 318.034 102.083 318.851 102.492C319.667 102.901 320.892 103.391 322.525 103.881C325.71 104.862 330.283 105.679 335.345 104.862C337.877 104.453 340.163 103.718 342.204 102.982C344.246 102.247 346.205 101.593 347.838 101.184C349.472 100.776 350.86 100.612 351.758 100.612C352.248 100.612 352.574 100.612 352.819 100.612C353.064 100.776 353.228 100.776 353.228 100.776Z" fill="#FAFAFA"/>
<g opacity="0.3">
<path opacity="0.3" d="M328.323 56.9675C332.977 59.6647 339.101 59.6647 343.756 57.0493C338.612 57.2945 333.386 57.2945 328.16 57.131" fill="black"/>
</g>
<path d="M345.96 56.477C345.96 56.477 345.715 56.5587 345.225 56.7222C344.736 56.8857 344.082 57.0491 343.184 57.1309C341.469 57.3761 339.101 57.4578 336.488 57.3761C333.875 57.2943 331.507 57.1309 329.793 57.1309C328.078 57.1309 327.016 57.2126 327.016 57.1309C327.016 57.1309 327.261 57.0491 327.751 56.9674C328.241 56.8857 328.894 56.8857 329.793 56.8039C331.507 56.7222 333.875 56.8039 336.488 56.9674C339.101 57.0491 341.469 57.0491 343.184 56.8857C344.899 56.7222 345.879 56.3953 345.96 56.477Z" fill="#263238"/>
<path d="M334.937 94.1558C335.427 95.1365 363.679 117.695 371.763 124.151C372.988 125.132 373.151 126.849 372.171 127.993L353.309 151.45C352.329 152.594 350.696 152.839 349.471 151.859L313.38 123.252C312.155 122.272 311.992 120.473 313.053 119.329L334.937 94.1558Z" fill="url(#paint13_linear_107_377)"/>
<path d="M334.529 90.1509C335.019 91.1317 365.232 115.243 372.091 120.719C372.826 121.291 372.989 122.435 372.336 123.171L352.248 148.099C351.677 148.834 350.534 148.998 349.799 148.344L312.156 118.512C311.339 117.858 311.258 116.714 311.911 115.978L334.529 90.1509Z" fill="#E8505B"/>
<path d="M334.529 90.1509C335.019 91.1317 365.884 115.733 372.335 120.882C372.988 121.373 373.07 122.353 372.58 123.007L352.166 148.344C351.676 148.998 350.696 149.08 350.043 148.589L311.992 118.43C311.339 117.858 311.257 116.877 311.829 116.223L334.529 90.1509Z" fill="url(#paint14_linear_107_377)"/>
<path d="M337.632 90.6412C347.185 98.6509 373.07 119.247 373.07 119.247L352.983 144.176C351.758 145.647 349.553 145.892 348.083 144.748L313.217 117.041C311.665 115.815 311.42 113.444 312.727 111.973L330.936 91.1316C332.651 89.17 335.59 88.9248 337.632 90.6412Z" fill="url(#paint15_linear_107_377)"/>
<path d="M334.774 144.911L343.429 137.719L339.265 127.666L333.467 132.978C333.059 133.06 331.671 133.469 329.303 133.714C328.568 133.796 327.833 133.714 327.18 133.55C326.363 133.305 325.22 132.978 324.648 132.651C323.995 132.161 323.097 132.815 323.342 133.55C323.587 134.286 325.465 135.594 328.159 136.002C330.527 136.411 327.833 138.127 326.281 139.027C326.036 139.19 325.873 139.517 326.036 139.844C326.69 141.56 329.793 147.445 334.774 144.911Z" fill="#FFBE9D"/>
<path d="M348.491 73.9677C347.838 64.9772 356.167 55.8232 361.066 63.4243C366.374 71.6792 378.132 91.2132 380.99 104.454C382.297 110.584 345.389 140.007 343.102 141.887C343.021 141.969 342.449 141.151 342.367 141.07L333.222 131.589C333.14 131.507 335.345 129.3 335.427 129.219L361.475 103.718C361.556 103.636 361.556 103.636 361.475 103.555C360.576 102.002 349.145 80.9967 348.491 74.2129C348.491 74.0495 348.491 73.9677 348.491 73.9677Z" fill="url(#paint16_linear_107_377)"/>
<path d="M369.069 103.473C368.987 103.637 367.272 103.064 365.067 103.064C362.863 102.983 361.148 103.391 361.066 103.228C360.985 103.064 362.781 102.329 365.067 102.411C367.354 102.492 369.069 103.31 369.069 103.473Z" fill="#263238"/>
<path d="M367.435 106.334C367.272 106.415 366.211 105.271 364.578 104.454C362.863 103.555 361.311 103.391 361.393 103.228C361.393 103.064 363.108 102.983 364.904 103.963C366.619 104.862 367.517 106.252 367.435 106.334Z" fill="#263238"/>
<path d="M361.475 103.637C361.475 103.637 361.393 103.473 361.23 103.146C361.066 102.819 360.821 102.329 360.495 101.757C359.842 100.449 358.943 98.7326 357.882 96.5258C355.677 92.0306 352.656 85.9824 349.308 79.2804C347.512 75.9294 346.369 72.4149 346.205 69.1456C345.96 65.8763 346.94 62.7705 348.655 60.9724C349.471 60.0733 350.533 59.5012 351.513 59.1743C352.493 58.8474 353.309 58.7656 354.044 58.8474C354.779 58.9291 355.269 59.0925 355.596 59.256C355.759 59.3377 355.922 59.4195 356.004 59.4195C356.085 59.5012 356.085 59.5012 356.085 59.5012C356.085 59.5829 355.432 59.0925 354.044 59.0108C353.391 58.9291 352.493 59.0925 351.594 59.3377C350.696 59.6647 349.716 60.2368 348.9 61.1359C347.267 62.934 346.369 65.8763 346.613 69.1456C346.777 72.4149 347.92 75.8476 349.635 79.1169C352.901 85.8189 355.922 91.9488 358.127 96.4441C359.188 98.6509 360.005 100.449 360.658 101.675C360.903 102.247 361.148 102.737 361.311 103.146C361.393 103.473 361.475 103.637 361.475 103.637Z" fill="#263238"/>
<g opacity="0.3">
<path opacity="0.3" d="M346.613 68.9004C345.634 76.9101 344.98 84.9199 345.715 92.9296C346.123 97.0979 350.533 102.411 354.044 104.781L353.146 101.185C353.636 98.8143 355.35 91.4584 355.35 91.4584C355.35 91.4584 352.166 85.1651 350.859 82.7948C348.41 78.2996 346.94 73.9678 346.613 68.9004Z" fill="black"/>
</g>
<path d="M378.377 96.4441C378.377 96.4441 378.214 96.6893 377.806 96.9345C377.642 97.0979 377.397 97.2614 377.071 97.5066C376.744 97.6701 376.418 97.9153 376.091 98.1605C375.356 98.6509 374.376 99.0595 373.315 99.5499C372.253 99.9586 371.028 100.367 369.64 100.694C368.334 100.939 367.027 101.103 365.884 101.185C364.741 101.185 363.679 101.185 362.781 101.021C362.373 100.939 361.965 100.858 361.638 100.776C361.311 100.694 360.985 100.612 360.74 100.531C360.25 100.367 360.005 100.285 360.005 100.285C360.005 100.204 361.066 100.531 362.781 100.694C363.679 100.776 364.659 100.776 365.802 100.776C366.946 100.694 368.17 100.531 369.477 100.285C370.783 100.04 372.008 99.6316 373.07 99.223C374.131 98.8143 375.111 98.4057 375.846 97.997C377.479 97.0979 378.296 96.4441 378.377 96.4441Z" fill="#FAFAFA"/>
<path d="M363.189 123.906C363.108 123.906 362.863 123.007 362.373 121.618C361.883 120.228 361.23 118.185 360.25 116.142C359.76 115.161 359.188 114.18 358.535 113.444C357.963 112.627 357.31 112.055 356.739 111.565C355.595 110.666 354.697 110.339 354.697 110.257C354.697 110.257 354.942 110.257 355.351 110.502C355.759 110.665 356.33 110.911 356.902 111.401C357.555 111.81 358.208 112.464 358.862 113.281C359.515 114.098 360.087 114.997 360.658 116.06C361.72 118.103 362.291 120.146 362.699 121.618C363.108 122.925 363.271 123.824 363.189 123.906Z" fill="#FAFAFA"/>
<path d="M353.554 132.897C353.554 132.978 352.656 132.733 351.431 132.079C350.125 131.507 348.492 130.445 346.859 129.055C345.225 127.666 344.001 126.113 343.266 124.887C342.531 123.661 342.122 122.925 342.204 122.844C342.286 122.844 342.694 123.579 343.511 124.723C344.327 125.868 345.552 127.339 347.185 128.728C348.818 130.118 350.37 131.18 351.594 131.834C352.738 132.488 353.554 132.815 353.554 132.897Z" fill="#FAFAFA"/>
<path d="M362.699 66.0398C362.699 66.0398 362.454 66.2032 362.046 66.285C361.638 66.4484 360.985 66.6119 360.168 66.6936C358.617 66.9388 356.412 66.7753 354.044 66.9388C352.819 67.0205 351.758 67.184 350.778 67.5927C349.798 67.9196 349.063 68.41 348.41 68.9004C347.267 69.8812 346.94 70.9437 346.858 70.862C346.858 70.862 346.858 70.6168 347.022 70.2081C347.185 69.7994 347.593 69.2273 348.165 68.6552C348.736 68.0831 349.553 67.5927 350.533 67.184C351.513 66.7753 352.656 66.6119 353.881 66.5301C356.33 66.3667 358.453 66.6119 360.005 66.4484C361.801 66.285 362.699 65.958 362.699 66.0398Z" fill="#FAFAFA"/>
<path d="M371.11 81.2419C371.11 81.2419 371.028 81.4871 370.783 81.8958C370.457 82.3045 369.967 82.7948 369.15 83.1218C368.334 83.4487 367.272 83.6122 366.211 83.6939C365.068 83.7756 363.843 83.9391 362.618 84.1843C360.087 84.6747 357.882 85.492 356.331 86.1459C354.779 86.7997 353.881 87.3718 353.881 87.2901C353.881 87.2901 354.044 87.1266 354.452 86.8815C354.861 86.6363 355.432 86.3093 356.249 85.9007C357.8 85.1651 360.005 84.266 362.536 83.7756C365.068 83.2035 367.517 83.4487 369.069 82.8766C370.62 82.2227 371.11 81.2419 371.11 81.2419Z" fill="#FAFAFA"/>
<path d="M171.409 0C174.757 0.163464 177.859 1.96157 179.983 4.49526C182.187 7.02896 183.494 10.2165 184.31 13.4041C185.943 19.6157 184.8 26.9716 183.004 33.1832C176.308 30.7313 172.225 23.4571 170.347 19.6974C167.489 13.731 165.856 1.06252 171.409 0Z" fill="url(#paint17_linear_107_377)"/>
<path d="M192.639 40.7842C190.516 37.6784 190.516 33.4283 192.231 30.159C193.946 26.8898 197.212 24.5195 200.723 23.457C202.356 22.9666 204.316 22.8031 205.704 23.7022C207.01 24.6013 207.582 26.3994 207.419 27.9523C207.255 29.5869 206.439 30.9764 205.459 32.2841C202.193 36.7793 198.192 40.3755 192.639 40.7842Z" fill="#E8505B"/>
<path d="M192.639 40.7842C190.516 37.6784 190.516 33.4283 192.231 30.159C193.946 26.8898 197.212 24.5195 200.723 23.457C202.356 22.9666 204.316 22.8031 205.704 23.7022C207.01 24.6013 207.582 26.3994 207.419 27.9523C207.255 29.5869 206.439 30.9764 205.459 32.2841C202.193 36.7793 198.192 40.3755 192.639 40.7842Z" fill="url(#paint18_linear_107_377)"/>
<path d="M185.535 47.4047C181.452 40.7026 173.94 36.2891 166.101 35.8804C164.142 35.7987 161.692 36.1256 160.875 38.0055C160.059 39.8036 161.284 41.9286 162.672 43.3181C168.469 49.2845 178.023 51.2461 185.698 47.9768" fill="#E8505B"/>
<path d="M185.535 47.4047C181.452 40.7026 173.94 36.2891 166.101 35.8804C164.142 35.7987 161.692 36.1256 160.875 38.0055C160.059 39.8036 161.284 41.9286 162.672 43.3181C168.469 49.2845 178.023 51.2461 185.698 47.9768" fill="url(#paint19_linear_107_377)"/>
<path d="M192.721 62.1982C192.721 62.1982 192.558 61.7078 192.476 60.8905C192.313 60.0731 192.149 58.7654 191.904 57.2943C191.496 54.1884 191.006 49.9384 191.659 45.1162C192.313 40.3757 194.191 36.2891 196.15 33.9189C197.13 32.6929 198.028 31.7939 198.763 31.3035C199.09 31.0583 199.417 30.8131 199.58 30.7313C199.743 30.5679 199.907 30.5679 199.907 30.5679C199.988 30.6496 198.273 31.6304 196.395 34.1641C194.517 36.616 192.721 40.5392 192.068 45.2796C191.496 49.9384 191.904 54.2702 192.231 57.2943C192.394 58.7654 192.558 59.9914 192.639 60.9722C192.721 61.7078 192.721 62.1982 192.721 62.1982Z" fill="url(#paint20_linear_107_377)"/>
<path d="M173.532 9.48096C173.532 9.48096 173.613 9.64442 173.777 9.97135C173.94 10.38 174.185 10.8704 174.43 11.4425C175.002 12.7502 175.818 14.6301 176.798 17.0003C178.758 21.7408 181.452 28.2793 184.229 35.6352C187.005 42.9911 189.373 49.6931 191.006 54.5153C191.823 56.9673 192.476 58.9289 192.884 60.3183C193.047 60.9722 193.211 61.4626 193.374 61.8712C193.456 62.1981 193.537 62.4433 193.537 62.4433C193.537 62.4433 193.456 62.2799 193.292 61.8712C193.129 61.4626 192.966 60.9722 192.721 60.3183C192.231 58.9289 191.578 56.9673 190.679 54.5971C188.965 49.7749 186.597 43.0728 183.82 35.717C181.044 28.3611 178.431 21.8225 176.553 17.0003C175.573 14.6301 174.838 12.7502 174.267 11.3608C174.022 10.7069 173.777 10.2165 173.695 9.80789C173.532 9.72615 173.45 9.48096 173.532 9.48096Z" fill="url(#paint21_linear_107_377)"/>
<path d="M169.204 41.0295C169.204 41.0295 169.694 41.0295 170.511 41.1113C170.919 41.1113 171.409 41.193 171.98 41.3565C172.552 41.4382 173.205 41.6017 173.94 41.7651C174.267 41.8469 174.675 42.0103 175.083 42.0921C175.492 42.1738 175.9 42.3373 176.308 42.5007C177.125 42.7459 178.023 43.1546 178.921 43.5632C180.717 44.4623 182.514 45.6065 184.31 46.996C186.107 48.4672 187.576 50.0201 188.801 51.573C189.373 52.3903 189.944 53.1259 190.434 53.8615C190.679 54.2701 190.924 54.5971 191.088 54.924C191.251 55.2509 191.414 55.6596 191.659 55.9865C191.986 56.6404 192.231 57.2942 192.476 57.7846C192.721 58.3567 192.884 58.8471 192.966 59.1741C193.211 59.9914 193.292 60.4 193.292 60.4C193.211 60.4 192.721 58.6837 191.333 56.0682C191.169 55.7413 191.006 55.4144 190.761 55.0875C190.598 54.7605 190.353 54.4336 190.108 54.0249C189.699 53.2894 189.046 52.5538 188.475 51.7364C187.25 50.2653 185.78 48.6306 184.065 47.2412C182.351 45.8517 180.472 44.7075 178.758 43.8084C177.86 43.3998 177.043 42.9911 176.226 42.6642C175.818 42.5007 175.41 42.3373 175.083 42.2555C174.675 42.1738 174.348 42.0103 173.94 41.9286C171.082 41.2747 169.204 41.1113 169.204 41.0295Z" fill="url(#paint22_linear_107_377)"/>
<path d="M194.109 80.4244H189.944C184.392 80.4244 179.901 75.9291 179.901 70.3713V56.2317H204.071V70.3713C204.152 75.9291 199.661 80.4244 194.109 80.4244Z" fill="#E8505B"/>
<path d="M194.109 80.4244H189.944C184.392 80.4244 179.901 75.9291 179.901 70.3713V56.2317H204.071V70.3713C204.152 75.9291 199.661 80.4244 194.109 80.4244Z" fill="url(#paint23_linear_107_377)"/>
<path d="M196.314 56.2317C196.314 56.2317 196.232 56.4769 196.069 56.9673C195.824 57.3759 195.497 58.0298 195.007 58.7654C194.027 60.2366 192.231 62.0347 189.781 63.2606C187.332 64.4866 184.882 64.8953 183.085 64.8136C182.187 64.8136 181.452 64.7318 180.962 64.6501C180.473 64.5684 180.228 64.4866 180.228 64.4866C180.228 64.4049 181.289 64.6501 183.085 64.5684C184.8 64.4866 187.25 64.078 189.618 62.9337C191.986 61.7077 193.701 59.9914 194.762 58.6019C195.742 57.2125 196.232 56.2317 196.314 56.2317Z" fill="#FAFAFA"/>
<path d="M203.907 72.5782C203.907 72.5782 203.581 72.5782 203.091 72.4147C202.601 72.2512 201.866 72.006 201.131 71.5156C199.58 70.6166 197.538 68.7367 196.64 66.0396C195.742 63.3424 196.069 60.6453 196.803 58.9289C197.13 58.0298 197.538 57.376 197.783 56.9673C198.11 56.5587 198.273 56.3135 198.273 56.3135C198.355 56.3952 197.62 57.2943 197.048 58.9289C196.477 60.6453 196.15 63.179 197.048 65.7944C197.947 68.4098 199.825 70.2079 201.294 71.1887C202.764 72.2512 203.907 72.4964 203.907 72.5782Z" fill="#FAFAFA"/>
<path d="M197.702 79.7704C197.62 79.7704 197.865 78.3809 197.212 76.1742C196.885 75.1117 196.314 73.8857 195.415 72.7414C194.517 71.5972 193.292 70.4529 191.823 69.6356C188.883 67.9192 185.617 67.7558 183.412 68.001C181.207 68.2462 179.901 68.9 179.901 68.8183C179.901 68.8183 180.228 68.6548 180.799 68.4096C181.371 68.1644 182.269 67.9192 183.412 67.7558C185.617 67.4288 188.965 67.5106 192.067 69.3087C193.619 70.2077 194.844 71.352 195.742 72.578C196.64 73.8039 197.212 75.0299 197.538 76.1742C197.865 77.3184 197.865 78.2175 197.865 78.8713C197.783 79.3617 197.702 79.7704 197.702 79.7704Z" fill="#FAFAFA"/>
<path d="M201.213 80.4243H125.029V301.673H201.213V80.4243Z" fill="url(#paint24_linear_107_377)"/>
<path d="M242.04 80.4243H158.671V301.673H242.04V80.4243Z" fill="url(#paint25_linear_107_377)"/>
<path d="M238.284 143.195H163.978V188.883H238.284V143.195Z" fill="#455A64"/>
<path d="M212.726 254.023H190.761C189.781 254.023 188.965 253.206 188.965 252.225V251.081H214.441V252.225C214.523 253.206 213.706 254.023 212.726 254.023Z" fill="url(#paint26_linear_107_377)"/>
<path d="M238.121 251.081C238.121 251.081 238.121 251.326 238.121 251.898C238.121 252.47 238.121 253.206 238.121 254.268C238.121 256.393 238.121 259.417 238.203 263.422C238.203 271.35 238.284 282.793 238.284 296.769V296.932H238.121C217.952 296.932 192.068 296.932 163.815 297.014H163.57V296.769C163.57 280.586 163.57 265.22 163.57 251.162V250.999H163.733C185.617 250.999 204.153 250.999 217.381 251.081C223.913 251.081 229.139 251.081 232.65 251.081C234.447 251.081 235.753 251.081 236.733 251.081C237.141 251.081 237.549 251.081 237.794 251.081C238.039 251.081 238.121 251.081 238.121 251.081C238.121 251.081 237.958 251.081 237.794 251.081C237.549 251.081 237.223 251.081 236.733 251.081C235.753 251.081 234.447 251.081 232.65 251.081C229.057 251.081 223.831 251.081 217.299 251.162C204.153 251.162 185.617 251.244 163.815 251.326L163.978 251.162C163.978 265.22 163.978 280.586 163.978 296.769L163.733 296.524C191.986 296.524 217.871 296.524 238.039 296.605L237.876 296.769C237.876 282.793 237.958 271.432 237.958 263.504C237.958 259.581 237.958 256.475 238.039 254.35C238.039 253.288 238.039 252.47 238.039 251.98C238.121 251.408 238.121 251.081 238.121 251.081Z" fill="url(#paint27_linear_107_377)"/>
<path d="M213.543 262.278H191.414V268.245H213.543V262.278Z" fill="url(#paint28_linear_107_377)"/>
<path d="M238.284 194.032H163.978V239.72H238.284V194.032Z" fill="url(#paint29_linear_107_377)"/>
<path d="M212.645 202.859H190.679C189.7 202.859 188.883 202.042 188.883 201.061V199.917H214.359V201.061C214.441 202.123 213.625 202.859 212.645 202.859Z" fill="url(#paint30_linear_107_377)"/>
<path d="M238.856 199.998C238.856 199.998 238.856 200.243 238.856 200.816C238.856 201.388 238.856 202.123 238.856 203.186C238.856 205.311 238.856 208.335 238.938 212.34C238.938 220.268 239.019 231.71 239.019 245.686V245.85H238.856C218.687 245.85 192.803 245.85 164.55 245.932H164.305V245.686C164.305 229.504 164.305 214.138 164.305 200.08V199.917H164.468C186.352 199.917 204.887 199.916 218.116 199.998C224.648 199.998 229.874 199.998 233.385 199.998C235.181 199.998 236.488 199.998 237.468 199.998C237.876 199.998 238.284 199.998 238.529 199.998C238.774 199.998 238.856 199.998 238.856 199.998C238.856 199.998 238.693 199.998 238.529 199.998C238.284 199.998 237.958 199.998 237.468 199.998C236.488 199.998 235.181 199.998 233.385 199.998C229.792 199.998 224.566 199.998 218.034 200.08C204.887 200.08 186.352 200.162 164.55 200.243L164.713 200.08C164.713 214.138 164.713 229.504 164.713 245.686L164.468 245.441C192.721 245.441 218.606 245.441 238.774 245.523L238.611 245.686C238.611 231.71 238.693 220.35 238.693 212.421C238.693 208.498 238.693 205.393 238.774 203.268C238.774 202.205 238.774 201.388 238.774 200.897C238.856 200.243 238.856 199.998 238.856 199.998Z" fill="url(#paint31_linear_107_377)"/>
<path d="M212.726 210.787H190.598V216.753H212.726V210.787Z" fill="url(#paint32_linear_107_377)"/>
<path d="M212.89 89.3332H190.925C189.945 89.3332 189.128 88.5159 189.128 87.5351V86.3909H214.605V87.5351C214.686 88.5976 213.87 89.3332 212.89 89.3332Z" fill="url(#paint33_linear_107_377)"/>
<path d="M238.284 86.4726C238.284 86.4726 238.284 86.7178 238.284 87.2899C238.284 87.8621 238.284 88.5976 238.284 89.6602C238.284 91.7852 238.284 94.8093 238.366 98.8141C238.366 106.742 238.448 118.185 238.448 132.161V132.324H238.284C218.116 132.324 192.231 132.324 163.978 132.406H163.733V132.161C163.733 115.978 163.733 100.612 163.733 86.5543V86.3909H163.897C185.78 86.3909 204.316 86.3909 217.544 86.4726C224.076 86.4726 229.302 86.4726 232.814 86.4726C234.61 86.4726 235.916 86.4726 236.896 86.4726C237.305 86.4726 237.713 86.4726 237.958 86.4726C238.203 86.4726 238.284 86.4726 238.284 86.4726C238.284 86.4726 238.121 86.4726 237.958 86.4726C237.713 86.4726 237.386 86.4726 236.896 86.4726C235.916 86.4726 234.61 86.4726 232.814 86.4726C229.221 86.4726 223.995 86.4726 217.462 86.5543C204.316 86.5543 185.78 86.6361 163.978 86.7178L164.142 86.5543C164.142 100.612 164.142 115.978 164.142 132.161L163.897 131.916C192.149 131.916 218.034 131.916 238.203 131.997L238.039 132.161C238.039 118.185 238.121 106.824 238.121 98.8959C238.121 94.9727 238.121 91.8669 238.203 89.7419C238.203 88.6794 238.203 87.862 238.203 87.3717C238.284 86.7178 238.284 86.4726 238.284 86.4726Z" fill="url(#paint34_linear_107_377)"/>
<path d="M212.645 96.1987H190.516V102.165H212.645V96.1987Z" fill="url(#paint35_linear_107_377)"/>
<path d="M164.223 157.988V140.824C164.223 139.353 165.448 138.127 166.918 138.127H212.563C214.033 138.127 215.176 139.271 215.176 140.743V157.988H164.223Z" fill="#E8505B"/>
<path d="M164.223 157.988V140.824C164.223 139.353 165.448 138.127 166.918 138.127H212.563C214.033 138.127 215.176 139.271 215.176 140.743V157.988H164.223Z" fill="url(#paint36_linear_107_377)"/>
<path d="M168.877 157.988V142.868C168.877 142.704 168.959 142.623 169.122 142.623H215.176V157.988H168.877Z" fill="#FAFAFA"/>
<path d="M225.628 139.762L224.321 157.988H174.675L175.982 141.07C176.145 139.435 177.206 138.209 178.594 138.209L202.683 138.372C202.683 137.228 203.418 136.329 204.316 136.329H223.015C224.566 136.329 225.709 137.882 225.628 139.762Z" fill="url(#paint37_linear_107_377)"/>
<path d="M184.555 156.272V139.108C184.555 137.637 185.78 136.411 187.25 136.411H232.895C234.365 136.411 235.508 137.555 235.508 139.026V156.272H184.555Z" fill="#E8505B"/>
<path d="M184.555 156.272V139.108C184.555 137.637 185.78 136.411 187.25 136.411H232.895C234.365 136.411 235.508 137.555 235.508 139.026V156.272H184.555Z" fill="url(#paint38_linear_107_377)"/>
<path d="M189.21 156.272V141.151C189.21 140.988 189.291 140.906 189.455 140.906H235.508V156.272H189.21Z" fill="#FAFAFA"/>
<path d="M245.878 137.964L244.572 156.19H195.007L196.314 139.271C196.477 137.637 197.539 136.411 198.927 136.411L223.015 136.574C223.015 135.43 223.75 134.531 224.648 134.531H243.265C244.817 134.531 246.042 136.166 245.878 137.964Z" fill="url(#paint39_linear_107_377)"/>
<path d="M212.808 157.252V140.089C212.808 138.618 214.033 137.392 215.502 137.392H261.148C262.617 137.392 263.761 138.536 263.761 140.007V157.252H212.808Z" fill="#E8505B"/>
<path d="M212.808 157.252V140.089C212.808 138.618 214.033 137.392 215.502 137.392H261.148C262.617 137.392 263.761 138.536 263.761 140.007V157.252H212.808Z" fill="url(#paint40_linear_107_377)"/>
<path d="M217.462 157.252V142.132C217.462 141.968 217.544 141.887 217.707 141.887H263.761V157.252H217.462Z" fill="#FAFAFA"/>
<path d="M266.455 137.964H219.749V165.344H266.455V137.964Z" fill="#E0E0E0"/>
<path d="M270.375 125.786H223.26V155.046H270.375V125.786Z" fill="#F5F5F5"/>
<path d="M231.834 153.166C231.752 153.166 231.589 148.099 231.589 141.887C231.589 135.675 231.67 130.608 231.834 130.608C231.915 130.608 232.079 135.675 232.079 141.887C232.079 148.099 231.997 153.166 231.834 153.166Z" fill="#263238"/>
<path d="M235.181 153.166C235.1 153.166 234.937 148.099 234.937 141.887C234.937 135.675 235.018 130.608 235.181 130.608C235.263 130.608 235.426 135.675 235.426 141.887C235.426 148.099 235.345 153.166 235.181 153.166Z" fill="#263238"/>
<path d="M238.856 153.166C238.774 153.166 238.611 148.099 238.611 141.887C238.611 135.675 238.692 130.608 238.856 130.608C238.937 130.608 239.101 135.675 239.101 141.887C239.019 148.099 238.937 153.166 238.856 153.166Z" fill="#263238"/>
<path d="M242.449 153.166C242.367 153.166 242.204 148.099 242.204 141.887C242.204 135.675 242.286 130.608 242.449 130.608C242.612 130.608 242.694 135.675 242.694 141.887C242.694 148.099 242.612 153.166 242.449 153.166Z" fill="#263238"/>
<path d="M246.123 153.166C246.041 153.166 245.878 148.099 245.878 141.887C245.878 135.675 245.96 130.608 246.123 130.608C246.205 130.608 246.368 135.675 246.368 141.887C246.368 148.099 246.286 153.166 246.123 153.166Z" fill="#263238"/>
<path d="M249.798 153.166C249.716 153.166 249.553 148.099 249.553 141.887C249.553 135.675 249.634 130.608 249.798 130.608C249.879 130.608 250.043 135.675 250.043 141.887C249.961 148.099 249.879 153.166 249.798 153.166Z" fill="#263238"/>
<path d="M253.39 153.166C253.309 153.166 253.146 148.099 253.146 141.887C253.146 135.675 253.227 130.608 253.39 130.608C253.472 130.608 253.635 135.675 253.635 141.887C253.635 148.099 253.554 153.166 253.39 153.166Z" fill="#263238"/>
<path d="M257.065 153.166C256.983 153.166 256.82 148.099 256.82 141.887C256.82 135.675 256.902 130.608 257.065 130.608C257.147 130.608 257.31 135.675 257.31 141.887C257.31 148.099 257.147 153.166 257.065 153.166Z" fill="#263238"/>
<path d="M260.74 153.166C260.658 153.166 260.495 148.099 260.495 141.887C260.495 135.675 260.576 130.608 260.74 130.608C260.821 130.608 260.985 135.675 260.985 141.887C260.903 148.099 260.821 153.166 260.74 153.166Z" fill="#263238"/>
<path d="M264.332 153.166C264.251 153.166 264.087 148.099 264.087 141.887C264.087 135.675 264.169 130.608 264.332 130.608C264.414 130.608 264.577 135.675 264.577 141.887C264.577 148.099 264.496 153.166 264.332 153.166Z" fill="#263238"/>
<path d="M274.131 142.214L272.824 157.253H223.26L224.566 143.276C224.73 141.969 225.791 140.906 227.179 140.906L251.267 140.988C251.267 140.089 252.002 139.353 252.901 139.353H271.518C273.069 139.353 274.294 140.661 274.131 142.214Z" fill="url(#paint41_linear_107_377)"/>
<path d="M238.121 148.916H163.815V194.604H238.121V148.916Z" fill="url(#paint42_linear_107_377)"/>
<path d="M283.113 148.916H208.807V194.604H283.113V148.916Z" fill="url(#paint43_linear_107_377)"/>
<path d="M283.113 194.359C283.113 194.359 283.113 194.032 283.113 193.542C283.113 192.969 283.113 192.234 283.113 191.171C283.113 189.046 283.113 186.022 283.031 182.099C283.031 174.253 282.95 162.892 282.95 149.079L283.113 149.243C263.026 149.243 237.059 149.243 208.807 149.325L209.052 149.079C209.052 165.181 209.052 180.464 209.052 194.441L208.889 194.277C230.69 194.277 249.226 194.359 262.373 194.359C268.905 194.359 274.131 194.441 277.724 194.441C279.52 194.441 280.908 194.441 281.806 194.441C282.296 194.441 282.623 194.441 282.868 194.441C282.95 194.359 283.113 194.359 283.113 194.359C283.113 194.359 283.031 194.359 282.786 194.359C282.541 194.359 282.215 194.359 281.725 194.359C280.827 194.359 279.438 194.359 277.642 194.359C274.049 194.359 268.905 194.359 262.373 194.441C249.226 194.441 230.609 194.522 208.807 194.522H208.644V194.359C208.644 180.383 208.644 165.099 208.644 148.998V148.752H208.889C237.141 148.752 263.107 148.752 283.195 148.834H283.358V148.998C283.358 162.892 283.276 174.253 283.276 182.099C283.276 186.022 283.276 189.046 283.195 191.171C283.195 192.234 283.195 192.969 283.195 193.542C283.113 194.114 283.113 194.359 283.113 194.359Z" fill="url(#paint44_linear_107_377)"/>
<path d="M259.188 151.613H237.223C236.243 151.613 235.426 150.796 235.426 149.815V148.834H260.903V149.815C260.984 150.878 260.168 151.613 259.188 151.613Z" fill="url(#paint45_linear_107_377)"/>
<path d="M259.76 159.132H237.631V165.099H259.76V159.132Z" fill="url(#paint46_linear_107_377)"/>
<path d="M258.862 120.391C258.127 123.252 257.719 126.194 257.556 129.137C257.556 129.545 257.556 129.954 257.882 130.199C258.291 130.444 258.699 129.872 258.944 129.463C259.434 128.891 261.393 125.54 261.393 125.54C264.415 125.213 266.374 122.843 266.456 120.146" fill="#FFBE9D"/>
<path d="M266.537 120.146C266.537 120.146 266.537 120.391 266.537 120.718C266.537 121.127 266.374 121.699 266.129 122.353C265.884 123.007 265.312 123.742 264.577 124.396C263.842 125.05 262.699 125.54 261.556 125.704L261.719 125.622C261.066 126.685 260.413 127.829 259.678 129.055C259.596 129.218 259.433 129.382 259.27 129.545C259.106 129.709 259.025 129.872 258.861 130.036C258.698 130.199 258.535 130.363 258.29 130.444C257.963 130.526 257.718 130.281 257.636 130.036C257.473 129.545 257.555 129.137 257.555 128.81C257.555 128.401 257.636 128.074 257.636 127.665C257.8 126.194 257.963 124.968 258.126 123.824C258.29 122.761 258.535 121.862 258.698 121.29C258.861 120.718 258.943 120.391 259.025 120.391C259.025 120.391 259.025 120.718 258.861 121.29C258.78 121.862 258.616 122.761 258.453 123.824C258.29 124.886 258.126 126.194 258.045 127.584C258.045 127.911 257.963 128.319 257.963 128.646C257.963 129.055 257.881 129.382 258.045 129.709C258.126 129.872 258.208 129.954 258.29 129.872C258.371 129.872 258.535 129.709 258.698 129.627C258.861 129.463 258.943 129.3 259.106 129.137C259.188 128.973 259.351 128.81 259.433 128.646C260.168 127.502 260.903 126.358 261.474 125.295L261.556 125.213H261.638C262.781 125.05 263.761 124.641 264.496 124.069C265.23 123.497 265.72 122.761 266.047 122.189C266.455 120.963 266.455 120.146 266.537 120.146Z" fill="#EB996E"/>
</g>
<defs>
<linearGradient id="paint0_linear_107_377" x1="440.364" y1="219.631" x2="404.154" y2="282.766" gradientUnits="userSpaceOnUse">
<stop offset="0.0353535" stop-color="#1968B3"/>
<stop offset="1" stop-color="#4C97DD"/>
</linearGradient>
<linearGradient id="paint1_linear_107_377" x1="456.715" y1="253.045" x2="456.943" y2="287.3" gradientUnits="userSpaceOnUse">
<stop offset="0.0353535" stop-color="#1968B3"/>
<stop offset="1" stop-color="#4C97DD"/>
</linearGradient>
<linearGradient id="paint2_linear_107_377" x1="460.5" y1="256" x2="460.769" y2="295.542" gradientUnits="userSpaceOnUse">
<stop offset="0.0353535" stop-color="#1968B3"/>
<stop offset="1" stop-color="#4C97DD"/>
</linearGradient>
<linearGradient id="paint3_linear_107_377" x1="460.44" y1="222.953" x2="429.449" y2="278.273" gradientUnits="userSpaceOnUse">
<stop offset="0.0353535" stop-color="#1968B3"/>
<stop offset="1" stop-color="#4C97DD"/>
</linearGradient>
<linearGradient id="paint4_linear_107_377" x1="463.146" y1="220.53" x2="426.936" y2="283.665" gradientUnits="userSpaceOnUse">
<stop offset="0.0353535" stop-color="#1968B3"/>
<stop offset="1" stop-color="#4C97DD"/>
</linearGradient>
<linearGradient id="paint5_linear_107_377" x1="478.21" y1="200.83" x2="423.194" y2="288.204" gradientUnits="userSpaceOnUse">
<stop offset="0.0353535" stop-color="#C1E7FF"/>
<stop offset="1" stop-color="#66A9DF"/>
</linearGradient>
<linearGradient id="paint6_linear_107_377" x1="393.67" y1="300.252" x2="389.532" y2="322.89" gradientUnits="userSpaceOnUse">
<stop offset="0.0353535" stop-color="#1968B3"/>
<stop offset="1" stop-color="#4C97DD"/>
</linearGradient>
<linearGradient id="paint7_linear_107_377" x1="315.652" y1="232.438" x2="278.236" y2="285.667" gradientUnits="userSpaceOnUse">
<stop offset="0.0353535" stop-color="#1968B3"/>
<stop offset="1" stop-color="#4C97DD"/>
</linearGradient>
<linearGradient id="paint8_linear_107_377" x1="404.869" y1="211.337" x2="354.428" y2="252.037" gradientUnits="userSpaceOnUse">
<stop offset="0.0353535" stop-color="#1968B3"/>
<stop offset="1" stop-color="#4C97DD"/>
</linearGradient>
<linearGradient id="paint9_linear_107_377" x1="276.454" y1="319.016" x2="484.192" y2="265.956" gradientUnits="userSpaceOnUse">
<stop stop-color="#0056B2"/>
<stop offset="1" stop-color="#27185F"/>
</linearGradient>
<linearGradient id="paint10_linear_107_377" x1="305.8" y1="313.854" x2="511.132" y2="260.264" gradientUnits="userSpaceOnUse">
<stop stop-color="#0056B2"/>
<stop offset="1" stop-color="#27185F"/>
</linearGradient>
<linearGradient id="paint11_linear_107_377" x1="348.627" y1="14.8241" x2="345.34" y2="17.4674" gradientUnits="userSpaceOnUse">
<stop offset="0.0353535" stop-color="#1968B3"/>
<stop offset="1" stop-color="#4C97DD"/>
</linearGradient>
<linearGradient id="paint12_linear_107_377" x1="309.93" y1="35.1386" x2="287.461" y2="137.815" gradientUnits="userSpaceOnUse">
<stop offset="0.0353535" stop-color="#1968B3"/>
<stop offset="1" stop-color="#4C97DD"/>
</linearGradient>
<linearGradient id="paint13_linear_107_377" x1="341.932" y1="115.5" x2="376.053" y2="69.3753" gradientUnits="userSpaceOnUse">
<stop offset="0.0353535" stop-color="#064580"/>
<stop offset="1" stop-color="#4C97DD"/>
</linearGradient>
<linearGradient id="paint14_linear_107_377" x1="347.432" y1="130.5" x2="395.295" y2="128.235" gradientUnits="userSpaceOnUse">
<stop offset="0.0353535" stop-color="#1968B3"/>
<stop offset="1" stop-color="#4C97DD"/>
</linearGradient>
<linearGradient id="paint15_linear_107_377" x1="310.929" y1="37.2478" x2="407.822" y2="152.383" gradientUnits="userSpaceOnUse">
<stop offset="0.0353535" stop-color="#065CAD"/>
<stop offset="1" stop-color="#3B92E4"/>
</linearGradient>
<linearGradient id="paint16_linear_107_377" x1="354.83" y1="44.6322" x2="317.376" y2="133.328" gradientUnits="userSpaceOnUse">
<stop offset="0.0353535" stop-color="#1968B3"/>
<stop offset="1" stop-color="#4C97DD"/>
</linearGradient>
<linearGradient id="paint17_linear_107_377" x1="167.45" y1="-30.9735" x2="217.577" y2="-2.44057" gradientUnits="userSpaceOnUse">
<stop offset="0.0353535" stop-color="#333EA4"/>
<stop offset="1" stop-color="#6F7DF9"/>
</linearGradient>
<linearGradient id="paint18_linear_107_377" x1="190.735" y1="6.51244" x2="221.877" y2="37.9345" gradientUnits="userSpaceOnUse">
<stop offset="0.0353535" stop-color="#333EA4"/>
<stop offset="1" stop-color="#6F7DF9"/>
</linearGradient>
<linearGradient id="paint19_linear_107_377" x1="160.222" y1="23.1004" x2="179.487" y2="61.5028" gradientUnits="userSpaceOnUse">
<stop offset="0.0353535" stop-color="#333EA4"/>
<stop offset="1" stop-color="#6F7DF9"/>
</linearGradient>
<linearGradient id="paint20_linear_107_377" x1="191.208" y1="1.04392" x2="221.323" y2="9.91163" gradientUnits="userSpaceOnUse">
<stop offset="0.0353535" stop-color="#333EA4"/>
<stop offset="1" stop-color="#6F7DF9"/>
</linearGradient>
<linearGradient id="paint21_linear_107_377" x1="173.188" y1="-39.9545" x2="238.649" y2="-13.0331" gradientUnits="userSpaceOnUse">
<stop offset="0.0353535" stop-color="#333EA4"/>
<stop offset="1" stop-color="#6F7DF9"/>
</linearGradient>
<linearGradient id="paint22_linear_107_377" x1="168.829" y1="22.949" x2="201.371" y2="66.9382" gradientUnits="userSpaceOnUse">
<stop offset="0.0353535" stop-color="#333EA4"/>
<stop offset="1" stop-color="#6F7DF9"/>
</linearGradient>
<linearGradient id="paint23_linear_107_377" x1="179.524" y1="33.6501" x2="221.884" y2="79.6538" gradientUnits="userSpaceOnUse">
<stop offset="0.0353535" stop-color="#333EA4"/>
<stop offset="1" stop-color="#6F7DF9"/>
</linearGradient>
<linearGradient id="paint24_linear_107_377" x1="135.471" y1="291.483" x2="82.3809" y2="419.969" gradientUnits="userSpaceOnUse">
<stop offset="0.0353535" stop-color="#1968B3"/>
<stop offset="1" stop-color="#4C97DD"/>
</linearGradient>
<linearGradient id="paint25_linear_107_377" x1="261.994" y1="-347.793" x2="-15.9741" y2="-232.31" gradientUnits="userSpaceOnUse">
<stop offset="0.0353535" stop-color="#C1E7FF"/>
<stop offset="1" stop-color="#66A9DF"/>
</linearGradient>
<linearGradient id="paint26_linear_107_377" x1="188.568" y1="248.334" x2="189.654" y2="258.558" gradientUnits="userSpaceOnUse">
<stop offset="0.0353535" stop-color="#065CAD"/>
<stop offset="1" stop-color="#3B92E4"/>
</linearGradient>
<linearGradient id="paint27_linear_107_377" x1="233.265" y1="276.083" x2="95.0118" y2="183.959" gradientUnits="userSpaceOnUse">
<stop offset="0.0353535" stop-color="#C1E7FF"/>
<stop offset="1" stop-color="#66A9DF"/>
</linearGradient>
<linearGradient id="paint28_linear_107_377" x1="191.07" y1="256.709" x2="195.968" y2="276.459" gradientUnits="userSpaceOnUse">
<stop offset="0.0353535" stop-color="#065CAD"/>
<stop offset="1" stop-color="#3B92E4"/>
</linearGradient>
<linearGradient id="paint29_linear_107_377" x1="256.069" y1="105.604" x2="187.152" y2="229.182" gradientUnits="userSpaceOnUse">
<stop offset="0.0353535" stop-color="#C1E7FF"/>
<stop offset="1" stop-color="#66A9DF"/>
</linearGradient>
<linearGradient id="paint30_linear_107_377" x1="188.486" y1="197.17" x2="189.572" y2="207.393" gradientUnits="userSpaceOnUse">
<stop offset="0.0353535" stop-color="#065CAD"/>
<stop offset="1" stop-color="#3B92E4"/>
</linearGradient>
<linearGradient id="paint31_linear_107_377" x1="234" y1="225" x2="95.7467" y2="132.876" gradientUnits="userSpaceOnUse">
<stop offset="0.0353535" stop-color="#C1E7FF"/>
<stop offset="1" stop-color="#66A9DF"/>
</linearGradient>
<linearGradient id="paint32_linear_107_377" x1="190.253" y1="205.218" x2="195.152" y2="224.967" gradientUnits="userSpaceOnUse">
<stop offset="0.0353535" stop-color="#065CAD"/>
<stop offset="1" stop-color="#3B92E4"/>
</linearGradient>
<linearGradient id="paint33_linear_107_377" x1="188.731" y1="83.6445" x2="189.817" y2="93.8678" gradientUnits="userSpaceOnUse">
<stop offset="0.0353535" stop-color="#065CAD"/>
<stop offset="1" stop-color="#3B92E4"/>
</linearGradient>
<linearGradient id="paint34_linear_107_377" x1="233.428" y1="111.474" x2="95.1751" y2="19.3509" gradientUnits="userSpaceOnUse">
<stop offset="0.0353535" stop-color="#C1E7FF"/>
<stop offset="1" stop-color="#66A9DF"/>
</linearGradient>
<linearGradient id="paint35_linear_107_377" x1="190.171" y1="90.6296" x2="195.07" y2="110.379" gradientUnits="userSpaceOnUse">
<stop offset="0.0353535" stop-color="#065CAD"/>
<stop offset="1" stop-color="#3B92E4"/>
</linearGradient>
<linearGradient id="paint36_linear_107_377" x1="172.915" y1="145.236" x2="199.07" y2="158.563" gradientUnits="userSpaceOnUse">
<stop offset="0.0353535" stop-color="#1968B3"/>
<stop offset="1" stop-color="#4C97DD"/>
</linearGradient>
<linearGradient id="paint37_linear_107_377" x1="226.619" y1="102.044" x2="202.799" y2="159.801" gradientUnits="userSpaceOnUse">
<stop offset="0.0353535" stop-color="#1968B3"/>
<stop offset="1" stop-color="#4C97DD"/>
</linearGradient>
<linearGradient id="paint38_linear_107_377" x1="193.248" y1="143.519" x2="219.403" y2="156.846" gradientUnits="userSpaceOnUse">
<stop offset="0.0353535" stop-color="#1968B3"/>
<stop offset="1" stop-color="#4C97DD"/>
</linearGradient>
<linearGradient id="paint39_linear_107_377" x1="246.879" y1="100.246" x2="223.035" y2="157.979" gradientUnits="userSpaceOnUse">
<stop offset="0.0353535" stop-color="#1968B3"/>
<stop offset="1" stop-color="#4C97DD"/>
</linearGradient>
<linearGradient id="paint40_linear_107_377" x1="221.5" y1="144.5" x2="247.655" y2="157.827" gradientUnits="userSpaceOnUse">
<stop offset="0.0353535" stop-color="#1968B3"/>
<stop offset="1" stop-color="#4C97DD"/>
</linearGradient>
<linearGradient id="paint41_linear_107_377" x1="275.132" y1="111.019" x2="258.058" y2="161.042" gradientUnits="userSpaceOnUse">
<stop offset="0.0353535" stop-color="#1968B3"/>
<stop offset="1" stop-color="#4C97DD"/>
</linearGradient>
<linearGradient id="paint42_linear_107_377" x1="174" y1="192.5" x2="171.303" y2="223.326" gradientUnits="userSpaceOnUse">
<stop offset="0.0353535" stop-color="#1968B3"/>
<stop offset="1" stop-color="#4C97DD"/>
</linearGradient>
<linearGradient id="paint43_linear_107_377" x1="300.897" y1="60.4881" x2="231.981" y2="184.066" gradientUnits="userSpaceOnUse">
<stop offset="0.0353535" stop-color="#C1E7FF"/>
<stop offset="1" stop-color="#66A9DF"/>
</linearGradient>
<linearGradient id="paint44_linear_107_377" x1="278.339" y1="173.702" x2="140.54" y2="81.3902" gradientUnits="userSpaceOnUse">
<stop offset="0.0353535" stop-color="#C1E7FF"/>
<stop offset="1" stop-color="#66A9DF"/>
</linearGradient>
<linearGradient id="paint45_linear_107_377" x1="235.029" y1="146.24" x2="235.999" y2="155.907" gradientUnits="userSpaceOnUse">
<stop offset="0.0353535" stop-color="#065CAD"/>
<stop offset="1" stop-color="#3B92E4"/>
</linearGradient>
<linearGradient id="paint46_linear_107_377" x1="237.286" y1="153.563" x2="242.185" y2="173.313" gradientUnits="userSpaceOnUse">
<stop offset="0.0353535" stop-color="#065CAD"/>
<stop offset="1" stop-color="#3B92E4"/>
</linearGradient>
<clipPath id="clip0_107_377">
<rect width="501" height="302" fill="white"/>
</clipPath>
</defs>
</svg>
