<svg width="501" height="311" viewBox="0 0 501 311" fill="none" xmlns="http://www.w3.org/2000/svg">
<g clip-path="url(#clip0_219_7699)">
<path d="M323.394 42.1307C367.247 42.3531 414.962 43.2175 443.578 70.8517C473.443 99.6925 474.984 141.054 464.114 178.025C453.315 214.757 428.904 250.523 386.647 264.489C346.54 277.744 305.572 258.161 266.217 243.43C223.87 227.58 171.96 216.173 158.689 179.166C144.732 140.249 169.366 98.36 203.89 69.6361C234.631 44.0596 279.909 41.9101 323.394 42.1307Z" fill="#DEE5F6"/>
<path d="M133.804 311H491.196C492.698 311 494 309.7 494 308.2C494 306.7 492.698 305.4 491.196 305.4H133.804C132.302 305.4 131 306.7 131 308.2C131 309.8 132.302 311 133.804 311Z" fill="#E4EAED"/>
<path d="M241.299 26.9111C241.711 28.2287 234.124 30.864 231.98 31.5228C229.836 32.1817 227.444 32.6758 227.032 31.2758C226.62 29.8758 228.846 28.9699 230.99 28.3111C233.134 27.5699 240.969 25.5935 241.299 26.9111Z" fill="#FFBE9D"/>
<path d="M239.452 27.5554C240.453 29.2554 243.057 27.2554 243.958 26.5554C245.26 25.7554 244.659 23.7554 244.158 23.1554C243.658 22.5554 242.256 24.4554 242.055 24.4554C241.855 24.4554 243.257 22.8554 242.756 22.3554C242.256 21.8554 240.153 23.6554 239.552 24.7554C239.051 25.7554 238.851 26.4554 239.452 27.5554Z" fill="#FFBE9D"/>
<path d="M239.552 24.7553C240.153 23.7553 242.255 21.8553 242.756 22.3553C243.257 22.8553 241.855 24.3553 242.055 24.4553L239.251 25.5553C239.351 25.2553 239.452 25.0553 239.552 24.7553Z" fill="#F0C6AE"/>
<path d="M275.499 129.9C276.795 129.715 278.05 129.435 279.259 129.058C282.082 128.179 285.498 129.712 285.915 132.639L288.717 152.3C289.318 156.3 286.514 160 282.509 160.5L262.712 163.248C259.834 163.647 258.285 166.945 259.143 169.721C259.511 170.91 259.792 172.141 259.978 173.4C261.78 186.3 252.768 198.2 239.85 200C226.932 201.8 215.016 192.8 213.213 179.9C213.025 178.623 212.95 177.345 212.978 176.084C213.041 173.185 210.672 170.45 207.8 170.849L187.978 173.6C183.973 174.2 180.268 171.4 179.767 167.4L166.349 73.2001C165.748 69.2001 168.552 65.5001 172.557 65.0001L267.087 51.7001C271.093 51.1001 274.798 53.9001 275.299 57.9001L278.11 77.631C278.525 80.5409 275.715 82.9424 272.776 82.8696C271.498 82.838 270.201 82.9131 268.89 83.1001C255.972 84.9001 246.96 96.8001 248.762 109.7C250.565 122.7 262.481 131.7 275.499 129.9Z" fill="#1968B3"/>
<path d="M413.189 125C413.289 123.3 426.006 123.3 429.611 123.4C433.216 123.5 437.021 123.9 436.921 125.9C436.821 127.8 433.016 128 429.411 127.8C425.806 127.7 413.088 126.8 413.189 125Z" fill="#FFBE9D"/>
<path d="M416.493 125.1C416.593 127.1 412.989 126.9 411.687 126.7C409.684 126.5 408.182 123.9 408.182 123.2C408.282 122.4 412.288 123.7 412.488 123.5C412.688 123.3 410.385 123.1 410.485 122.3C410.585 121.6 413.589 122 414.691 122.6C415.893 123.2 416.393 123.8 416.493 125.1Z" fill="#F0C6AE"/>
<path d="M337.484 151.4C336.383 154.8 336.183 158.2 336.583 161.5L311.449 153.7C307.643 152.5 305.44 148.4 306.642 144.6L314.453 119.6C311.248 120 307.844 119.7 304.539 118.7C292.122 114.8 285.112 101.6 289.018 89.2C292.923 76.8 306.141 69.8 318.558 73.7C321.863 74.7 324.767 76.4 327.17 78.6L334.981 53.6C336.183 49.8 340.288 47.6 344.094 48.8L435.219 77.1C439.024 78.3 441.227 82.4 440.026 86.2L411.687 177.2C410.485 181 406.379 183.2 402.574 182L377.439 174.2C379.743 171.7 381.445 168.8 382.446 165.4C386.352 153 379.342 139.7 366.925 135.9C354.608 132 341.29 138.9 337.484 151.4Z" fill="url(#paint0_linear_219_7699)"/>
<path d="M303.738 227.9C300.233 227.9 296.828 228.7 293.824 230.1V203.8C293.824 199.8 297.129 196.5 301.134 196.5H327.27C325.968 193.5 325.167 190.3 325.167 186.8C325.167 173.8 335.782 163.2 348.8 163.2C361.818 163.2 372.432 173.8 372.432 186.8C372.432 190.3 371.631 193.5 370.33 196.5H396.566C400.571 196.5 403.876 199.8 403.876 203.8V299.1C403.876 303.1 400.571 306.4 396.566 306.4H301.134C297.129 306.4 293.824 303.1 293.824 299.1V272.8C296.828 274.2 300.233 275 303.738 275C316.756 275 327.37 264.4 327.37 251.4C327.37 238.5 316.756 227.9 303.738 227.9Z" fill="url(#paint1_linear_219_7699)"/>
<path d="M157.336 272.6C160.14 272.5 161.141 256.8 161.141 250.1C161.041 243.4 159.74 238.1 156.235 238.2C152.83 238.3 151.829 243.6 152.129 250.3C152.429 257.1 154.432 272.7 157.336 272.6Z" fill="#F0C6AE"/>
<path d="M166.349 271C169.153 270.9 170.154 255.2 170.154 248.5C170.054 241.8 168.752 236.5 165.247 236.6C161.842 236.7 160.841 242 161.141 248.7C161.442 255.4 163.445 271.1 166.349 271Z" fill="#F0C6AE"/>
<path d="M163.845 304L163.745 306.5C163.745 306.9 164.046 307.1 164.346 307.1H171.155C171.756 307.1 172.057 306.3 171.556 306C170.554 305.2 169.153 304.4 167.751 304.1C167.65 304.1 166.649 282.9 165.648 282.9C164.746 283 163.845 304 163.845 304Z" fill="#FFBE9D"/>
<path d="M165.548 304.9C168.051 304.9 168.752 282.8 168.752 277.8C168.752 272.8 168.351 267.6 165.548 267.6C162.744 267.6 162.343 272.9 162.343 277.8C162.343 282.8 163.044 304.9 165.548 304.9Z" fill="#FFBE9D"/>
<path d="M163.745 304.5V306.9C163.745 307.1 163.945 307.3 164.146 307.3H171.756C172.457 307.3 172.657 306.5 172.157 306.1C171.055 305.3 169.253 304.5 167.951 303.8C167.65 304.1 167.15 304.9 166.649 305C166.148 305.1 163.745 304.5 163.745 304.5Z" fill="#2860A3"/>
<path d="M152.73 305.1C152.73 305.1 152.73 305.2 152.73 305.4V307.5C152.73 307.7 153.231 308.6 153.731 308.8C155.434 309.5 158.738 309.1 158.838 308.5C158.938 307.9 158.037 306.6 157.336 305.7C156.836 305.1 156.435 304.7 156.435 304.7C156.435 304.7 155.534 284.2 154.532 284.2C153.431 284.2 152.73 305.1 152.73 305.1Z" fill="#FFBE9D"/>
<path d="M154.332 306C156.836 306.2 159.139 284.2 159.539 279.3C160.04 274.3 160.14 269.1 157.336 268.8C154.532 268.5 153.631 273.7 153.231 278.7C152.73 283.7 151.829 305.8 154.332 306Z" fill="#FFBE9D"/>
<path d="M152.73 305.4V307.5C152.73 307.7 153.231 308.6 153.731 308.8C155.434 309.5 158.738 309.1 158.838 308.5C158.938 307.9 158.037 306.6 157.336 305.7C156.936 305.4 155.233 305.6 154.933 305.7C154.632 305.8 153.932 306.3 153.731 306.3C153.531 306.3 152.73 305.4 152.73 305.4Z" fill="#2860A3"/>
<path d="M214.815 221C214.815 219.2 201.597 218.4 197.792 218.3C194.087 218.2 190.081 218.4 189.981 220.4C189.981 222.4 193.887 222.8 197.692 222.9C201.497 223 214.815 222.8 214.815 221Z" fill="#F0C6AE"/>
<path d="M194.888 222.2C195.789 220.4 185.976 213.9 181.57 211.5C177.164 209.1 173.258 207.9 172.157 210.1C170.955 212.3 174.159 214.9 178.566 217.1C183.072 219.5 193.987 224 194.888 222.2Z" fill="#F0C6AE"/>
<path d="M211.411 220.7C210.91 222.7 214.415 223.1 215.617 223.4C217.219 223.7 218.22 221.7 218.32 220.9C218.42 220.1 215.817 220.5 215.717 220.3C215.617 220.1 217.82 220 217.92 219.2C217.92 218.4 214.916 218.2 213.614 218.6C212.412 219 211.811 219.5 211.411 220.7Z" fill="#F0C6AE"/>
<path d="M213.714 218.6C214.916 218.2 218.02 218.5 218.02 219.2C218.02 220 215.717 220.1 215.817 220.3L212.813 219C213.013 218.9 213.313 218.8 213.714 218.6Z" fill="#F0C6AE"/>
<path d="M218.32 220.7C218.12 220.4 217.319 220.2 216.818 220.2C216.317 220.2 215.817 220.9 215.516 221.6C215.116 222.3 216.618 223.2 216.618 223.2L217.719 222.1L218.32 220.7Z" fill="#F0C6AE"/>
<path d="M169.153 204.8L169.653 208.5L171.956 207.4L172.657 207.1C172.657 207.1 175.461 208.5 176.362 208.9C177.264 209.4 185.175 212.7 192.184 217.6C192.184 217.6 207.906 218.7 208.807 218.9C209.708 219.1 210.109 219.3 210.109 219.3L211.411 219.5V223H210.009C210.009 223 208.907 223.7 206.804 223.8C204.601 223.9 195.689 224 191.684 223C187.578 222 175.962 218.7 175.962 218.7L165.347 216L163.144 206.2L169.153 204.8Z" fill="url(#paint2_linear_219_7699)"/>
<path d="M262.882 206.6C262.882 203.1 262.08 199.7 260.679 196.7H287.015C291.02 196.7 294.325 200 294.325 204V230.2C297.329 228.9 300.533 228.1 304.038 228.1C317.056 228.1 327.671 238.7 327.671 251.7C327.671 264.7 317.056 275.3 304.038 275.3C300.533 275.3 297.329 274.5 294.325 273.2V299.4C294.325 303.4 291.02 306.7 287.015 306.7H191.583C187.578 306.7 184.273 303.4 184.273 299.4V204C184.273 200 187.578 196.7 191.583 196.7H217.92C216.518 199.7 215.717 203.1 215.717 206.6C215.717 219.6 226.331 230.2 239.349 230.2C252.367 230.2 262.882 219.6 262.882 206.6Z" fill="url(#paint3_linear_219_7699)"/>
<path d="M152.329 244.2L168.752 241.5L173.358 218L175.561 209.4L168.351 204.2L163.044 203.7C160.04 203.4 158.037 205.3 157.336 208.2C157.336 208.2 152.93 223.9 152.43 229.2C151.829 237.4 152.329 244.2 152.329 244.2Z" fill="#F0C6AE"/>
<path d="M168.251 200.7L166.749 204.7C166.749 204.7 167.651 206.7 170.054 207.4C171.356 207.8 171.856 207.2 171.856 207.2L172.357 205.4L168.251 200.7Z" fill="#FFBE9D"/>
<path d="M175.461 197.9C175.961 198.2 175.661 199.9 175.561 199.9C175.461 199.9 175.561 198.4 175.161 198.1C174.761 197.7 175.461 197.9 175.461 197.9Z" fill="#E1B29B"/>
<path d="M177.363 198.5C176.963 198.8 176.863 200.1 176.863 200.2C176.863 200.3 177.463 198.7 177.463 198.7L177.363 198.5Z" fill="#E1B29B"/>
<path d="M173.258 197.3L173.158 197.5L175.261 198.1C175.261 198.1 175.361 197.9 175.361 197.8C175.161 197.4 173.258 197.3 173.258 197.3Z" fill="#434244"/>
<path d="M178.866 198.9L178.766 199.1C178.766 199.1 177.264 198.7 177.264 198.6C177.264 198.6 177.264 198.4 177.364 198.3C177.764 198.1 178.866 198.9 178.866 198.9Z" fill="#434244"/>
<path d="M173.658 198.9C173.558 199.1 173.758 199.4 173.959 199.5C174.159 199.6 174.459 199.4 174.559 199.2C174.659 199 174.459 198.7 174.259 198.6C174.059 198.5 173.758 198.6 173.658 198.9Z" fill="#434244"/>
<path d="M173.358 198.4C173.658 198.3 173.959 198.3 174.359 198.4C174.76 198.5 174.96 198.7 175.161 198.9L173.358 198.4Z" fill="#434244"/>
<path d="M177.264 199.9C177.164 200.1 177.364 200.4 177.564 200.5C177.764 200.6 178.065 200.4 178.165 200.2C178.265 200 178.065 199.7 177.865 199.6C177.564 199.5 177.264 199.6 177.264 199.9Z" fill="#434244"/>
<path d="M177.164 199.5C177.364 199.4 177.564 199.4 177.865 199.4C178.065 199.5 178.265 199.7 178.365 199.8L177.164 199.5Z" fill="#434244"/>
<path d="M175.762 201.8C175.361 201.7 174.961 201.5 174.961 201.7C174.961 201.8 175.261 202.1 175.662 202.2C176.062 202.3 176.463 202.3 176.563 202.2C176.563 202 176.162 201.9 175.762 201.8Z" fill="#D5BB95"/>
<path d="M175.261 203.6C174.961 203.5 174.66 203.4 174.66 203.5C174.66 203.6 174.86 203.9 175.161 203.9C175.461 204 175.762 203.9 175.862 203.8C175.862 203.7 175.561 203.7 175.261 203.6Z" fill="#E1B29B"/>
<path d="M176.863 203.3C176.963 203.3 176.963 203.3 176.863 203.3C176.963 203.5 176.863 203.5 176.863 203.5C176.863 203.5 176.062 203.5 175.361 203.3C174.66 203.1 173.959 202.7 173.959 202.7C173.959 202.7 173.859 202.6 173.959 202.6C173.959 202.6 174.059 202.5 174.059 202.6C174.059 202.6 174.76 203 175.461 203.2C176.062 203.3 176.863 203.3 176.863 203.3Z" fill="#E1B29B"/>
<path d="M168.752 196.8C168.752 197 168.652 197.2 168.652 197.3C168.652 197.4 168.652 197.4 168.552 197.5C167.55 200.4 168.552 204.2 171.255 205.4C171.255 205.4 171.255 205.4 171.356 205.4H171.456C172.057 205.7 174.26 206.5 175.261 205.8C176.563 205 177.965 203.3 178.265 202C178.666 200.7 178.465 200.3 178.666 199.8C178.766 199.4 179.367 198.2 179.567 197.6C180.368 195 179.367 191.8 176.162 190.9C171.456 189.6 169.553 193.5 168.752 196.8Z" fill="#FFBE9D"/>
<path d="M170.855 197.7C171.356 196.8 172.357 196.6 173.058 195.8C173.358 195.5 173.358 195.1 173.559 194.8C174.159 193.4 175.361 193.9 176.463 194.4C177.164 194.7 177.764 195.1 178.365 195.3C179.467 195.6 180.468 195.2 181.47 194.8C182.371 194.5 182.771 193.9 182.771 193C182.771 192.5 182.471 192 181.97 191.7C181.57 191.5 181.069 191.5 180.568 191.5C179.867 191.5 179.667 191.3 179.267 190.8C178.866 190.4 178.465 189.9 177.965 189.8C177.464 189.7 177.063 189.9 176.663 189.9C176.162 189.9 175.762 189.7 175.361 189.4C171.956 187.5 169.052 191.8 168.151 194.6C167.45 196.9 167.55 199.2 168.051 201.5L170.254 197.6L170.855 197.7Z" fill="#263238"/>
<path d="M170.154 197.2C169.753 197 169.052 196.4 168.752 197.8C168.351 200.2 169.753 200.4 169.753 200.4C169.753 200.1 169.753 199.6 169.854 199C170.254 198.9 169.854 198.5 169.954 198.2C169.954 198.2 169.954 198.1 169.954 198C170.054 197.8 170.054 197.5 170.154 197.2Z" fill="#FFBE9D"/>
<path d="M169.953 198C169.953 198 169.653 197.5 169.252 197.5C168.852 197.6 168.852 198.4 169.052 198.9C169.152 199.4 169.453 199.5 169.553 199.4C169.653 199.3 169.152 198.9 169.453 198.7C169.753 198.6 169.953 198.6 169.953 198.4V198Z" fill="#E1B29B"/>
<path d="M171.256 196.5C170.955 197.1 170.855 197.7 170.655 198.4C170.555 198.7 170.454 199.1 170.354 199.5C170.254 199.7 170.154 200.3 169.954 200.3C169.653 200.3 169.854 198.7 169.954 198.4C169.954 198.3 169.954 197 170.054 197C170.054 196.9 171.256 196.5 171.256 196.5Z" fill="#263238"/>
<path d="M173.058 206C171.556 205.7 170.054 203.7 169.753 202.9C169.453 202.1 169.653 200.4 169.653 200.4C169.653 200.4 169.253 200.3 169.052 199.8C169.052 199.8 168.852 200.5 169.052 200.9C169.253 201.2 169.453 201.3 169.453 201.5C169.453 201.7 169.153 204 170.154 205C171.055 205.9 173.058 206 173.058 206Z" fill="#E1B29B"/>
<path d="M151.428 245.4C151.428 245.4 151.328 264.5 151.328 266.6C151.328 268.7 151.628 296.4 152.229 304C152.229 304 154.232 304.9 157.036 304C157.036 304 159.739 279.4 160.04 273.4C160.24 267.8 161.342 256.2 161.342 256.2C161.342 256.2 161.942 264.2 161.842 266.8C161.742 269.4 161.742 294.7 163.144 303.5C163.144 303.5 165.748 304.2 167.951 303C167.951 303 169.152 273 169.553 267.1C170.054 261.2 170.354 244.1 170.354 244.1L152.029 243.4L151.428 245.4Z" fill="#2860A3"/>
<path d="M151.128 245.3C164.546 247.8 171.155 245.3 171.155 245.3C171.155 245.3 172.457 226.3 173.258 223.1C174.059 219.9 176.663 213.1 176.262 210.8C175.862 208.4 174.36 207.6 173.058 207.2C173.058 207.2 173.058 206.8 172.257 206.4L171.956 207.5L169.954 209.2L169.353 205.7L169.153 204.8L168.652 205.5C167.65 205.1 166.449 204.4 165.347 204C163.445 203.4 161.742 203.2 160.741 203.2C157.837 203.1 155.334 210.7 153.13 221.9C151.028 232.9 151.128 245.3 151.128 245.3Z" fill="url(#paint4_linear_219_7699)"/>
<path d="M173.158 206.2L171.856 207.4H171.956L172.357 205.9H172.657L173.158 206.2Z" fill="url(#paint5_linear_219_7699)"/>
<path d="M169.152 204.8L167.65 206.9C166.749 205.6 165.447 203.9 165.447 203.9L166.649 202.5L169.152 204.8Z" fill="url(#paint6_linear_219_7699)"/>
<path d="M173.058 207L172.958 208.4L171.856 207.5V207.4L173.158 206.2L173.058 207Z" fill="url(#paint7_linear_219_7699)"/>
<path d="M167.45 228.6C169.353 228 167.05 216.4 165.648 211.5C164.246 206.6 162.343 203.1 159.94 203.8C157.537 204.5 157.937 208.6 159.539 213.4C161.041 218.2 165.548 229.2 167.45 228.6Z" fill="#F0C6AE"/>
<path d="M190.282 229.4C190.482 227.6 177.264 225.7 173.559 225.3C169.854 224.9 165.848 224.7 165.648 226.7C165.447 228.7 169.353 229.4 173.058 229.8C176.763 230.3 190.081 231.2 190.282 229.4Z" fill="#F0C6AE"/>
<path d="M186.877 229C186.476 231.1 190.282 231.4 191.584 231.4C193.686 231.5 193.686 229.2 193.787 228.3C193.787 227.5 191.483 228.4 191.383 228.2C191.183 228 193.586 227.7 193.486 227C193.486 226.2 190.282 226.2 189.08 226.7C187.778 227.2 187.077 227.7 186.877 229Z" fill="#FFBE9D"/>
<path d="M160.641 203.1C157.637 203.3 156.735 206.2 157.637 209.6C158.538 213 163.344 226.6 165.548 228.9C167.851 231.1 183.472 231.6 184.574 231.4C185.675 231.2 185.775 230.8 185.775 230.8L187.077 230.7C187.077 230.7 188.079 228.4 186.877 227.4L185.375 227.1C185.375 227.1 184.774 226.4 183.773 226.3C182.771 226.2 169.553 224.5 169.553 224.5C169.553 224.5 166.849 213.1 165.848 209.9C164.947 206.7 163.745 202.9 160.641 203.1Z" fill="url(#paint8_linear_219_7699)"/>
<path d="M236.145 60.7001C236.746 58.1001 222.326 53.3001 216.117 51.8001C209.809 50.3001 204.601 50.2001 203.9 53.5001C203.199 56.7001 207.906 58.9001 214.215 60.2001C220.523 61.4001 235.544 63.3001 236.145 60.7001Z" fill="#F0C6AE"/>
<path d="M233.541 67.7C234.342 65.1 220.423 59.1 214.415 57C208.306 54.9 203.099 54.4 202.098 57.5C201.097 60.7 205.603 63.3 211.811 65.1C217.92 67.1 232.74 70.3 233.541 67.7Z" fill="#F0C6AE"/>
<path d="M232.74 94.3002L232.64 96.7002C232.64 97.0002 232.94 97.3002 233.241 97.3002H239.75C240.351 97.3002 240.551 96.6002 240.15 96.2002C239.149 95.5002 237.747 94.6002 236.545 94.4002C236.445 94.4002 235.544 74.0002 234.543 74.0002C233.641 74.0002 232.74 94.3002 232.74 94.3002Z" fill="#F0C6AE"/>
<path d="M234.342 95.1002C236.746 95.1002 237.447 73.8002 237.447 69.0002C237.447 64.2002 237.046 59.2002 234.342 59.2002C231.639 59.2002 231.238 64.2002 231.238 69.0002C231.238 73.9002 231.939 95.1002 234.342 95.1002Z" fill="#F0C6AE"/>
<path d="M232.64 94.7002V97.0002C232.64 97.2002 232.84 97.4002 233.041 97.4002H240.351C240.951 97.4002 241.252 96.6002 240.751 96.2002C239.65 95.4002 237.947 94.6002 236.746 94.0002C236.445 94.3002 236.045 95.1002 235.444 95.2002C234.943 95.3002 232.64 94.7002 232.64 94.7002Z" fill="#4A8FE2"/>
<path d="M227.132 100.7C227.132 100.7 227.132 100.8 227.132 101V103C227.132 103.2 227.633 104.1 228.034 104.3C229.636 105 232.84 104.6 232.94 104C233.041 103.4 232.139 102.2 231.438 101.3C230.938 100.7 230.637 100.3 230.637 100.3C230.637 100.3 229.736 80.6001 228.835 80.6001C227.833 80.7001 227.132 100.7 227.132 100.7Z" fill="#F0C6AE"/>
<path d="M228.735 101.6C231.138 101.8 233.341 80.7001 233.742 75.9001C234.142 71.1001 234.242 66.1001 231.539 65.8001C228.835 65.6001 228.034 70.5001 227.533 75.3001C227.233 80.2001 226.331 101.4 228.735 101.6Z" fill="#F0C6AE"/>
<path d="M227.132 101V103C227.132 103.2 227.633 104.1 228.034 104.3C229.636 105 232.84 104.6 232.94 104C233.041 103.4 232.139 102.2 231.438 101.3C231.138 101 229.335 101.2 229.035 101.3C228.735 101.4 228.034 101.9 227.934 101.8L227.132 101Z" fill="#4A8FE2"/>
<path d="M215.817 51.4002C215.817 51.4002 226.732 54.1002 232.24 56.8002C237.747 59.5002 238.148 61.5002 238.348 67.1002C238.548 72.7002 237.246 93.4002 237.246 93.4002C237.246 93.4002 235.945 94.5002 232.139 94.2002C232.139 94.2002 230.137 72.9002 230.137 68.2002C230.137 63.5002 206.804 60.3002 206.804 60.3002C206.804 60.3002 203.6 54.7002 207.305 52.8002C210.81 51.0002 215.817 51.4002 215.817 51.4002Z" fill="#21528C"/>
<path d="M200.796 54.2002C200.596 64.2002 208.106 66.7002 215.917 68.2002C223.728 69.7002 226.031 69.9002 226.231 70.2002C226.331 70.5002 226.231 100.4 226.231 100.4C226.231 100.4 228.735 101.9 231.238 99.8002C231.238 99.8002 234.342 78.1002 234.342 71.9002C234.242 65.8002 232.64 64.8002 230.537 63.7002C228.434 62.7002 211.811 52.5002 211.811 52.5002L200.796 54.2002Z" fill="#2860A3"/>
<path d="M202.899 5.10005C202.298 10 201.697 21.2001 201.697 21.2001H214.515L213.614 3.70005L208.907 1.30005L202.899 5.10005Z" fill="#263238"/>
<path d="M229.02 32.2363C227.904 33.1533 220.327 27.5107 217.294 24.8665C214.24 22.2938 212.386 19.8324 213.739 18.7512C215.091 17.67 217.932 19.3321 220.858 22.0226C223.783 24.7131 230.136 31.3192 229.02 32.2363Z" fill="#FFBE9D"/>
<path d="M200.996 54.0001L218.721 52.3001C218.721 52.3001 217.219 46.1001 217.219 43.3001C217.119 40.9001 216.217 33.5001 216.217 33.5001C216.217 33.5001 218.42 30.3001 218.32 28.6001C218.32 26.0001 214.014 19.0001 214.014 19.0001L207.706 17.1001L203.4 18.1001C200.696 18.6001 200.696 21.1001 200.696 23.8001C200.696 32.0001 204.101 37.5001 203.8 42.2001C203.7 45.1001 200.996 54.0001 200.996 54.0001Z" fill="#FFBE9D"/>
<path d="M197.892 41.0001C199.695 41.4001 203.099 31.3001 204.201 26.9001C205.302 22.5001 205.402 18.8001 203.3 18.3001C201.097 17.8001 199.594 21.1001 198.593 25.5001C197.592 30.0001 196.09 40.6001 197.892 41.0001Z" fill="#FFBE9D"/>
<path d="M205.703 11.7002V18.0002C205.703 18.0002 206.804 18.7002 209.508 18.7002C210.91 18.7002 211.311 18.0002 211.311 18.0002V16.0002L205.703 11.7002Z" fill="#FFBE9D"/>
<path d="M211.21 7.6001C211.811 7.8001 212.012 9.6001 211.911 9.6001C211.811 9.6001 211.511 8.1001 211.01 7.9001C210.509 7.7001 211.21 7.6001 211.21 7.6001Z" fill="#E1B29B"/>
<path d="M213.513 7.6001C213.113 7.9001 213.313 9.4001 213.313 9.5001C213.313 9.6001 213.513 7.8001 213.513 7.8001V7.6001Z" fill="#E1B29B"/>
<path d="M209.808 9.09985C209.808 9.39985 210.009 9.59985 210.309 9.59985C210.61 9.59985 210.81 9.39985 210.81 9.09985C210.81 8.79985 210.61 8.59985 210.309 8.59985C210.009 8.59985 209.808 8.89985 209.808 9.09985Z" fill="#434244"/>
<path d="M209.307 8.6999C209.507 8.5999 209.908 8.3999 210.309 8.3999C210.709 8.3999 211.009 8.4999 211.31 8.6999H209.307Z" fill="#434244"/>
<path d="M213.614 9.09985C213.614 9.39985 213.814 9.59985 214.114 9.59985C214.415 9.59985 214.615 9.39985 214.615 9.09985C214.615 8.79985 214.415 8.59985 214.114 8.59985C213.814 8.59985 213.614 8.89985 213.614 9.09985Z" fill="#434244"/>
<path d="M213.413 8.6999C213.614 8.5999 213.814 8.3999 214.114 8.3999C214.415 8.3999 214.615 8.4999 214.815 8.6999H213.413Z" fill="#434244"/>
<path d="M212.712 11.7C212.212 11.7 211.911 11.7 211.911 11.8C211.911 11.9 212.312 12.1 212.712 12.1C213.213 12.1 213.514 11.9 213.514 11.8C213.514 11.6 213.213 11.7 212.712 11.7Z" fill="#D5BB95"/>
<path d="M212.713 13.6C212.412 13.6 212.112 13.6 212.112 13.7C212.112 13.8 212.412 14 212.713 14C213.013 14 213.313 13.8 213.313 13.7C213.313 13.5 213.013 13.6 212.713 13.6Z" fill="#E1B29B"/>
<path d="M210.91 12.8C210.91 12.8 210.81 12.8 210.81 12.9C210.81 13 210.81 13 210.91 13C210.91 13 211.711 13.2 212.512 13.2C213.313 13.2 214.114 13 214.114 13C214.215 13 214.215 12.9 214.215 12.9C214.215 12.8 214.114 12.8 214.114 12.8C214.114 12.8 213.313 13 212.512 13C211.711 13 210.91 12.8 210.91 12.8Z" fill="#E1B29B"/>
<path d="M211.21 7.8C211.411 7.7 211.11 7.5 210.71 7.5C210.309 7.5 209.308 7.5 208.807 7.9C208.807 7.9 208.907 7.9 209.108 7.9C209.308 7.8 211.11 7.9 211.21 7.8Z" fill="#7A5E43"/>
<path d="M213.413 7.8C213.313 7.7 213.514 7.5 213.714 7.5C214.014 7.5 214.715 7.5 215.016 7.9C215.016 7.9 215.016 7.9 214.815 7.9C214.715 7.8 213.514 7.9 213.413 7.8Z" fill="#7A5E43"/>
<path d="M205.603 8.29997C205.603 8.49997 205.603 8.69996 205.603 8.89996C205.603 8.99996 205.603 8.99996 205.603 9.09997C205.503 12.3 205.803 14.8 209.508 16.1C210.209 16.2 212.512 16.7 213.414 15.7C214.415 14.6 215.316 11.6 215.316 10.6C215.316 9.59997 215.116 9.29996 215.116 8.69996C215.116 8.19996 215.316 6.79996 215.316 6.19997C215.316 5.19997 214.916 3.99997 214.515 3.09997C213.714 1.49997 212.212 0.499965 210.009 0.499965C204.802 0.399965 205.503 4.79997 205.603 8.29997Z" fill="#FFBE9D"/>
<path d="M208.807 3.30008C211.01 5.20008 214.815 5.10008 215.316 7.40008L215.216 8.40008C215.216 8.40008 215.717 7.10008 215.917 6.70008C216.217 5.80008 215.617 3.80008 214.515 2.30008C212.412 -0.399924 207.906 -0.999923 206.003 1.50008C206.003 1.50008 203.4 1.00008 203.099 5.00008C202.899 7.70008 205.903 17.3001 205.903 17.3001C205.903 17.3001 206.604 16.7001 206.804 15.7001C207.706 11.9001 208.607 5.20008 209.108 2.50008" fill="#263238"/>
<path d="M210.71 16.2C209.708 16.1 207.806 15.4 207.005 14.5C207.005 14.5 207.205 15.4 208.106 15.9C209.007 16.4 210.71 16.2 210.71 16.2Z" fill="#E1B29B"/>
<path d="M219.021 52.4L216.618 33.3C217.619 32.1 218.521 29.3 218.521 28C218.521 27.4 217.619 25.2 216.718 23.1C216.418 22.5 219.222 20.1 219.222 20.1C219.222 20.1 217.619 19.2 216.017 18.5C215.116 18.1 211.311 18 211.311 18C213.414 18.6 213.914 21.5 213.614 21.7C213.313 21.9 209.308 21.9 208.507 21.7C207.806 21.5 206.404 17.9 204.401 17.6C204.401 17.6 203.099 17.4 201.597 18.3C200.095 19.2 199.294 21.8 199.294 21.8C199.294 21.8 204.902 21.7 204.601 24.8C204.601 24.9 204.601 25 204.601 25C204.201 28.2 201.898 33.9 201.898 33.9C201.898 33.9 202.799 37.3 202.799 41.1C202.799 44.9 200.696 54.1 200.696 54.1L219.021 52.4Z" fill="url(#paint9_linear_219_7699)"/>
<path d="M219.422 40C219.422 38.4 207.505 38 204.1 38C200.696 38 197.191 38.3 197.191 40.1C197.191 41.9 200.796 42.2 204.1 42.1C207.505 42.1 219.422 41.6 219.422 40Z" fill="#FFBE9D"/>
<path d="M216.317 40.0001C216.217 41.9001 219.622 41.8001 220.724 41.7001C222.626 41.6001 224.729 40.0001 224.629 39.3001C224.629 38.6001 220.323 39.2001 220.123 39.0001C219.922 38.8001 222.025 38.4001 221.925 37.7001C221.825 37.0001 219.021 37.3001 217.92 37.9001C216.918 38.2001 216.418 38.8001 216.317 40.0001Z" fill="#FFBE9D"/>
<path d="M397.066 279.6C394.563 279.4 394.363 265.6 394.763 259.7C395.164 253.8 396.566 249.3 399.67 249.5C402.774 249.8 403.375 254.5 402.774 260.3C402.073 266.2 399.57 279.8 397.066 279.6Z" fill="#F0C6AE"/>
<path d="M409.083 305.2C406.98 306 399.37 288.1 397.667 284.1C395.965 280 394.563 275.6 396.866 274.7C399.169 273.8 401.272 277.9 402.975 282C404.677 286 411.186 304.3 409.083 305.2Z" fill="#FFBE9D"/>
<path d="M410.385 307.3C408.983 308.2 406.179 308.8 405.979 308.3C405.678 307.8 406.179 306.5 406.579 305.6C406.68 305.3 406.78 305.1 406.88 304.9C406.98 304.7 407.08 304.5 407.08 304.5C407.08 304.5 402.574 287 403.375 286.8C404.276 286.6 410.284 303.9 410.284 303.9C410.284 303.9 410.284 304 410.385 304.2L410.485 304.4L410.985 305.9C410.885 306.1 411.386 306.7 410.385 307.3Z" fill="#FFBE9D"/>
<path d="M410.385 307.3C408.983 308.2 406.179 308.8 405.979 308.3C405.678 307.8 406.179 306.5 406.579 305.6C406.68 305.3 406.78 305.1 406.88 304.9C406.98 305.1 407.08 305.3 407.18 305.6C407.381 306 407.581 306 408.382 305.5C408.983 305.1 409.884 304.7 410.385 304.5C410.385 304.5 410.885 305.6 411.086 306C411.186 306.1 411.386 306.7 410.385 307.3Z" fill="#2860A3"/>
<path d="M409.183 241.8C407.481 242.5 402.574 233.3 400.671 229.2C398.869 225.1 398.168 221.6 400.271 220.8C402.374 220 404.377 222.9 406.079 227.1C407.681 231.2 410.785 241.1 409.183 241.8Z" fill="#FFBE9D"/>
<path d="M399.67 258.9C398.168 258.2 402.774 247.5 404.176 244.5C405.578 241.5 407.28 238.4 408.883 239.2C410.485 239.9 409.283 243.2 407.881 246.2C406.479 249.1 401.072 259.5 399.67 258.9Z" fill="#FFBE9D"/>
<path d="M400.872 256.1C402.674 256.8 401.172 259.7 400.571 260.7C399.67 262.3 397.066 263.1 396.465 262.8C395.865 262.5 398.168 259 398.068 258.8C397.968 258.6 396.966 260.6 396.365 260.2C395.765 259.8 397.166 257.5 398.168 256.7C399.069 255.9 399.77 255.7 400.872 256.1Z" fill="#F0C6AE"/>
<path d="M396.265 305.8C396.365 306.3 396.365 306.8 396.065 307.2C395.464 308 394.363 307.8 393.662 307.4C393.361 307.2 393.161 307.1 393.061 306.7C392.66 305.5 392.56 304.1 392.36 302.8C392.059 300.7 391.759 298.7 391.459 296.6C391.158 294.6 390.958 292.7 390.758 290.7C390.758 290.4 390.357 288.1 390.858 288C391.058 288 391.358 288.7 391.358 288.8C391.959 290.2 392.36 291.6 392.76 293C393.361 294.9 393.862 296.8 394.363 298.7C394.863 300.4 395.264 302 395.664 303.7C395.865 304.3 396.165 305.1 396.265 305.8Z" fill="#FFBE9D"/>
<path d="M385.05 280.4C382.546 279.9 384.249 266.1 385.45 260.4C386.652 254.7 388.655 250.3 391.659 250.9C394.663 251.5 394.663 256.3 393.261 262C391.859 267.7 387.553 280.9 385.05 280.4Z" fill="#F0C6AE"/>
<path d="M395.164 306.5C393.061 307.2 386.552 288.8 385.15 284.6C383.848 280.4 382.747 275.9 385.15 275.2C387.553 274.5 389.256 278.8 390.658 282.9C391.959 287.2 397.267 305.9 395.164 306.5Z" fill="#FFBE9D"/>
<path d="M396.465 306.3L396.566 308.4C396.566 308.6 396.365 308.8 396.165 308.8L389.356 308.9C388.755 308.9 388.454 308.2 388.955 307.8C389.957 307.1 391.459 306.3 392.66 305.7C392.961 305.9 393.361 306.7 393.862 306.7C394.262 306.9 396.465 306.3 396.465 306.3Z" fill="#2860A3"/>
<path d="M367.325 228.6C368.427 227.4 377.539 234.7 380.043 236.9C382.546 239.1 385.05 241.5 383.848 242.8C382.646 244.1 379.843 242 377.339 239.9C374.836 237.8 366.224 229.8 367.325 228.6Z" fill="#FFBE9D"/>
<path d="M402.774 255L387.053 254.4L386.352 228.1L387.453 221.5L394.663 218.9L399.37 219.8C401.973 220.3 403.876 222.6 403.776 225.3L402.073 243.9L402.774 255Z" fill="#F0C6AE"/>
<path d="M396.466 215.6V220.9C396.466 220.9 395.364 221.6 392.66 221.6C391.258 221.6 390.858 220.9 390.858 220.9V218.9L396.466 215.6Z" fill="#F0C6AE"/>
<path d="M397.167 211.7C397.167 211.9 397.167 212.1 397.167 212.2C397.167 212.3 397.167 212.3 397.167 212.4C397.267 215.5 395.264 218.9 392.16 219.4C392.16 219.4 392.16 219.4 392.06 219.4H391.959C391.258 219.5 388.855 219.7 388.054 218.7C387.053 217.6 386.151 215.5 386.151 214.2C386.151 212.8 386.452 212.5 386.452 211.9C386.452 211.5 386.251 210.1 386.251 209.5C386.251 206.7 388.154 203.9 391.559 203.9C396.466 203.9 397.267 208.3 397.167 211.7Z" fill="#FFBE9D"/>
<path d="M387.053 221.3C385.951 222.3 385.15 224 384.95 227.6C384.85 228.6 384.149 231.3 385.451 234.6C387.854 240.5 386.352 247.7 386.352 247.7L402.574 248.3C402.574 248.3 402.875 237.6 403.475 234.2C405.178 223.9 403.475 220.6 400.571 219.8C396.165 218.6 388.054 220.3 387.053 221.3Z" fill="url(#paint10_linear_219_7699)"/>
<path d="M382.947 243.2C381.245 242.8 382.847 232.5 383.948 228.3C384.95 224 386.552 220.8 388.755 221.4C390.858 221.9 390.758 225.5 389.556 229.7C388.254 233.9 384.75 243.7 382.947 243.2Z" fill="#FFBE9D"/>
<path d="M364.021 225C364.421 224.5 366.725 226.7 367.426 227.3C367.526 227.4 367.626 227.4 367.626 227.4C367.626 227.4 367.626 227.4 367.626 227.3C367.526 226.9 366.624 225.7 367.025 225.3C367.526 224.9 369.328 226.5 369.929 227.6C369.929 227.7 370.029 227.7 370.029 227.8C370.53 228.8 370.63 229.6 369.929 230.5C368.828 232 366.324 229.9 365.523 229.1C364.822 228.5 364.321 227.5 364.021 226.6C363.921 226 363.821 225.3 364.021 225Z" fill="#FFBE9D"/>
<path d="M385.05 207.7C385.05 207.9 385.15 208 385.15 208.2C385.551 209.6 386.652 210.4 386.552 212C386.452 213.5 386.652 214.7 387.453 216C389.156 218.9 386.752 218.2 387.253 222.6C387.453 224.8 389.556 225.7 393.762 225.6C397.868 225.5 402.474 225.5 402.374 222.4C402.374 221.2 401.873 220.3 401.272 219.4C400.471 218.2 399.77 217.2 400.271 215.8C400.471 215.2 400.671 214.6 400.772 214C400.872 212.5 399.77 212 398.869 211C397.968 209.9 398.468 208.1 398.168 206.8C397.167 202.6 392.761 202.1 389.156 203.3C386.752 203.9 384.75 205.2 385.05 207.7Z" fill="#263238"/>
<path d="M402.774 244.1C402.674 247.4 405.178 251.8 405.578 255.2C406.379 261.9 401.673 274.4 401.673 275.2C401.673 276 406.079 286.9 407.781 293.5C407.781 293.5 406.78 294.9 402.173 295.7C402.173 295.7 395.064 280.6 394.463 277.2C393.762 273.8 394.563 244.8 394.563 244.8L402.774 244.1Z" fill="#2860A3"/>
<path d="M395.564 244.7H386.652C386.652 244.7 384.649 252.6 383.247 263.3C381.845 274 382.346 277.2 382.546 278.9C382.747 280.6 388.755 296.7 388.755 296.7C388.755 296.7 391.859 297.1 394.964 295.3C394.964 295.3 392.961 286.1 391.158 281.9C389.456 277.7 389.256 276.7 389.256 276.7C389.256 276.7 394.263 266.2 395.464 258.8C396.966 251.3 395.564 244.7 395.564 244.7Z" fill="#2860A3"/>
<path d="M244.058 22.9556C243.658 22.8556 243.057 23.2556 242.756 23.5556C242.456 23.8556 242.556 24.6556 242.756 25.3556C242.957 26.0556 244.559 25.6556 244.559 25.6556" fill="#FFBE9D"/>
<path d="M422.601 154.5C421.3 151.9 435.019 143.3 441.127 140C447.235 136.8 452.643 135.4 454.245 138.6C455.847 141.8 451.541 145.3 445.333 148.3C439.024 151.2 423.903 157.1 422.601 154.5Z" fill="#F0C6AE"/>
<path d="M459.052 168.6C456.148 168.9 453.144 153 452.343 146.1C451.542 139.3 452.243 133.7 455.747 133.4C459.252 133.1 460.955 138.4 461.455 145.3C461.956 152.1 461.856 168.3 459.052 168.6Z" fill="#F0C6AE"/>
<path d="M461.756 202.8C459.152 203 456.849 180.3 456.348 175.2C455.848 170.1 455.747 164.7 458.651 164.4C461.555 164.1 462.457 169.5 462.857 174.6C463.358 179.7 464.259 202.6 461.756 202.8Z" fill="#F0C6AE"/>
<path d="M463.358 201.7C463.358 201.7 463.358 201.8 463.358 202V204.2C463.358 204.4 462.156 205.4 461.655 205.6C459.853 206.4 457.049 205.9 456.949 205.3C456.849 204.7 458.651 202.5 458.651 202.4C459.152 201.8 459.452 201.2 459.452 201.2C459.452 201.2 460.454 179.5 461.455 179.5C462.557 179.7 463.358 201.7 463.358 201.7Z" fill="#FFBE9D"/>
<path d="M441.027 186.5C438.724 187.7 427.809 167.6 425.505 163C423.202 158.4 421.099 153.4 423.703 152.1C426.306 150.8 429.11 155.4 431.313 160C433.717 164.7 443.33 185.4 441.027 186.5Z" fill="#F0C6AE"/>
<path d="M442.229 184.8L443.43 187.2C443.631 187.5 443.43 187.9 443.13 188.1L436.621 191C436.02 191.3 434.718 190.6 435.119 190C435.92 188.8 437.422 187 438.323 186C438.423 185.9 430.412 165.8 431.414 165.3C432.215 165 442.229 184.8 442.229 184.8Z" fill="#FFBE9D"/>
<path d="M435.519 191.5L443.531 187.9C443.631 187.9 443.631 187.7 443.631 187.6L443.03 186.3C441.428 187 437.823 188.8 437.522 188.8C437.222 188.9 436.12 188.4 435.92 188.2C435.419 188.8 434.819 189.8 434.418 190.3C434.218 191.1 434.919 191.8 435.519 191.5Z" fill="#2860A3"/>
<path d="M461.655 205.6C462.156 205.4 463.358 204.4 463.358 204.2V203.1L461.655 204.1C460.454 202.8 458.251 202.5 457.65 203.6C457.149 204.3 456.849 205 456.949 205.4C457.049 205.9 459.853 206.4 461.655 205.6Z" fill="#2860A3"/>
<path d="M443.531 137.5C443.531 137.5 424.604 149.7 422.602 151.9C420.599 154.1 427.508 173.3 436.421 184.6C436.421 184.6 440.026 184 442.329 182.4L431.214 156L449.739 148.4C449.739 148.4 453.544 165 453.845 168C454.245 171 458.451 198.5 458.451 198.5C458.451 198.5 461.856 199.6 464.459 198.5L461.956 147.6L461.155 137.5H443.531Z" fill="url(#paint11_linear_219_7699)"/>
<path d="M432.515 128.1C431.013 126.9 437.422 117.6 440.526 113.8C443.631 110 446.635 107.7 448.437 109.2C450.24 110.7 448.437 114.1 445.233 117.8C442.028 121.4 434.017 129.3 432.515 128.1Z" fill="#FFBE9D"/>
<path d="M448.437 107.3C449.839 108.3 449.639 110.7 447.636 114.1C445.633 117.4 440.126 124.3 440.126 124.3L435.019 120.5C435.019 120.5 440.927 111.7 442.629 109.3C444.231 106.9 446.535 105.9 448.437 107.3Z" fill="url(#paint12_linear_219_7699)"/>
<path d="M460.654 140.3L442.83 139L443.731 114.9L445.633 106.9L454.446 104.9L459.352 106.2C462.156 106.9 463.959 109.6 463.658 112.5L460.354 132.7L460.654 140.3Z" fill="#F0C6AE"/>
<path d="M456.649 101.2L456.248 107C456.248 107 454.946 107.6 452.142 107.4C450.64 107.3 450.34 106.5 450.34 106.5L450.54 104.4L456.649 101.2Z" fill="#FFBE9D"/>
<path d="M450.24 95.6001C449.639 95.7001 449.238 97.7001 449.338 97.7001C449.438 97.7001 449.939 96.2001 450.44 96.0001C450.941 95.7001 450.24 95.6001 450.24 95.6001Z" fill="#E1B29B"/>
<path d="M448.037 95.5C448.337 95.9 447.937 97.3 447.937 97.5C447.937 97.6 447.937 95.8 447.937 95.8L448.037 95.5Z" fill="#E1B29B"/>
<path d="M452.643 95.8V96L450.139 95.8C450.139 95.8 450.039 95.6 450.139 95.5C450.64 95.2 452.643 95.8 452.643 95.8Z" fill="#434244"/>
<path d="M446.234 95.3001V95.5001L447.936 95.6001C447.936 95.6001 448.037 95.4001 447.936 95.3001C447.636 95.0001 446.234 95.3001 446.234 95.3001Z" fill="#434244"/>
<path d="M451.642 97.3C451.642 97.6 451.341 97.8 451.141 97.8C450.84 97.8 450.64 97.5 450.64 97.3C450.64 97 450.941 96.8 451.141 96.8C451.441 96.8 451.642 97 451.642 97.3Z" fill="#434244"/>
<path d="M452.242 96.9C452.042 96.7 451.642 96.6 451.241 96.5C450.841 96.5 450.44 96.6 450.24 96.7L452.242 96.9Z" fill="#434244"/>
<path d="M447.536 97C447.536 97.3 447.235 97.5 447.035 97.5C446.734 97.5 446.534 97.2 446.534 97C446.534 96.7 446.835 96.5 447.035 96.5C447.335 96.5 447.536 96.7 447.536 97Z" fill="#434244"/>
<path d="M447.836 96.6C447.636 96.5 447.435 96.3 447.135 96.3C446.835 96.3 446.634 96.4 446.434 96.5L447.836 96.6Z" fill="#434244"/>
<path d="M448.337 99.5C448.838 99.5 449.238 99.5 449.238 99.7C449.238 99.8 448.838 100 448.337 99.9C447.836 99.9 447.436 99.7 447.436 99.5C447.436 99.4 447.836 99.5 448.337 99.5Z" fill="#D5BB95"/>
<path d="M448.237 101.6C448.637 101.6 448.938 101.6 448.938 101.7C448.938 101.8 448.637 102 448.237 102C447.836 102 447.636 101.7 447.636 101.6C447.536 101.5 447.836 101.5 448.237 101.6Z" fill="#E1B29B"/>
<path d="M446.634 100.7C446.634 100.7 446.534 100.7 446.534 100.8C446.534 100.9 446.534 100.9 446.634 100.9C446.634 100.9 447.435 101.2 448.337 101.3C449.138 101.4 450.039 101.2 450.039 101.2C450.139 101.2 450.139 101.1 450.139 101.1C450.139 101 450.039 101 450.039 101C450.039 101 449.138 101.2 448.337 101.1C447.435 101 446.634 100.7 446.634 100.7Z" fill="#E1B29B"/>
<path d="M457.549 97.0002C457.549 97.2002 457.549 97.4002 457.449 97.6002C457.449 97.7002 457.449 97.7002 457.449 97.8002C457.349 101.2 454.846 104.7 451.541 105C451.541 105 451.541 105 451.441 105H451.341C450.64 105 448.036 105.1 447.235 104C446.234 102.7 445.433 100.4 445.533 98.9002C445.633 97.4002 445.933 97.0002 446.034 96.4002C446.034 95.9002 445.933 94.4002 445.933 93.8002C446.134 90.7002 448.437 87.9002 452.042 88.1002C457.549 88.5002 458.05 93.3002 457.549 97.0002Z" fill="#FFBE9D"/>
<path d="M455.046 97.1001C454.846 95.8001 453.945 95.3001 453.845 94.5001C453.745 93.7001 453.745 92.7001 453.544 91.9001C453.344 91.1001 450.54 91.1001 449.639 91.2001C448.738 91.3001 446.835 91.3001 446.134 90.8001C445.433 90.4001 444.932 88.5001 445.733 87.7001L446.034 88.1001C446.034 88.1001 447.436 86.7001 448.838 86.6001L448.537 87.3001C448.537 87.3001 452.443 87.1001 453.845 87.4001C455.247 87.7001 456.448 89.0001 456.448 89.0001C456.448 89.0001 458.151 88.5001 458.751 90.3001C459.052 91.3001 460.554 96.2001 456.649 102.1L455.847 97.2001L455.046 97.1001Z" fill="#263238"/>
<path d="M455.947 96.9002C456.348 96.8002 457.449 96.5002 457.149 98.1002C456.648 100.7 455.146 100.4 455.146 100.4C455.246 100 455.446 99.5002 455.547 98.9002C455.146 98.6002 455.747 98.3002 455.747 98.0002C455.747 98.0002 455.747 97.9002 455.747 97.8002C455.847 97.5002 455.947 97.2002 455.947 96.9002Z" fill="#FFBE9D"/>
<path d="M455.847 97.9003C455.847 97.9003 456.348 97.5003 456.749 97.7003C457.149 97.9003 456.749 98.7003 456.448 99.2003C456.148 99.7003 455.847 99.7003 455.747 99.6003C455.747 99.5003 456.348 99.2003 456.148 99.0003C455.948 98.7003 455.747 98.7003 455.747 98.6003C455.747 98.3003 455.847 97.9003 455.847 97.9003Z" fill="#E1B29B"/>
<path d="M455.046 95.7002C455.146 96.7002 454.746 100.1 454.746 100.1H455.146L456.148 96.5002L455.046 95.7002Z" fill="#263238"/>
<path d="M449.539 104.9C451.241 105.1 453.544 103.6 454.145 102.9C454.846 102.2 455.247 100.3 455.247 100.3C455.247 100.3 455.747 100.4 456.148 99.9001C456.148 99.9001 456.048 100.7 455.747 101C455.447 101.3 455.147 101.3 455.147 101.5C455.147 101.7 454.546 104.3 453.044 104.9C451.642 105.6 449.539 104.9 449.539 104.9Z" fill="#E1B29B"/>
<path d="M449.539 105.1L450.24 106.7V106.6L450.34 105.1L450.04 105L449.539 105.1Z" fill="url(#paint13_linear_219_7699)"/>
<path d="M453.645 105.2L454.245 107.6C455.547 106.7 457.249 105.7 457.249 105.7L456.448 104.1L453.645 105.2Z" fill="url(#paint14_linear_219_7699)"/>
<path d="M449.339 105.9L448.938 107.2L450.24 106.7L449.539 105.1L449.339 105.9Z" fill="url(#paint15_linear_219_7699)"/>
<path d="M461.055 106.6C459.252 105.9 457.249 105.7 457.249 105.7C457.249 105.7 455.547 106.7 454.245 107.6L453.644 105.2L451.241 109.3L450.24 106.7V106.8L448.938 107.3L449.338 106L445.433 106.9C445.433 106.9 443.731 109.9 443.23 113.7C443.13 114.8 442.83 117.9 442.629 121.8C442.529 123.5 441.027 139.7 440.626 139.5C450.54 144.6 462.056 148.6 462.056 148.6C462.056 148.6 460.954 133 463.858 112.5C464.459 107.7 461.055 106.6 461.055 106.6Z" fill="url(#paint16_linear_219_7699)"/>
<path d="M449.338 130.9C447.636 130 451.942 119.5 454.145 115.2C456.348 110.9 458.852 107.9 460.954 109C463.057 110.1 461.956 113.9 459.653 118.1C457.249 122.3 451.041 131.8 449.338 130.9Z" fill="#FFBE9D"/>
<path d="M429.611 136.5C429.011 134.9 440.827 130.1 444.232 128.9C447.636 127.7 451.241 126.7 451.942 128.5C452.643 130.3 449.138 131.9 445.734 133.1C442.329 134.3 430.212 138.2 429.611 136.5Z" fill="#FFBE9D"/>
<path d="M432.615 135.3C433.417 137.2 430.012 138.3 428.81 138.6C426.908 139.1 424.905 137.5 424.705 136.8C424.504 136 428.51 135.6 428.61 135.4C428.71 135.2 426.207 135.7 426.106 135C426.006 134.3 428.91 133.6 430.112 133.7C431.314 133.8 432.115 134.2 432.615 135.3Z" fill="#FFBE9D"/>
<path d="M461.455 106.9C463.057 107.7 463.258 110.1 461.856 113.7C460.454 117.3 456.248 125.1 456.248 125.1L450.54 122.3C450.54 122.3 454.846 112.6 456.048 110C457.249 107.3 459.352 105.8 461.455 106.9Z" fill="url(#paint17_linear_219_7699)"/>
<path d="M468.865 307C468.364 307 467.964 306.7 467.864 306.2L439.725 172.8C439.625 172.3 439.825 171.8 440.326 171.6C440.827 171.3 441.527 171.5 441.728 172.1C441.728 172.2 441.828 172.3 441.828 172.4L469.967 305.8C470.067 306.4 469.766 306.9 469.166 307.1C469.065 306.9 468.965 307 468.865 307Z" fill="#BABCBE"/>
<path d="M486.289 307C485.789 307 485.388 306.7 485.288 306.2L457.349 173.6H440.726C440.126 173.6 439.625 173.1 439.625 172.5C439.625 171.9 440.126 171.4 440.726 171.4H458.151C458.551 171.4 458.952 171.6 459.052 172C459.052 172.1 459.152 172.2 459.152 172.3L487.291 305.7C487.391 306.3 487.09 306.8 486.49 307C486.49 306.9 486.389 307 486.289 307Z" fill="#BABCBE"/>
<path d="M461.655 190H444.231C443.631 190 443.13 189.5 443.13 188.9C443.13 188.3 443.631 187.8 444.231 187.8H461.655C462.256 187.8 462.757 188.3 462.757 188.9C462.757 189.5 462.256 190 461.655 190Z" fill="#BABCBE"/>
<path d="M465.16 206.7H447.736C447.135 206.7 446.635 206.2 446.635 205.6C446.635 205 447.135 204.5 447.736 204.5H465.16C465.761 204.5 466.262 205 466.262 205.6C466.262 206.2 465.761 206.7 465.16 206.7Z" fill="#BABCBE"/>
<path d="M468.665 223.4H451.241C450.64 223.4 450.14 222.9 450.14 222.3C450.14 221.7 450.64 221.2 451.241 221.2H468.665C469.266 221.2 469.767 221.7 469.767 222.3C469.767 222.9 469.266 223.4 468.665 223.4Z" fill="#BABCBE"/>
<path d="M472.27 240.1H454.846C454.245 240.1 453.744 239.6 453.744 239C453.744 238.4 454.245 237.9 454.846 237.9H472.27C472.871 237.9 473.371 238.4 473.371 239C473.271 239.6 472.771 240.1 472.27 240.1Z" fill="#BABCBE"/>
<path d="M475.775 256.8H458.351C457.75 256.8 457.249 256.3 457.249 255.7C457.249 255.1 457.75 254.6 458.351 254.6H475.775C476.376 254.6 476.876 255.1 476.876 255.7C476.776 256.4 476.376 256.8 475.775 256.8Z" fill="#BABCBE"/>
<path d="M479.28 273.5H461.856C461.255 273.5 460.754 273 460.754 272.4C460.754 271.8 461.255 271.3 461.856 271.3H479.28C479.88 271.3 480.381 271.8 480.381 272.4C480.381 273.1 479.88 273.5 479.28 273.5Z" fill="#BABCBE"/>
<path d="M482.785 290.2H465.361C464.76 290.2 464.259 289.7 464.259 289.1C464.259 288.5 464.76 288 465.361 288H482.785C483.385 288 483.886 288.5 483.886 289.1C483.886 289.8 483.385 290.2 482.785 290.2Z" fill="#BABCBE"/>
<path d="M430.012 307C429.912 307 429.912 307 429.811 307C429.211 306.9 428.91 306.3 429.01 305.7L456.849 173.5C447.135 173.5 443.13 173.5 441.628 173.5L413.689 306.1C413.589 306.7 412.988 307 412.387 306.9C411.787 306.8 411.486 306.2 411.586 305.6L439.725 172.2C439.725 172.1 439.725 172 439.825 171.9C440.126 171.2 440.126 171.2 447.536 171.2C451.141 171.2 455.247 171.2 457.149 171.2H458.251C458.851 171.2 459.352 171.7 459.352 172.3C459.352 172.4 459.352 172.5 459.352 172.5L431.213 305.9C431.013 306.6 430.512 307 430.012 307Z" fill="#BABCBE"/>
<path d="M454.746 190H437.322C436.721 190 436.22 189.5 436.22 188.9C436.22 188.3 436.721 187.8 437.322 187.8H454.746C455.347 187.8 455.848 188.3 455.848 188.9C455.747 189.5 455.347 190 454.746 190Z" fill="#BABCBE"/>
<path d="M451.141 206.7H433.717C433.116 206.7 432.615 206.2 432.615 205.6C432.615 205 433.116 204.5 433.717 204.5H451.141C451.742 204.5 452.243 205 452.243 205.6C452.243 206.2 451.742 206.7 451.141 206.7Z" fill="#BABCBE"/>
<path d="M447.636 223.4H430.212C429.611 223.4 429.111 222.9 429.111 222.3C429.111 221.7 429.611 221.2 430.212 221.2H447.636C448.237 221.2 448.738 221.7 448.738 222.3C448.738 222.9 448.237 223.4 447.636 223.4Z" fill="#BABCBE"/>
<path d="M444.131 240.1H426.707C426.106 240.1 425.606 239.6 425.606 239C425.606 238.4 426.106 237.9 426.707 237.9H444.131C444.732 237.9 445.233 238.4 445.233 239C445.233 239.6 444.732 240.1 444.131 240.1Z" fill="#BABCBE"/>
<path d="M440.627 256.8H423.203C422.602 256.8 422.101 256.3 422.101 255.7C422.101 255.1 422.602 254.6 423.203 254.6H440.627C441.227 254.6 441.728 255.1 441.728 255.7C441.628 256.4 441.227 256.8 440.627 256.8Z" fill="#BABCBE"/>
<path d="M437.122 273.5H419.698C419.097 273.5 418.596 273 418.596 272.4C418.596 271.8 419.097 271.3 419.698 271.3H437.122C437.723 271.3 438.223 271.8 438.223 272.4C438.123 273.1 437.723 273.5 437.122 273.5Z" fill="#BABCBE"/>
<path d="M433.617 290.2H416.193C415.592 290.2 415.091 289.7 415.091 289.1C415.091 288.5 415.592 288 416.193 288H433.617C434.218 288 434.718 288.5 434.718 289.1C434.618 289.8 434.118 290.2 433.617 290.2Z" fill="#BABCBE"/>
</g>
<defs>
<linearGradient id="paint0_linear_219_7699" x1="285.562" y1="-76.471" x2="515.482" y2="208.112" gradientUnits="userSpaceOnUse">
<stop offset="0.0353535" stop-color="#333EA4"/>
<stop offset="1" stop-color="#6F7DF9"/>
</linearGradient>
<linearGradient id="paint1_linear_219_7699" x1="426.479" y1="-75.2124" x2="211.126" y2="106.82" gradientUnits="userSpaceOnUse">
<stop offset="0.0353535" stop-color="#1968B3"/>
<stop offset="1" stop-color="#4C97DD"/>
</linearGradient>
<linearGradient id="paint2_linear_219_7699" x1="169.76" y1="222.982" x2="169.034" y2="235.9" gradientUnits="userSpaceOnUse">
<stop offset="0.0353535" stop-color="#318BE0"/>
<stop offset="1" stop-color="#4C97DD"/>
</linearGradient>
<linearGradient id="paint3_linear_219_7699" x1="182.04" y1="94.0251" x2="364.122" y2="352.044" gradientUnits="userSpaceOnUse">
<stop offset="0.0353535" stop-color="#333EA4"/>
<stop offset="1" stop-color="#6F7DF9"/>
</linearGradient>
<linearGradient id="paint4_linear_219_7699" x1="162.509" y1="194.714" x2="142.473" y2="241.727" gradientUnits="userSpaceOnUse">
<stop offset="0.0353535" stop-color="#1968B3"/>
<stop offset="1" stop-color="#4C97DD"/>
</linearGradient>
<linearGradient id="paint5_linear_219_7699" x1="172.507" y1="207.264" x2="171.871" y2="208.269" gradientUnits="userSpaceOnUse">
<stop offset="0.0353535" stop-color="#1F72C1"/>
<stop offset="1" stop-color="#4C97DD"/>
</linearGradient>
<linearGradient id="paint6_linear_219_7699" x1="165.955" y1="206.697" x2="165.464" y2="209.606" gradientUnits="userSpaceOnUse">
<stop offset="0.0353535" stop-color="#318BE0"/>
<stop offset="1" stop-color="#4C97DD"/>
</linearGradient>
<linearGradient id="paint7_linear_219_7699" x1="172.035" y1="208.299" x2="171.695" y2="209.713" gradientUnits="userSpaceOnUse">
<stop offset="0.0353535" stop-color="#318BE0"/>
<stop offset="1" stop-color="#4C97DD"/>
</linearGradient>
<linearGradient id="paint8_linear_219_7699" x1="161.438" y1="230.135" x2="158.906" y2="249.069" gradientUnits="userSpaceOnUse">
<stop offset="0.0353535" stop-color="#318BE0"/>
<stop offset="1" stop-color="#4C97DD"/>
</linearGradient>
<linearGradient id="paint9_linear_219_7699" x1="208.303" y1="10.4101" x2="190.604" y2="49.3037" gradientUnits="userSpaceOnUse">
<stop offset="0.0353535" stop-color="#1968B3"/>
<stop offset="1" stop-color="#4C97DD"/>
</linearGradient>
<linearGradient id="paint10_linear_219_7699" x1="393.479" y1="213.71" x2="381.419" y2="246.435" gradientUnits="userSpaceOnUse">
<stop offset="0.0353535" stop-color="#1968B3"/>
<stop offset="1" stop-color="#4C97DD"/>
</linearGradient>
<linearGradient id="paint11_linear_219_7699" x1="428.039" y1="196.157" x2="419.73" y2="236.24" gradientUnits="userSpaceOnUse">
<stop offset="0.0353535" stop-color="#579EE2"/>
<stop offset="1" stop-color="#4C97DD"/>
</linearGradient>
<linearGradient id="paint12_linear_219_7699" x1="436.982" y1="123.488" x2="434.943" y2="135.123" gradientUnits="userSpaceOnUse">
<stop offset="0.0353535" stop-color="#318BE0"/>
<stop offset="1" stop-color="#4C97DD"/>
</linearGradient>
<linearGradient id="paint13_linear_219_7699" x1="449.649" y1="106.622" x2="449.329" y2="107.681" gradientUnits="userSpaceOnUse">
<stop offset="0.0353535" stop-color="#318BE0"/>
<stop offset="1" stop-color="#4C97DD"/>
</linearGradient>
<linearGradient id="paint14_linear_219_7699" x1="454.139" y1="107.439" x2="453.816" y2="109.774" gradientUnits="userSpaceOnUse">
<stop offset="0.0353535" stop-color="#318BE0"/>
<stop offset="1" stop-color="#4C97DD"/>
</linearGradient>
<linearGradient id="paint15_linear_219_7699" x1="449.116" y1="107.103" x2="448.805" y2="108.46" gradientUnits="userSpaceOnUse">
<stop offset="0.0353535" stop-color="#318BE0"/>
<stop offset="1" stop-color="#4C97DD"/>
</linearGradient>
<linearGradient id="paint16_linear_219_7699" x1="443.821" y1="146.601" x2="436.515" y2="174.172" gradientUnits="userSpaceOnUse">
<stop offset="0.0353535" stop-color="#1968B3"/>
<stop offset="1" stop-color="#4C97DD"/>
</linearGradient>
<linearGradient id="paint17_linear_219_7699" x1="452.22" y1="124.245" x2="449.62" y2="136.306" gradientUnits="userSpaceOnUse">
<stop offset="0.0353535" stop-color="#318BE0"/>
<stop offset="1" stop-color="#4C97DD"/>
</linearGradient>
<clipPath id="clip0_219_7699">
<rect width="501" height="311" fill="white"/>
</clipPath>
</defs>
</svg>
