<?xml version="1.0" encoding="UTF-8"?>
<svg xmlns="http://www.w3.org/2000/svg" xmlns:xlink="http://www.w3.org/1999/xlink" width="501px" height="310px" viewBox="0 0 500 310" version="1.1">
<defs>
<linearGradient id="linear0" gradientUnits="userSpaceOnUse" x1="433.472" y1="-50.9256" x2="282.032" y2="32.5343" gradientTransform="matrix(0.998004,0,0,0.901163,0,0)">
<stop offset="0.0353535" style="stop-color:rgb(9.803922%,40.784314%,70.196078%);stop-opacity:1;"/>
<stop offset="1" style="stop-color:rgb(29.803922%,59.215686%,86.666667%);stop-opacity:1;"/>
</linearGradient>
<linearGradient id="linear1" gradientUnits="userSpaceOnUse" x1="403.943" y1="101.715" x2="341.093" y2="149.658" gradientTransform="matrix(0.998004,0,0,0.901163,0,0)">
<stop offset="0.0353535" style="stop-color:rgb(9.803922%,40.784314%,70.196078%);stop-opacity:1;"/>
<stop offset="1" style="stop-color:rgb(29.803922%,59.215686%,86.666667%);stop-opacity:1;"/>
</linearGradient>
<linearGradient id="linear2" gradientUnits="userSpaceOnUse" x1="386.102" y1="-176.587" x2="232.182" y2="-128.667" gradientTransform="matrix(0.998004,0,0,0.901163,0,0)">
<stop offset="0.0353535" style="stop-color:rgb(9.803922%,40.784314%,70.196078%);stop-opacity:1;"/>
<stop offset="1" style="stop-color:rgb(29.803922%,59.215686%,86.666667%);stop-opacity:1;"/>
</linearGradient>
<linearGradient id="linear3" gradientUnits="userSpaceOnUse" x1="347.535" y1="20.4272" x2="297.93" y2="30.2587" gradientTransform="matrix(0.998004,0,0,0.901163,0,0)">
<stop offset="0.0353535" style="stop-color:rgb(9.803922%,40.784314%,70.196078%);stop-opacity:1;"/>
<stop offset="1" style="stop-color:rgb(29.803922%,59.215686%,86.666667%);stop-opacity:1;"/>
</linearGradient>
<linearGradient id="linear4" gradientUnits="userSpaceOnUse" x1="111.972" y1="-53.6835" x2="18.7505" y2="76.9641" gradientTransform="matrix(0.998004,0,0,0.901163,0,0)">
<stop offset="0.0353535" style="stop-color:rgb(9.803922%,40.784314%,70.196078%);stop-opacity:1;"/>
<stop offset="1" style="stop-color:rgb(29.803922%,59.215686%,86.666667%);stop-opacity:1;"/>
</linearGradient>
<linearGradient id="linear5" gradientUnits="userSpaceOnUse" x1="102.537" y1="-22.5319" x2="33.875" y2="61.3676" gradientTransform="matrix(0.998004,0,0,0.901163,0,0)">
<stop offset="0.0353535" style="stop-color:rgb(9.803922%,40.784314%,70.196078%);stop-opacity:1;"/>
<stop offset="1" style="stop-color:rgb(29.803922%,59.215686%,86.666667%);stop-opacity:1;"/>
</linearGradient>
<linearGradient id="linear6" gradientUnits="userSpaceOnUse" x1="437.792" y1="-157.765" x2="237.191" y2="286.315" gradientTransform="matrix(0.998004,0,0,0.901163,0,0)">
<stop offset="0.0353535" style="stop-color:rgb(75.686275%,90.588235%,100%);stop-opacity:1;"/>
<stop offset="1" style="stop-color:rgb(40%,66.27451%,87.45098%);stop-opacity:1;"/>
</linearGradient>
<linearGradient id="linear7" gradientUnits="userSpaceOnUse" x1="102.813" y1="-122.819" x2="-96.4827" y2="-39.093" gradientTransform="matrix(0.998004,0,0,0.901163,0,0)">
<stop offset="0.0353535" style="stop-color:rgb(75.686275%,90.588235%,100%);stop-opacity:1;"/>
<stop offset="1" style="stop-color:rgb(40%,66.27451%,87.45098%);stop-opacity:1;"/>
</linearGradient>
<linearGradient id="linear8" gradientUnits="userSpaceOnUse" x1="413.867" y1="-122.819" x2="214.572" y2="-39.093" gradientTransform="matrix(0.998004,0,0,0.901163,0,0)">
<stop offset="0.0353535" style="stop-color:rgb(75.686275%,90.588235%,100%);stop-opacity:1;"/>
<stop offset="1" style="stop-color:rgb(40%,66.27451%,87.45098%);stop-opacity:1;"/>
</linearGradient>
<linearGradient id="linear9" gradientUnits="userSpaceOnUse" x1="441.639" y1="169.916" x2="407.879" y2="368.548" gradientTransform="matrix(0.998004,0,0,0.901163,0,0)">
<stop offset="0.0353535" style="stop-color:rgb(75.686275%,90.588235%,100%);stop-opacity:1;"/>
<stop offset="1" style="stop-color:rgb(40%,66.27451%,87.45098%);stop-opacity:1;"/>
</linearGradient>
<linearGradient id="linear10" gradientUnits="userSpaceOnUse" x1="438.507" y1="175.791" x2="406.608" y2="367.763" gradientTransform="matrix(0.998004,0,0,0.901163,0,0)">
<stop offset="0.0353535" style="stop-color:rgb(75.686275%,90.588235%,100%);stop-opacity:1;"/>
<stop offset="1" style="stop-color:rgb(40%,66.27451%,87.45098%);stop-opacity:1;"/>
</linearGradient>
<linearGradient id="linear11" gradientUnits="userSpaceOnUse" x1="250.315" y1="186.125" x2="228.33" y2="298.189" gradientTransform="matrix(0.998004,0,0,0.901163,0,0)">
<stop offset="0.0353535" style="stop-color:rgb(75.686275%,90.588235%,100%);stop-opacity:1;"/>
<stop offset="1" style="stop-color:rgb(40%,66.27451%,87.45098%);stop-opacity:1;"/>
</linearGradient>
<linearGradient id="linear12" gradientUnits="userSpaceOnUse" x1="402.046" y1="186.125" x2="380.062" y2="298.189" gradientTransform="matrix(0.998004,0,0,0.901163,0,0)">
<stop offset="0.0353535" style="stop-color:rgb(75.686275%,90.588235%,100%);stop-opacity:1;"/>
<stop offset="1" style="stop-color:rgb(40%,66.27451%,87.45098%);stop-opacity:1;"/>
</linearGradient>
<linearGradient id="linear13" gradientUnits="userSpaceOnUse" x1="109.38" y1="329.701" x2="108.056" y2="346.629" gradientTransform="matrix(0.998004,0,0,0.901163,0,0)">
<stop offset="0.0353535" style="stop-color:rgb(75.686275%,90.588235%,100%);stop-opacity:1;"/>
<stop offset="1" style="stop-color:rgb(40%,66.27451%,87.45098%);stop-opacity:1;"/>
</linearGradient>
<linearGradient id="linear14" gradientUnits="userSpaceOnUse" x1="410.939" y1="329.701" x2="409.615" y2="346.629" gradientTransform="matrix(0.998004,0,0,0.901163,0,0)">
<stop offset="0.0353535" style="stop-color:rgb(75.686275%,90.588235%,100%);stop-opacity:1;"/>
<stop offset="1" style="stop-color:rgb(40%,66.27451%,87.45098%);stop-opacity:1;"/>
</linearGradient>
<linearGradient id="linear15" gradientUnits="userSpaceOnUse" x1="253.696" y1="135.643" x2="239.154" y2="165.471" gradientTransform="matrix(0.998004,0,0,0.901163,0,0)">
<stop offset="0.0353535" style="stop-color:rgb(9.803922%,40.784314%,70.196078%);stop-opacity:1;"/>
<stop offset="1" style="stop-color:rgb(29.803922%,59.215686%,86.666667%);stop-opacity:1;"/>
</linearGradient>
<linearGradient id="linear16" gradientUnits="userSpaceOnUse" x1="259.502" y1="142.826" x2="245.689" y2="152.697" gradientTransform="matrix(0.998004,0,0,0.901163,0,0)">
<stop offset="0.0353535" style="stop-color:rgb(9.803922%,40.784314%,70.196078%);stop-opacity:1;"/>
<stop offset="1" style="stop-color:rgb(29.803922%,59.215686%,86.666667%);stop-opacity:1;"/>
</linearGradient>
<linearGradient id="linear17" gradientUnits="userSpaceOnUse" x1="317.253" y1="134.323" x2="302.831" y2="164.469" gradientTransform="matrix(0.998004,0,0,0.901163,0,0)">
<stop offset="0.0353535" style="stop-color:rgb(9.803922%,40.784314%,70.196078%);stop-opacity:1;"/>
<stop offset="1" style="stop-color:rgb(29.803922%,59.215686%,86.666667%);stop-opacity:1;"/>
</linearGradient>
<linearGradient id="linear18" gradientUnits="userSpaceOnUse" x1="312.583" y1="141.864" x2="298.332" y2="153.822" gradientTransform="matrix(0.998004,0,0,0.901163,0,0)">
<stop offset="0.0353535" style="stop-color:rgb(9.803922%,40.784314%,70.196078%);stop-opacity:1;"/>
<stop offset="1" style="stop-color:rgb(29.803922%,59.215686%,86.666667%);stop-opacity:1;"/>
</linearGradient>
<linearGradient id="linear19" gradientUnits="userSpaceOnUse" x1="283.332" y1="123.748" x2="258.931" y2="203.572" gradientTransform="matrix(0.998004,0,0,0.901163,0,0)">
<stop offset="0.0353535" style="stop-color:rgb(9.803922%,40.784314%,70.196078%);stop-opacity:1;"/>
<stop offset="1" style="stop-color:rgb(29.803922%,59.215686%,86.666667%);stop-opacity:1;"/>
</linearGradient>
<linearGradient id="linear20" gradientUnits="userSpaceOnUse" x1="253.136" y1="114.523" x2="333.475" y2="248.994" gradientTransform="matrix(0.998004,0,0,0.901163,0,0)">
<stop offset="0.0353535" style="stop-color:rgb(20%,24.313725%,64.313725%);stop-opacity:1;"/>
<stop offset="1" style="stop-color:rgb(43.529412%,49.019608%,97.647059%);stop-opacity:1;"/>
</linearGradient>
<linearGradient id="linear21" gradientUnits="userSpaceOnUse" x1="77.9177" y1="128.431" x2="158.254" y2="262.909" gradientTransform="matrix(0.998004,0,0,0.901163,0,0)">
<stop offset="0.0353535" style="stop-color:rgb(20%,24.313725%,64.313725%);stop-opacity:1;"/>
<stop offset="1" style="stop-color:rgb(43.529412%,49.019608%,97.647059%);stop-opacity:1;"/>
</linearGradient>
<linearGradient id="linear22" gradientUnits="userSpaceOnUse" x1="158.369" y1="222.088" x2="141.332" y2="258.771" gradientTransform="matrix(0.998004,0,0,0.901163,0,0)">
<stop offset="0.0353535" style="stop-color:rgb(9.803922%,40.784314%,70.196078%);stop-opacity:1;"/>
<stop offset="1" style="stop-color:rgb(29.803922%,59.215686%,86.666667%);stop-opacity:1;"/>
</linearGradient>
<linearGradient id="linear23" gradientUnits="userSpaceOnUse" x1="227.82" y1="204.296" x2="175.95" y2="215.641" gradientTransform="matrix(0.998004,0,0,0.901163,0,0)">
<stop offset="0.0353535" style="stop-color:rgb(9.803922%,40.784314%,70.196078%);stop-opacity:1;"/>
<stop offset="1" style="stop-color:rgb(29.803922%,59.215686%,86.666667%);stop-opacity:1;"/>
</linearGradient>
<linearGradient id="linear24" gradientUnits="userSpaceOnUse" x1="191.761" y1="277.248" x2="174.009" y2="283.782" gradientTransform="matrix(0.998004,0,0,0.901163,0,0)">
<stop offset="0.0353535" style="stop-color:rgb(9.803922%,40.784314%,70.196078%);stop-opacity:1;"/>
<stop offset="1" style="stop-color:rgb(29.803922%,59.215686%,86.666667%);stop-opacity:1;"/>
</linearGradient>
<linearGradient id="linear25" gradientUnits="userSpaceOnUse" x1="204.69" y1="209.192" x2="184.777" y2="228.336" gradientTransform="matrix(0.998004,0,0,0.901163,0,0)">
<stop offset="0.0353535" style="stop-color:rgb(9.803922%,40.784314%,70.196078%);stop-opacity:1;"/>
<stop offset="1" style="stop-color:rgb(29.803922%,59.215686%,86.666667%);stop-opacity:1;"/>
</linearGradient>
<linearGradient id="linear26" gradientUnits="userSpaceOnUse" x1="227.401" y1="222.875" x2="124.545" y2="281.955" gradientTransform="matrix(0.998004,0,0,0.901163,0,0)">
<stop offset="0.0353535" style="stop-color:rgb(9.803922%,40.784314%,70.196078%);stop-opacity:1;"/>
<stop offset="1" style="stop-color:rgb(29.803922%,59.215686%,86.666667%);stop-opacity:1;"/>
</linearGradient>
<linearGradient id="linear27" gradientUnits="userSpaceOnUse" x1="151.399" y1="272.648" x2="110.96" y2="302.531" gradientTransform="matrix(0.998004,0,0,0.901163,0,0)">
<stop offset="0.0353535" style="stop-color:rgb(9.803922%,40.784314%,70.196078%);stop-opacity:1;"/>
<stop offset="1" style="stop-color:rgb(29.803922%,59.215686%,86.666667%);stop-opacity:1;"/>
</linearGradient>
</defs>
<g id="surface1">
<path style=" stroke:none;fill-rule:nonzero;fill:rgb(87.058824%,89.803922%,96.470588%);fill-opacity:1;" d="M 50.964844 292.867188 C 29.140625 259.730469 15.628906 222.152344 11.757812 183.722656 C 9.960938 165.699219 12.324219 144.179688 29.613281 135.125 C 43.691406 127.78125 62.023438 132.136719 77.042969 126.414062 C 91.589844 120.859375 100.097656 106.855469 104.535156 93.109375 C 108.980469 79.355469 110.773438 64.839844 117.574219 51.859375 C 126.835938 34.261719 145.445312 20.851562 166.519531 16.84375 C 187.589844 12.742188 210.644531 18.035156 227.085938 30.679688 C 246.542969 45.710938 258.542969 71.074219 283.492188 76.195312 C 297.097656 79.015625 311.175781 74.828125 324.96875 72.355469 C 338.667969 69.878906 354.730469 69.707031 364.746094 78.589844 C 382.035156 93.957031 368.335938 123 381.941406 141.101562 C 387.039062 147.851562 395.265625 152.121094 400.738281 158.609375 C 410.09375 169.714844 416.710938 186.539062 415.765625 200.460938 C 413.214844 239.660156 392.429688 279.375 374.289062 292.867188 Z M 50.964844 292.867188 "/>
<path style="fill:none;stroke-width:1;stroke-linecap:butt;stroke-linejoin:miter;stroke:rgb(18.039216%,56.862745%,79.215686%);stroke-opacity:1;stroke-miterlimit:10;" d="M 355.334154 202.516107 C 359.631794 171.297763 374.125563 141.678916 395.61376 118.670451 " transform="matrix(0.998004,0,0,0.901163,0,0)"/>
<path style=" stroke:none;fill-rule:nonzero;fill:url(#linear0);" d="M 372.382812 123.347656 C 372.382812 122.089844 371.882812 120.195312 371.582031 118.933594 C 367.59375 103.511719 359.714844 110.277344 393.128906 103.785156 C 388.140625 108.289062 385.148438 110.277344 372.382812 134.890625 C 358.414062 161.132812 365.695312 152.382812 364.902344 143.183594 C 363.703125 128.492188 353.828125 115.59375 364.003906 109.644531 C 367.59375 113.433594 371.78125 119.472656 372.382812 123.347656 Z M 372.382812 123.347656 "/>
<path style=" stroke:none;fill-rule:nonzero;fill:url(#linear1);" d="M 407.792969 106.21875 C 408.492188 103.695312 407.492188 99.546875 406.792969 96.121094 C 413.480469 95.035156 420.0625 96.296875 423.554688 98.191406 C 417.070312 100.445312 414.078125 104.507812 411.582031 108.921875 C 398.214844 132.277344 373.28125 133.542969 362.40625 155.089844 C 383.355469 110.367188 391.535156 99.273438 404.902344 96.480469 C 406.597656 99.820312 407.792969 103.875 407.792969 106.21875 Z M 407.792969 106.21875 "/>
<path style="fill:none;stroke-width:1;stroke-linecap:butt;stroke-linejoin:miter;stroke:rgb(18.039216%,56.862745%,79.215686%);stroke-opacity:1;stroke-miterlimit:10;" d="M 347.740875 205.520038 C 356.234388 161.393027 352.038514 115.068334 336.343128 73.043641 " transform="matrix(0.998004,0,0,0.901163,0,0)"/>
<path style=" stroke:none;fill-rule:nonzero;fill:url(#linear2);" d="M 339.960938 101.078125 C 339.261719 100.269531 337.46875 98.648438 335.769531 97.5625 C 322.503906 88.726562 320.707031 98.734375 327.292969 81.871094 C 328.789062 78.175781 331.582031 71.59375 331.980469 67.445312 C 337.867188 82.867188 352.429688 101.980469 351.527344 140.933594 C 350.636719 115.6875 321.605469 110.816406 322.804688 95.757812 C 328.691406 95.847656 336.371094 97.652344 339.960938 101.078125 Z M 339.960938 101.078125 "/>
<path style=" stroke:none;fill-rule:nonzero;fill:url(#linear3);" d="M 338.269531 50.855469 C 335.070312 48.058594 330.183594 46.976562 325.894531 46.078125 C 325.394531 40.484375 325.894531 31.46875 328.292969 26.507812 C 332.679688 37.6875 338.863281 43.550781 346.046875 52.929688 C 366.195312 80.433594 353.925781 112.621094 351.632812 144.992188 C 352.527344 86.292969 331.980469 86.832031 326.195312 48.238281 C 330.382812 47.972656 335.472656 49.230469 338.269531 50.855469 Z M 338.269531 50.855469 "/>
<path style=" stroke:none;fill-rule:nonzero;fill:rgb(100%,100%,100%);fill-opacity:1;" d="M 195.617188 63.570312 L 150.730469 63.570312 L 150.730469 104.144531 L 195.617188 104.144531 Z M 195.617188 63.570312 "/>
<path style=" stroke:none;fill-rule:nonzero;fill:rgb(100%,100%,100%);fill-opacity:1;" d="M 251.679688 63.570312 L 206.789062 63.570312 L 206.789062 104.144531 L 251.679688 104.144531 Z M 251.679688 63.570312 "/>
<path style=" stroke:none;fill-rule:nonzero;fill:rgb(21.176471%,21.176471%,21.176471%);fill-opacity:1;" d="M 55.964844 96.03125 L 52.175781 96.03125 L 52.175781 304.140625 L 55.964844 304.140625 Z M 55.964844 96.03125 "/>
<path style=" stroke:none;fill-rule:nonzero;fill:url(#linear4);" d="M 84.789062 48.597656 L 94.867188 106.851562 L 12.667969 106.851562 L 22.742188 48.597656 Z M 84.789062 48.597656 "/>
<path style=" stroke:none;fill-rule:nonzero;fill:url(#linear5);" d="M 84.789062 48.597656 L 91.875 89.988281 C 61.746094 87.828125 39.800781 68.257812 41 48.597656 Z M 84.789062 48.597656 "/>
<path style=" stroke:none;fill-rule:nonzero;fill:url(#linear6);" d="M 364.601562 256.714844 L 62.445312 256.714844 L 81.898438 143.007812 C 84.089844 130.292969 96.261719 120.828125 110.527344 120.828125 L 316.515625 120.828125 C 330.78125 120.828125 342.949219 130.203125 345.148438 143.007812 Z M 364.601562 256.714844 "/>
<path style=" stroke:none;fill-rule:nonzero;fill:rgb(87.058824%,89.803922%,96.470588%);fill-opacity:1;" d="M 262.949219 231.917969 L 211.277344 231.824219 C 206.195312 231.824219 202.003906 228.035156 202.003906 223.441406 L 202.097656 176.730469 C 202.097656 172.132812 206.292969 168.347656 211.375 168.347656 L 263.050781 168.4375 C 268.136719 168.4375 272.328125 172.21875 272.328125 176.820312 L 272.226562 223.527344 C 272.226562 228.128906 268.039062 231.917969 262.949219 231.917969 Z M 262.949219 231.917969 "/>
<path style=" stroke:none;fill-rule:nonzero;fill:url(#linear7);" d="M 78.609375 172.492188 C 72.71875 167.082031 64.441406 163.835938 55.363281 163.835938 C 40.5 163.835938 28.429688 174.746094 28.429688 188.273438 L 38.40625 301.707031 C 38.40625 303.867188 40.398438 305.671875 42.796875 305.671875 L 67.332031 305.671875 C 64.441406 305.671875 62.144531 303.59375 62.144531 300.984375 L 62.144531 260.230469 C 62.144531 257.613281 64.441406 255.535156 67.332031 255.535156 L 67.332031 253.914062 C 64.242188 252.652344 62.144531 249.859375 62.144531 246.609375 L 62.144531 233.082031 C 62.144531 228.667969 66.132812 225.0625 71.023438 225.0625 L 88.285156 225.0625 L 88.285156 193.59375 C 88.183594 185.296875 84.488281 177.902344 78.609375 172.492188 Z M 78.609375 172.492188 "/>
<path style=" stroke:none;fill-rule:nonzero;fill:url(#linear8);" d="M 348.539062 172.492188 C 354.425781 167.082031 362.703125 163.835938 371.78125 163.835938 C 386.648438 163.835938 398.714844 174.746094 398.714844 188.273438 L 398.714844 301.707031 C 398.714844 303.867188 396.824219 305.671875 394.324219 305.671875 L 359.8125 305.671875 C 362.703125 305.671875 365 303.59375 365 300.984375 L 365 260.230469 C 365 257.613281 362.703125 255.535156 359.8125 255.535156 L 359.8125 253.914062 C 362.902344 252.652344 365 249.859375 365 246.609375 L 365 233.082031 C 365 228.667969 361.007812 225.0625 356.125 225.0625 L 338.863281 225.0625 L 338.863281 193.59375 C 338.960938 185.296875 342.558594 177.902344 348.539062 172.492188 Z M 348.539062 172.492188 "/>
<path style=" stroke:none;fill-rule:nonzero;fill:url(#linear9);" d="M 362.105469 305.582031 L 65.539062 305.582031 C 62.644531 305.582031 60.351562 303.507812 60.351562 300.890625 L 60.351562 258.335938 C 60.351562 255.71875 62.644531 253.648438 65.539062 253.648438 L 362.105469 253.648438 C 365 253.648438 367.292969 255.71875 367.292969 258.335938 L 367.292969 300.890625 C 367.191406 303.507812 364.902344 305.582031 362.105469 305.582031 Z M 362.105469 305.582031 "/>
<path style=" stroke:none;fill-rule:nonzero;fill:url(#linear10);" d="M 359.914062 305.582031 L 67.234375 305.582031 C 64.34375 305.582031 62.046875 303.507812 62.046875 300.890625 L 62.046875 260.136719 C 62.046875 257.523438 64.34375 255.445312 67.234375 255.445312 L 359.914062 255.445312 C 362.804688 255.445312 365.101562 257.523438 365.101562 260.136719 L 365.101562 300.890625 C 365.101562 303.507812 362.703125 305.582031 359.914062 305.582031 Z M 359.914062 305.582031 "/>
<path style=" stroke:none;fill-rule:nonzero;fill:url(#linear11);" d="M 204.695312 254.546875 L 71.023438 254.546875 C 66.132812 254.546875 62.144531 250.941406 62.144531 246.519531 L 62.144531 232.996094 C 62.144531 228.578125 66.132812 224.972656 71.023438 224.972656 L 204.695312 224.972656 C 209.582031 224.972656 213.574219 228.578125 213.574219 232.996094 L 213.574219 246.519531 C 213.574219 250.941406 209.582031 254.546875 204.695312 254.546875 Z M 204.695312 254.546875 "/>
<path style=" stroke:none;fill-rule:nonzero;fill:url(#linear12);" d="M 356.125 254.546875 L 222.449219 254.546875 C 217.5625 254.546875 213.574219 250.941406 213.574219 246.519531 L 213.574219 232.996094 C 213.574219 228.578125 217.5625 224.972656 222.449219 224.972656 L 356.125 224.972656 C 361.007812 224.972656 365 228.578125 365 232.996094 L 365 246.519531 C 365.101562 250.941406 361.105469 254.546875 356.125 254.546875 Z M 356.125 254.546875 "/>
<path style=" stroke:none;fill-rule:nonzero;fill:url(#linear13);" d="M 93.46875 309.820312 L 42.695312 309.820312 C 41.398438 309.820312 40.300781 308.828125 40.300781 307.65625 C 40.300781 306.484375 41.398438 305.488281 42.695312 305.488281 L 93.46875 305.488281 C 94.765625 305.488281 95.863281 306.484375 95.863281 307.65625 C 95.863281 308.917969 94.765625 309.820312 93.46875 309.820312 Z M 93.46875 309.820312 "/>
<path style=" stroke:none;fill-rule:nonzero;fill:url(#linear14);" d="M 394.425781 309.820312 L 343.648438 309.820312 C 342.355469 309.820312 341.257812 308.828125 341.257812 307.65625 C 341.257812 306.484375 342.355469 305.488281 343.648438 305.488281 L 394.425781 305.488281 C 395.722656 305.488281 396.824219 306.484375 396.824219 307.65625 C 396.722656 308.917969 395.722656 309.820312 394.425781 309.820312 Z M 394.425781 309.820312 "/>
<path style=" stroke:none;fill-rule:nonzero;fill:rgb(30.196078%,52.156863%,78.431373%);fill-opacity:1;" d="M 356.125 203.691406 C 347.9375 212.257812 318.914062 225.0625 313.328125 225.0625 L 256.070312 225.0625 C 240.105469 225.0625 229.730469 209.640625 224.949219 203.691406 L 228.136719 180.789062 L 228.835938 175.558594 C 231.828125 174.835938 237.816406 175.109375 245.496094 176.007812 C 272.527344 179.074219 320.207031 188.996094 327.992188 184.308594 C 332.480469 181.507812 336.96875 179.796875 341.257812 178.898438 C 346.347656 177.722656 351.136719 177.8125 355.226562 178.535156 C 356.21875 178.714844 357.117188 179.164062 357.914062 179.796875 C 363.003906 183.855469 363.203125 196.300781 356.125 203.691406 Z M 356.125 203.691406 "/>
<path style=" stroke:none;fill-rule:nonzero;fill:rgb(15.686275%,37.647059%,63.921569%);fill-opacity:1;" d="M 245.59375 176.007812 C 242.996094 178.175781 236.816406 178.175781 234.324219 177.089844 L 228.238281 180.878906 L 228.9375 175.648438 C 231.929688 174.746094 237.914062 175.109375 245.59375 176.007812 Z M 245.59375 176.007812 "/>
<path style=" stroke:none;fill-rule:nonzero;fill:rgb(15.686275%,37.647059%,63.921569%);fill-opacity:1;" d="M 357.914062 179.707031 C 353.027344 180.878906 345.945312 180.96875 341.257812 178.800781 C 346.347656 177.628906 351.136719 177.722656 355.226562 178.441406 C 356.316406 178.625 357.214844 179.074219 357.914062 179.707031 Z M 357.914062 179.707031 "/>
<path style=" stroke:none;fill-rule:nonzero;fill:url(#linear15);" d="M 260.957031 153.195312 L 257.164062 152.023438 L 246.59375 148.867188 C 247.09375 146.34375 247.488281 144 247.785156 142.195312 C 249.382812 132.546875 254.171875 128.671875 258.363281 127.320312 C 259.460938 129.304688 259.261719 132.007812 259.859375 134.351562 C 261.550781 141.296875 261.257812 149.140625 260.957031 153.195312 Z M 260.957031 153.195312 "/>
<path style=" stroke:none;fill-rule:nonzero;fill:rgb(100%,74.509804%,61.568627%);fill-opacity:1;" d="M 264.75 178.535156 L 264.75 187.730469 C 255.871094 187.910156 242.703125 179.433594 242.105469 177.179688 C 241.90625 176.640625 242.105469 174.925781 242.402344 172.492188 L 242.402344 172.402344 C 243.199219 166.542969 245.195312 156.621094 246.59375 148.867188 L 257.164062 152.023438 L 260.957031 153.195312 C 260.859375 154.910156 260.660156 155.898438 260.660156 155.898438 C 259.160156 166.269531 255.570312 173.125 255.570312 173.125 C 258.660156 174.207031 259.660156 175.832031 260.957031 177.003906 C 261.851562 177.902344 262.851562 178.535156 264.75 178.535156 Z M 264.75 178.535156 "/>
<path style=" stroke:none;fill-rule:nonzero;fill:rgb(95.294118%,69.019608%,55.686275%);fill-opacity:1;" d="M 260.957031 153.195312 C 260.859375 154.910156 260.660156 155.898438 260.660156 155.898438 C 259.160156 166.269531 255.570312 173.125 255.570312 173.125 C 253.375 172.402344 251.28125 172.21875 251.28125 172.21875 C 251.28125 172.21875 255.371094 164.738281 257.164062 152.117188 Z M 260.957031 153.195312 "/>
<path style=" stroke:none;fill-rule:nonzero;fill:url(#linear16);" d="M 260.957031 153.195312 L 257.164062 152.023438 C 258.960938 139.402344 258.5625 132.730469 258.5625 132.730469 L 259.859375 134.265625 C 261.550781 141.296875 261.257812 149.140625 260.957031 153.195312 Z M 260.957031 153.195312 "/>
<path style=" stroke:none;fill-rule:nonzero;fill:rgb(95.294118%,69.019608%,55.686275%);fill-opacity:1;" d="M 264.75 178.535156 L 264.75 187.730469 C 255.871094 187.910156 242.703125 179.433594 242.105469 177.179688 C 241.90625 176.640625 242.105469 174.925781 242.402344 172.492188 C 242.402344 174.476562 248.585938 179.257812 253.375 179.886719 C 258.261719 180.519531 260.957031 177.003906 260.957031 177.003906 C 261.851562 177.902344 262.851562 178.535156 264.75 178.535156 Z M 264.75 178.535156 "/>
<path style=" stroke:none;fill-rule:nonzero;fill:url(#linear17);" d="M 310.835938 152.117188 L 314.523438 150.761719 L 324.796875 146.882812 C 324.101562 144.363281 323.503906 142.105469 323.101562 140.300781 C 320.707031 130.742188 316.515625 126.777344 311.335938 126.144531 C 310.4375 128.132812 310.734375 130.925781 310.4375 133.179688 C 309.238281 140.300781 310.234375 148.054688 310.835938 152.117188 Z M 310.835938 152.117188 "/>
<path style=" stroke:none;fill-rule:nonzero;fill:rgb(100%,78.039216%,78.431373%);fill-opacity:1;" d="M 309.136719 177.628906 L 309.9375 186.828125 C 318.8125 186.378906 331.183594 177.089844 331.683594 174.835938 C 331.78125 174.296875 331.480469 172.582031 330.984375 170.238281 L 330.984375 170.148438 C 329.683594 164.375 326.894531 154.550781 324.894531 146.972656 L 314.625 150.851562 L 310.933594 152.207031 C 311.230469 153.917969 311.429688 154.910156 311.429688 154.910156 C 313.726562 165.1875 317.914062 171.769531 317.914062 171.769531 C 314.925781 173.125 314.027344 174.746094 312.925781 176.007812 C 312.027344 176.820312 311.03125 177.453125 309.136719 177.628906 Z M 309.136719 177.628906 "/>
<path style=" stroke:none;fill-rule:nonzero;fill:rgb(98.431373%,69.411765%,69.803922%);fill-opacity:1;" d="M 310.835938 152.117188 C 311.136719 153.828125 311.335938 154.820312 311.335938 154.820312 C 313.625 165.097656 317.816406 171.679688 317.816406 171.679688 C 319.914062 170.871094 322.003906 170.507812 322.003906 170.507812 C 322.003906 170.507812 317.316406 163.292969 314.523438 150.761719 Z M 310.835938 152.117188 "/>
<path style=" stroke:none;fill-rule:nonzero;fill:url(#linear18);" d="M 310.835938 152.117188 L 314.523438 150.761719 C 311.628906 138.320312 311.335938 131.824219 311.335938 131.824219 L 310.335938 133.269531 C 309.238281 140.300781 310.234375 148.054688 310.835938 152.117188 Z M 310.835938 152.117188 "/>
<path style=" stroke:none;fill-rule:nonzero;fill:rgb(98.431373%,69.411765%,69.803922%);fill-opacity:1;" d="M 309.136719 177.628906 L 309.9375 186.828125 C 318.8125 186.378906 331.183594 177.089844 331.683594 174.835938 C 331.78125 174.296875 331.480469 172.582031 330.984375 170.238281 C 331.183594 172.21875 325.394531 177.453125 320.605469 178.351562 C 315.71875 179.347656 312.828125 176.007812 312.828125 176.007812 C 312.027344 176.820312 311.03125 177.453125 309.136719 177.628906 Z M 309.136719 177.628906 "/>
<path style=" stroke:none;fill-rule:nonzero;fill:url(#linear19);" d="M 270.929688 124.34375 C 265.347656 125.875 260.957031 126.238281 258.460938 127.320312 C 256.070312 128.398438 262.050781 139.042969 259.460938 147.878906 C 256.863281 156.621094 264.347656 167.171875 261.160156 184.035156 C 261.160156 184.035156 305.148438 185.566406 305.148438 184.035156 C 305.148438 182.5 305.546875 165.546875 310.234375 158.339844 C 314.925781 151.035156 312.328125 143.90625 311.03125 139.761719 C 309.738281 135.523438 313.425781 126.328125 311.230469 126.144531 C 308.9375 126.054688 297.46875 123.53125 297.46875 123.53125 Z M 270.929688 124.34375 "/>
<path style=" stroke:none;fill-rule:nonzero;fill:rgb(21.176471%,21.176471%,21.176471%);fill-opacity:1;" d="M 283.898438 75.199219 C 282.703125 73.488281 280.207031 72.855469 278.015625 72.945312 C 274.324219 73.035156 270.828125 74.929688 268.9375 77.726562 C 267.039062 80.523438 266.742188 84.214844 268.238281 87.191406 C 263.25 85.386719 257.261719 86.019531 252.972656 88.816406 C 248.585938 91.609375 245.992188 96.480469 246.195312 101.347656 C 246.292969 103.601562 246.992188 105.855469 248.484375 107.574219 C 249.984375 109.375 252.375 110.632812 254.773438 110.632812 C 255.671875 110.632812 256.570312 110.457031 257.464844 110.632812 C 258.363281 110.730469 259.261719 111.265625 259.460938 112.078125 C 259.761719 113.523438 257.664062 114.605469 257.761719 116.042969 C 257.863281 116.765625 258.460938 117.398438 259.261719 117.671875 C 260.058594 117.9375 260.859375 117.851562 261.652344 117.761719 C 265.246094 117.222656 268.339844 114.96875 269.835938 111.988281 C 274.027344 114.15625 279.707031 113.523438 283.101562 110.546875 C 286.59375 107.574219 287.492188 102.429688 285.195312 98.550781 C 283.796875 96.207031 281.304688 94.136719 281.503906 91.429688 C 281.605469 89.808594 282.605469 88.363281 282.902344 86.742188 C 283.101562 85.660156 282.902344 84.664062 283.101562 83.589844 C 283.304688 80.609375 285.992188 78.082031 283.898438 75.199219 Z M 283.898438 75.199219 "/>
<path style=" stroke:none;fill-rule:nonzero;fill:rgb(100%,74.509804%,61.568627%);fill-opacity:1;" d="M 280.707031 132.097656 C 273.226562 130.292969 270.929688 124.34375 270.929688 124.34375 L 271.328125 124.160156 C 272.027344 123.894531 272.527344 123.261719 272.527344 122.539062 L 272.527344 112.890625 L 291.882812 110.632812 L 291.882812 118.660156 C 291.882812 119.207031 291.980469 119.742188 292.179688 120.195312 C 292.679688 121.367188 293.574219 122.269531 294.871094 122.722656 L 297.367188 123.621094 C 297.761719 130.652344 288.191406 133.808594 280.707031 132.097656 Z M 280.707031 132.097656 "/>
<path style=" stroke:none;fill-rule:nonzero;fill:rgb(95.294118%,69.019608%,55.686275%);fill-opacity:1;" d="M 292.179688 120.105469 C 290.78125 122.722656 288.890625 125.332031 286.394531 125.964844 C 281.804688 127.136719 276.816406 122.269531 272.527344 114.96875 L 272.527344 112.890625 L 291.882812 110.632812 L 291.882812 118.660156 C 291.882812 119.109375 291.980469 119.65625 292.179688 120.105469 Z M 292.179688 120.105469 "/>
<path style=" stroke:none;fill-rule:nonzero;fill:rgb(100%,74.509804%,61.568627%);fill-opacity:1;" d="M 295.769531 101.167969 C 295.671875 104.058594 294.371094 107.574219 293.074219 106.667969 C 293.074219 106.667969 293.175781 104.773438 293.175781 103.0625 C 293.175781 101.53125 293.273438 100.179688 293.273438 100.179688 C 293.375 100.359375 293.671875 98.648438 294.671875 98.101562 C 295.472656 97.742188 295.871094 98.375 295.769531 101.167969 Z M 295.769531 101.167969 "/>
<path style=" stroke:none;fill-rule:nonzero;fill:rgb(100%,74.509804%,61.568627%);fill-opacity:1;" d="M 295.769531 101.167969 C 295.070312 101.347656 294.074219 102.070312 293.175781 103.0625 C 293.175781 101.53125 293.273438 100.179688 293.273438 100.179688 C 293.375 100.359375 293.671875 98.648438 294.671875 98.101562 C 295.472656 97.742188 295.871094 98.375 295.769531 101.167969 Z M 295.769531 101.167969 "/>
<path style=" stroke:none;fill-rule:nonzero;fill:rgb(100%,74.509804%,61.568627%);fill-opacity:1;" d="M 283.304688 119.109375 C 273.226562 119.109375 270.136719 107.75 270.136719 107.75 C 267.9375 108.921875 266.839844 106.402344 265.945312 102.523438 C 265.945312 102.429688 265.945312 102.339844 265.945312 102.339844 C 265.148438 98.648438 266.441406 96.929688 267.839844 98.914062 L 288.683594 90.980469 C 288.683594 90.980469 293.273438 95.125 293.671875 100.085938 C 294.074219 104.957031 293.375 119.109375 283.304688 119.109375 Z M 283.304688 119.109375 "/>
<path style=" stroke:none;fill-rule:nonzero;fill:rgb(100%,74.509804%,61.568627%);fill-opacity:1;" d="M 269.335938 105.945312 C 269.335938 105.945312 267.9375 103.875 265.847656 102.339844 C 265.046875 98.648438 266.339844 96.929688 267.738281 98.914062 L 268.636719 104.144531 Z M 269.335938 105.945312 "/>
<path style=" stroke:none;fill-rule:nonzero;fill:rgb(21.176471%,21.176471%,21.176471%);fill-opacity:1;" d="M 268.738281 104.144531 C 268.738281 104.144531 269.738281 104.234375 270.929688 99.636719 C 270.929688 99.636719 283.503906 101.167969 288.390625 92.066406 C 288.390625 92.066406 288.191406 96.660156 293.375 100.179688 C 293.375 100.179688 294.074219 98.464844 294.871094 98.101562 C 294.871094 98.101562 297.167969 89.539062 290.683594 84.308594 C 284.203125 79.078125 272.128906 80.699219 268.039062 87.644531 C 263.75 94.769531 268.738281 104.144531 268.738281 104.144531 Z M 268.738281 104.144531 "/>
<path style=" stroke:none;fill-rule:nonzero;fill:rgb(15.686275%,37.647059%,63.921569%);fill-opacity:1;" d="M 254.074219 191.789062 L 252.375 186.289062 L 252.375 184.757812 C 252.375 184.484375 252.574219 184.308594 252.875 184.308594 L 275.71875 184.308594 Z M 254.074219 191.789062 "/>
<path style=" stroke:none;fill-rule:nonzero;fill:rgb(100%,74.509804%,61.568627%);fill-opacity:1;" d="M 332.28125 224.972656 L 290.582031 224.972656 C 290.582031 224.972656 303.050781 221 311.03125 218.207031 C 314.226562 217.035156 316.71875 216.136719 317.316406 215.589844 C 319.414062 213.96875 326.394531 213.339844 329.191406 215.503906 C 331.082031 216.945312 330.582031 219.5625 330.582031 219.5625 L 330.683594 219.5625 C 331.082031 219.378906 332.878906 218.929688 334.074219 220.375 C 335.570312 222.085938 333.878906 224.972656 332.28125 224.972656 Z M 332.28125 224.972656 "/>
<path style=" stroke:none;fill-rule:nonzero;fill:rgb(95.294118%,69.019608%,55.686275%);fill-opacity:1;" d="M 332.28125 224.972656 L 290.582031 224.972656 C 290.582031 224.972656 303.050781 221 311.03125 218.207031 C 312.925781 221.636719 324.597656 221.996094 330.582031 219.652344 L 330.683594 219.652344 C 331.082031 219.46875 332.878906 219.019531 334.074219 220.460938 C 335.570312 222.085938 333.878906 224.972656 332.28125 224.972656 Z M 332.28125 224.972656 "/>
<path style=" stroke:none;fill-rule:nonzero;fill:rgb(100%,74.509804%,61.568627%);fill-opacity:1;" d="M 297.570312 214.152344 L 295.671875 217.125 L 290.582031 225.0625 C 283.304688 225.0625 260.359375 219.378906 245.09375 214.332031 C 248.1875 212.980469 251.183594 210.992188 253.773438 208.648438 C 258.460938 204.503906 262.050781 199.183594 263.75 194.582031 C 265.046875 195.484375 266.441406 196.566406 268.039062 198.011719 C 281.503906 209.820312 297.570312 214.152344 297.570312 214.152344 Z M 297.570312 214.152344 "/>
<path style=" stroke:none;fill-rule:nonzero;fill:rgb(15.686275%,37.647059%,63.921569%);fill-opacity:1;" d="M 263.847656 194.582031 C 262.152344 199.269531 258.5625 204.503906 253.871094 208.648438 C 251.28125 210.992188 248.285156 212.980469 245.195312 214.332031 C 239.605469 212.523438 235.019531 210.726562 232.726562 209.371094 C 223.949219 204.230469 220.160156 198.644531 218.960938 192.421875 C 218.460938 189.894531 217.863281 187.460938 217.960938 185.296875 C 218.0625 182.140625 219.460938 179.433594 224.050781 177.089844 C 231.929688 173.125 234.125 177.992188 237.714844 178.441406 C 243.003906 179.257812 249.382812 181.691406 252.476562 186.195312 C 255.769531 191.066406 258.160156 190.617188 263.847656 194.582031 Z M 263.847656 194.582031 "/>
<path style=" stroke:none;fill-rule:nonzero;fill:rgb(98.431373%,69.411765%,69.803922%);fill-opacity:1;" d="M 295.671875 217.125 L 290.582031 225.0625 C 283.304688 225.0625 260.359375 219.378906 245.09375 214.332031 C 248.1875 212.980469 251.183594 210.992188 253.773438 208.648438 C 267.539062 214.78125 278.515625 216.222656 295.671875 217.125 Z M 295.671875 217.125 "/>
<path style=" stroke:none;fill-rule:nonzero;fill:rgb(27.45098%,50.196078%,77.254902%);fill-opacity:1;" d="M 253.773438 208.648438 C 251.183594 210.992188 248.1875 212.980469 245.09375 214.332031 C 239.507812 212.523438 234.917969 210.726562 232.628906 209.371094 C 223.847656 204.230469 220.058594 198.644531 218.859375 192.421875 C 218.363281 189.894531 217.761719 187.460938 217.863281 185.296875 C 219.460938 186.105469 221.75 187.910156 224.648438 191.789062 C 231.027344 200.445312 242.304688 204.320312 253.773438 208.648438 Z M 253.773438 208.648438 "/>
<path style=" stroke:none;fill-rule:nonzero;fill:rgb(100%,74.509804%,61.568627%);fill-opacity:1;" d="M 325.792969 214.601562 C 323.003906 214.875 319.511719 216.675781 315.71875 218.390625 C 309.4375 221.183594 294.074219 224.972656 288.285156 224.972656 L 245.894531 224.972656 C 244.695312 224.972656 243.695312 224.066406 243.796875 222.984375 C 244.097656 219.289062 247.285156 220.101562 247.285156 220.101562 C 247.285156 220.101562 245.992188 218.03125 248.285156 215.589844 C 250.382812 213.429688 257.0625 213.519531 261.550781 215.324219 C 266.042969 217.21875 269.039062 217.21875 269.039062 217.21875 C 274.625 214.058594 276.515625 216.675781 278.214844 216.675781 C 280.007812 216.675781 293.972656 214.601562 308.238281 202.519531 C 310.535156 200.625 312.726562 198.910156 315.023438 197.378906 C 316.515625 199.269531 318.316406 201.800781 320.105469 204.414062 C 320.105469 204.503906 320.207031 204.503906 320.207031 204.503906 C 322.503906 208.019531 324.695312 211.714844 325.792969 214.601562 Z M 325.792969 214.601562 "/>
<path style=" stroke:none;fill-rule:nonzero;fill:rgb(15.686275%,37.647059%,63.921569%);fill-opacity:1;" d="M 365.199219 190.527344 C 365.101562 191.789062 364.601562 192.6875 363.804688 193.683594 C 363.804688 193.683594 363.804688 193.683594 363.804688 193.773438 C 362.40625 195.484375 360.210938 197.5625 357.316406 202.160156 C 353.625 208.199219 337.96875 214.152344 332.28125 216.136719 C 331.28125 216.496094 329.984375 216.3125 329.285156 215.589844 C 328.390625 214.78125 327.191406 214.515625 325.792969 214.601562 C 324.695312 211.625 322.503906 208.019531 320.207031 204.503906 C 318.414062 201.800781 316.515625 199.269531 315.023438 197.378906 C 327.09375 188.996094 338.269531 185.207031 339.960938 183.492188 C 342.058594 181.507812 348.539062 178.085938 355.324219 178.441406 C 362.003906 178.800781 365.5 187.101562 365.199219 190.527344 Z M 365.199219 190.527344 "/>
<path style=" stroke:none;fill-rule:nonzero;fill:rgb(98.431373%,69.411765%,69.803922%);fill-opacity:1;" d="M 278.214844 216.675781 C 274.425781 217.308594 273.125 217.667969 269.039062 217.21875 C 274.523438 214.058594 276.417969 216.675781 278.214844 216.675781 Z M 278.214844 216.675781 "/>
<path style=" stroke:none;fill-rule:nonzero;fill:rgb(95.294118%,69.019608%,55.686275%);fill-opacity:1;" d="M 325.792969 214.601562 C 323.003906 214.875 319.511719 216.675781 315.71875 218.390625 C 309.4375 221.183594 294.074219 224.972656 288.285156 224.972656 L 251.382812 224.972656 C 259.660156 224.972656 280.90625 222.269531 293.074219 221.546875 C 305.246094 220.824219 324.5 211.351562 320.207031 204.59375 C 322.503906 208.019531 324.695312 211.714844 325.792969 214.601562 Z M 325.792969 214.601562 "/>
<path style=" stroke:none;fill-rule:nonzero;fill:rgb(27.45098%,50.196078%,77.254902%);fill-opacity:1;" d="M 363.804688 193.773438 C 362.40625 195.484375 360.210938 197.5625 357.316406 202.160156 C 353.625 208.199219 337.96875 214.152344 332.28125 216.136719 C 331.28125 216.496094 329.984375 216.3125 329.285156 215.589844 C 328.390625 214.78125 327.191406 214.515625 325.792969 214.601562 C 324.695312 211.625 322.503906 208.019531 320.207031 204.503906 C 323.800781 203.238281 329.984375 203.238281 338.5625 202.066406 C 347.046875 200.988281 358.414062 199.90625 363.804688 193.773438 Z M 363.804688 193.773438 "/>
<path style=" stroke:none;fill-rule:nonzero;fill:url(#linear20);" d="M 331.683594 193.683594 L 255.871094 193.683594 C 254.773438 193.683594 253.871094 192.871094 253.871094 191.789062 L 253.871094 148.777344 C 253.871094 147.695312 254.773438 146.882812 255.871094 146.882812 L 331.683594 146.882812 C 332.78125 146.882812 333.679688 147.695312 333.679688 148.777344 L 333.679688 191.789062 C 333.679688 192.871094 332.78125 193.683594 331.683594 193.683594 Z M 331.683594 193.683594 "/>
<path style=" stroke:none;fill-rule:nonzero;fill:rgb(78.039216%,93.72549%,97.647059%);fill-opacity:1;" d="M 178.261719 196.839844 C 178.261719 196.839844 167.386719 203.238281 164.195312 204.683594 C 160.90625 206.125 157.210938 205.402344 157.210938 205.402344 L 157.507812 202.160156 L 158.207031 194.855469 C 158.207031 194.855469 169.878906 194.855469 174.371094 194.855469 C 175.363281 194.855469 176.0625 194.945312 176.664062 195.128906 C 178.761719 195.578125 178.261719 196.839844 178.261719 196.839844 Z M 178.261719 196.839844 "/>
<path style=" stroke:none;fill-rule:nonzero;fill:rgb(18.039216%,56.862745%,79.215686%);fill-opacity:1;" d="M 176.664062 195.03125 C 173.472656 196.660156 166.585938 200.265625 164.097656 201.347656 C 161.398438 202.519531 158.410156 202.25 157.410156 202.160156 L 158.109375 194.855469 C 158.109375 194.855469 169.78125 194.855469 174.273438 194.855469 C 175.363281 194.855469 176.164062 194.945312 176.664062 195.03125 Z M 176.664062 195.03125 "/>
<path style=" stroke:none;fill-rule:nonzero;fill:rgb(100%,100%,100%);fill-opacity:1;" d="M 188.039062 158.878906 C 186.738281 163.027344 184.34375 167.265625 179.953125 170.957031 C 166.988281 181.960938 167.1875 189.71875 167.1875 189.71875 L 98.554688 189.71875 C 98.554688 189.71875 85.386719 148.867188 98.15625 131.824219 C 100.253906 129.03125 103.042969 126.863281 106.632812 125.691406 C 111.421875 124.070312 158.109375 120.105469 188.730469 143.097656 C 188.832031 143.183594 190.730469 150.671875 188.039062 158.878906 Z M 188.039062 158.878906 "/>
<path style=" stroke:none;fill-rule:nonzero;fill:rgb(90.196078%,92.156863%,93.333333%);fill-opacity:1;" d="M 188.039062 158.878906 C 186.738281 163.027344 184.34375 167.265625 179.953125 170.957031 C 166.988281 181.960938 167.1875 189.71875 167.1875 189.71875 L 98.554688 189.71875 C 98.554688 189.71875 85.386719 148.867188 98.15625 131.824219 C 100.652344 134.082031 109.828125 136.695312 106.539062 144.179688 C 99.953125 158.878906 141.949219 177.542969 153.820312 177.542969 C 165.789062 177.542969 169.382812 164.109375 176.0625 155.359375 C 176.164062 155.359375 181.550781 156.894531 188.039062 158.878906 Z M 188.039062 158.878906 "/>
<path style=" stroke:none;fill-rule:nonzero;fill:rgb(100%,74.509804%,61.568627%);fill-opacity:1;" d="M 93.867188 160.949219 C 92.273438 162.03125 90.578125 163.027344 88.679688 163.835938 L 56.261719 163.835938 C 55.363281 163.835938 54.664062 163.203125 54.664062 162.480469 C 54.664062 160.589844 55.5625 156.804688 61.050781 152.832031 C 64.140625 150.671875 67.933594 147.605469 72.320312 144.269531 C 78.109375 144.71875 85.488281 149.589844 90.777344 156.355469 C 91.972656 157.792969 92.972656 159.328125 93.867188 160.949219 Z M 93.867188 160.949219 "/>
<path style=" stroke:none;fill-rule:nonzero;fill:rgb(100%,100%,100%);fill-opacity:1;" d="M 106.734375 144.355469 C 104.441406 150.402344 100.453125 156.621094 93.964844 160.949219 C 93.074219 159.328125 91.972656 157.792969 90.875 156.351562 C 85.589844 149.5 78.207031 144.71875 72.421875 144.269531 C 82.695312 136.425781 95.664062 127.410156 106.832031 125.78125 C 109.429688 125.332031 110.429688 134.53125 106.734375 144.355469 Z M 106.734375 144.355469 "/>
<path style=" stroke:none;fill-rule:nonzero;fill:rgb(90.196078%,92.156863%,93.333333%);fill-opacity:1;" d="M 106.734375 144.363281 C 104.441406 150.402344 100.453125 156.621094 93.964844 160.949219 C 93.066406 159.328125 91.972656 157.792969 90.875 156.355469 C 97.855469 152.292969 105.140625 147.519531 106.632812 144.269531 Z M 106.734375 144.363281 "/>
<path style=" stroke:none;fill-rule:nonzero;fill:rgb(95.294118%,69.019608%,55.686275%);fill-opacity:1;" d="M 93.867188 160.949219 C 92.273438 162.03125 90.578125 163.027344 88.679688 163.835938 L 81.898438 163.835938 L 78.90625 155.898438 C 78.90625 155.898438 85.089844 159.238281 90.675781 156.355469 C 91.972656 157.792969 92.972656 159.328125 93.867188 160.949219 Z M 93.867188 160.949219 "/>
<path style=" stroke:none;fill-rule:nonzero;fill:rgb(100%,74.509804%,61.568627%);fill-opacity:1;" d="M 56.363281 163.925781 C 61.546875 164.558594 70.128906 168.253906 79.007812 177.542969 L 93.867188 177.542969 L 85.289062 165.546875 C 85.289062 165.546875 81.699219 155.179688 74.320312 153.554688 C 66.039062 151.757812 56.761719 156.445312 55.066406 162.214844 C 54.863281 163.027344 55.464844 163.835938 56.363281 163.925781 Z M 56.363281 163.925781 "/>
<path style=" stroke:none;fill-rule:nonzero;fill:rgb(100%,100%,100%);fill-opacity:1;" d="M 188.832031 143.183594 C 184.34375 139.761719 173.574219 156.355469 172.273438 166.816406 C 171.875 169.785156 171.773438 173.125 171.976562 176.457031 L 196.617188 176.457031 C 195.816406 162.03125 191.628906 145.261719 188.832031 143.183594 Z M 188.832031 143.183594 "/>
<path style=" stroke:none;fill-rule:nonzero;fill:rgb(100%,74.509804%,61.568627%);fill-opacity:1;" d="M 193.324219 196.207031 C 193.324219 196.207031 189.929688 196.660156 186.242188 196.839844 C 182.351562 196.925781 178.0625 196.75 176.5625 195.304688 C 174.472656 193.324219 172.472656 184.933594 171.976562 176.550781 L 196.617188 176.550781 C 197.015625 184.933594 196.316406 192.601562 193.324219 196.207031 Z M 193.324219 196.207031 "/>
<path style=" stroke:none;fill-rule:nonzero;fill:rgb(95.294118%,69.019608%,55.686275%);fill-opacity:1;" d="M 190.53125 189.804688 C 186.640625 189.894531 178.0625 196.75 176.5625 195.304688 C 174.472656 193.324219 172.472656 184.933594 171.976562 176.550781 C 172.574219 181.960938 184.34375 185.929688 190.53125 189.804688 Z M 190.53125 189.804688 "/>
<path style=" stroke:none;fill-rule:nonzero;fill:rgb(100%,74.509804%,61.568627%);fill-opacity:1;" d="M 158.109375 199.359375 L 162.699219 196.027344 L 166.6875 196.75 C 166.6875 196.75 170.976562 197.828125 173.972656 195.484375 C 173.972656 195.484375 181.75 199.269531 193.324219 196.117188 C 193.324219 196.117188 193.917969 190.257812 188.039062 188.539062 C 182.152344 186.828125 174.472656 187.550781 174.472656 187.550781 C 174.472656 187.550781 170.976562 185.929688 166.988281 185.839844 C 163.296875 185.839844 158.308594 187.460938 158.308594 187.460938 Z M 158.109375 199.359375 "/>
<path style=" stroke:none;fill-rule:nonzero;fill:url(#linear21);" d="M 156.816406 206.214844 L 81 206.214844 C 79.902344 206.214844 79.007812 205.402344 79.007812 204.320312 L 79.007812 161.308594 C 79.007812 160.226562 79.902344 159.417969 81 159.417969 L 156.816406 159.417969 C 157.910156 159.417969 158.808594 160.226562 158.808594 161.308594 L 158.808594 204.320312 C 158.90625 205.316406 157.910156 206.214844 156.816406 206.214844 Z M 156.816406 206.214844 "/>
<path style=" stroke:none;fill-rule:nonzero;fill:rgb(100%,74.509804%,61.568627%);fill-opacity:1;" d="M 149.429688 134.621094 C 146.441406 134.621094 143.742188 133.898438 141.453125 132.996094 C 138.953125 131.914062 136.863281 130.566406 135.464844 129.390625 C 133.867188 128.039062 132.875 126.238281 132.875 124.253906 C 132.773438 120.644531 132.671875 114.785156 132.972656 114.515625 L 137.460938 107.117188 L 155.019531 105.136719 C 155.019531 105.136719 155.019531 110.007812 155.019531 114.695312 L 155.019531 121.910156 C 155.019531 126.6875 160.207031 129.929688 160.707031 130.382812 C 161.105469 130.835938 159.40625 134.621094 149.429688 134.621094 Z M 149.429688 134.621094 "/>
<path style=" stroke:none;fill-rule:nonzero;fill:rgb(95.294118%,69.019608%,55.686275%);fill-opacity:1;" d="M 154.917969 105.136719 L 154.917969 114.695312 C 150.53125 118.300781 144.640625 125.515625 141.453125 132.910156 C 138.953125 131.824219 136.863281 130.476562 135.464844 129.304688 C 133.867188 127.949219 132.875 126.144531 132.875 124.160156 C 132.773438 120.554688 132.671875 114.695312 132.972656 114.421875 L 137.460938 107.027344 Z M 154.917969 105.136719 "/>
<path style=" stroke:none;fill-rule:nonzero;fill:rgb(21.176471%,21.176471%,21.176471%);fill-opacity:1;" d="M 158.609375 87.371094 C 157.910156 85.480469 155.71875 83.949219 153.519531 84.488281 C 154.019531 83.40625 153.820312 82.144531 153.019531 81.148438 C 150.53125 78.082031 147.140625 80.882812 144.84375 79.886719 C 143.644531 79.351562 140.453125 73.304688 133.964844 75.832031 C 130.476562 77.273438 129.378906 80.609375 131.375 82.777344 C 124.988281 81.960938 120.304688 88.003906 123.597656 92.78125 C 122.398438 93.503906 122.996094 94.859375 123.597656 95.847656 C 129.976562 106.667969 127.785156 104.683594 133.566406 105.316406 C 138.554688 105.769531 143.542969 105.585938 148.433594 104.597656 C 160.804688 102.164062 157.507812 99.996094 157.507812 97.019531 C 157.710938 93.777344 159.808594 90.621094 158.609375 87.371094 Z M 158.609375 87.371094 "/>
<path style=" stroke:none;fill-rule:nonzero;fill:rgb(100%,74.509804%,61.568627%);fill-opacity:1;" d="M 126.289062 94.046875 C 125.386719 101.890625 129.578125 119.109375 140.652344 121.550781 C 151.828125 123.980469 155.019531 108.746094 154.71875 105.679688 C 154.71875 105.679688 156.316406 107.117188 158.507812 105.046875 C 160.707031 102.972656 160.804688 96.121094 157.808594 96.570312 C 154.820312 97.019531 155.21875 101.890625 154.417969 101.980469 C 153.621094 102.070312 154.320312 99.273438 152.722656 97.292969 C 151.027344 95.398438 150.929688 94.046875 150.828125 92.691406 C 150.730469 91.429688 149.332031 87.371094 145.542969 89.175781 C 141.851562 90.980469 134.664062 93.503906 130.175781 91.703125 C 126.289062 90.257812 126.386719 92.601562 126.289062 94.046875 Z M 126.289062 94.046875 "/>
<path style=" stroke:none;fill-rule:nonzero;fill:url(#linear22);" d="M 203.894531 224.613281 C 203.894531 224.613281 129.183594 225.328125 107.832031 225.328125 C 89.078125 225.328125 91.476562 209.914062 92.375 206.214844 L 156.816406 206.214844 C 157.410156 206.214844 158.007812 205.941406 158.410156 205.492188 C 159.707031 205.585938 162.097656 205.585938 164.195312 204.683594 C 165.195312 204.230469 166.886719 203.332031 168.785156 202.25 C 173.972656 199.269531 186.839844 189.535156 196.316406 189.355469 C 196.714844 189.355469 197.214844 189.355469 197.609375 189.355469 C 203.195312 189.804688 215.371094 199.542969 203.894531 224.613281 Z M 203.894531 224.613281 "/>
<path style=" stroke:none;fill-rule:nonzero;fill:url(#linear23);" d="M 216.0625 209.371094 C 216.0625 214.417969 214.074219 215.230469 212.972656 220.375 C 210.28125 233.714844 206.1875 256.257812 201.898438 272.671875 C 201.105469 275.644531 200.40625 278.4375 199.707031 280.789062 L 178.0625 280.789062 C 179.355469 274.742188 180.152344 266.988281 179.554688 257.789062 C 178.960938 249.3125 177.960938 242.554688 177.363281 236.597656 C 176.464844 226.773438 176.964844 219.378906 182.949219 210.726562 C 191.128906 198.910156 187.839844 188.089844 198.308594 189.445312 C 205.496094 190.34375 216.0625 197.015625 216.0625 209.371094 Z M 216.0625 209.371094 "/>
<path style=" stroke:none;fill-rule:nonzero;fill:rgb(100%,74.509804%,61.568627%);fill-opacity:1;" d="M 204.695312 309.820312 C 204.695312 309.820312 187.738281 309.820312 178.261719 309.820312 L 172.175781 309.820312 C 170.175781 309.820312 167.484375 301.433594 173.472656 294.761719 C 173.472656 294.761719 176.265625 289.714844 178.0625 280.875 L 195.71875 280.875 C 194.21875 286.199219 193.21875 289.804688 193.320312 290.523438 C 193.421875 294.042969 197.316406 300.984375 200.90625 302.421875 C 207.085938 304.949219 205.792969 307.929688 204.695312 309.820312 Z M 204.695312 309.820312 "/>
<path style=" stroke:none;fill-rule:nonzero;fill:rgb(95.294118%,69.019608%,55.686275%);fill-opacity:1;" d="M 200.90625 302.421875 C 191.027344 298.816406 183.550781 294.3125 178.261719 297.644531 C 172.972656 300.984375 174.566406 308.289062 178.261719 309.910156 L 172.175781 309.910156 C 170.175781 309.910156 167.484375 301.523438 173.472656 294.851562 C 173.472656 294.851562 176.265625 289.804688 178.0625 280.964844 L 195.71875 280.964844 C 194.21875 286.285156 193.21875 289.890625 193.320312 290.613281 C 193.421875 294.042969 197.410156 300.890625 200.90625 302.421875 Z M 200.90625 302.421875 "/>
<path style=" stroke:none;fill-rule:nonzero;fill:url(#linear24);" d="M 202 272.671875 C 201.207031 275.644531 200.507812 278.4375 199.808594 280.789062 L 178.160156 280.789062 C 179.453125 274.742188 180.253906 266.988281 179.652344 257.789062 C 179.058594 249.3125 178.0625 242.554688 177.460938 236.597656 C 183.050781 254.457031 195.117188 266.8125 202 272.671875 Z M 202 272.671875 "/>
<path style=" stroke:none;fill-rule:nonzero;fill:url(#linear25);" d="M 196.316406 189.355469 L 194.820312 195.753906 L 188.4375 199.367188 C 178.261719 209.730469 176.0625 199.09375 168.785156 202.25 C 173.972656 199.367188 186.839844 189.621094 196.316406 189.355469 Z M 196.316406 189.355469 "/>
<path style=" stroke:none;fill-rule:nonzero;fill:url(#linear26);" d="M 198.507812 275.28125 L 184.042969 290.613281 L 181.253906 293.496094 C 174.171875 286.101562 153.21875 267.800781 142.648438 261.21875 C 131.074219 254.097656 115.816406 242.828125 107.933594 225.238281 C 107.933594 225.238281 100.851562 222.355469 100.253906 216.3125 C 99.453125 207.746094 114.816406 205.855469 124.09375 205.855469 C 135.066406 205.855469 137.863281 213.160156 141.050781 219.109375 C 144.34375 225.0625 145.441406 228.9375 154.71875 233.804688 C 163.996094 238.675781 184.441406 256.167969 198.507812 275.28125 Z M 198.507812 275.28125 "/>
<path style=" stroke:none;fill-rule:nonzero;fill:rgb(100%,74.509804%,61.568627%);fill-opacity:1;" d="M 225.242188 309.820312 L 210.382812 309.820312 C 202.097656 309.820312 193.421875 303.867188 185.441406 292.234375 C 185.140625 291.785156 184.640625 291.152344 184.042969 290.523438 L 198.609375 275.195312 C 199.40625 276.367188 200.304688 277.359375 201.003906 278.347656 C 213.273438 293.953125 218.160156 291.964844 225.242188 295.214844 C 232.828125 298.816406 232.226562 309.820312 225.242188 309.820312 Z M 225.242188 309.820312 "/>
<path style=" stroke:none;fill-rule:nonzero;fill:url(#linear27);" d="M 184.042969 290.613281 L 181.253906 293.496094 C 174.171875 286.101562 153.21875 267.800781 142.648438 261.21875 C 131.074219 254.097656 115.816406 242.828125 107.933594 225.238281 C 112.023438 225.238281 126.6875 227.679688 140.351562 244.449219 C 164.796875 274.382812 183.949219 290.523438 184.042969 290.613281 Z M 184.042969 290.613281 "/>
<path style=" stroke:none;fill-rule:nonzero;fill:rgb(95.294118%,69.019608%,55.686275%);fill-opacity:1;" d="M 219.859375 309.820312 L 210.28125 309.820312 C 202.003906 309.820312 193.324219 303.867188 185.339844 292.234375 C 185.042969 291.785156 184.542969 291.152344 183.949219 290.523438 L 198.507812 275.195312 C 199.308594 276.367188 200.207031 277.359375 200.90625 278.347656 C 197.117188 288.71875 202.996094 309.820312 219.859375 309.820312 Z M 219.859375 309.820312 "/>
<path style=" stroke:none;fill-rule:nonzero;fill:rgb(90.196078%,92.156863%,93.333333%);fill-opacity:1;" d="M 266.640625 291.964844 C 270.03125 303.867188 279.90625 310 287.191406 310 C 294.472656 310 303.351562 310 303.351562 310 L 303.351562 290.886719 Z M 266.640625 291.964844 "/>
<path style=" stroke:none;fill-rule:nonzero;fill:rgb(90.196078%,92.156863%,93.333333%);fill-opacity:1;" d="M 258.859375 282.5 C 258.859375 282.5 256.269531 301.34375 254.972656 303.867188 C 253.773438 306.304688 252.972656 310 249.785156 310 L 236.417969 310 C 235.71875 310 235.21875 309.367188 235.519531 308.738281 C 236.117188 307.207031 237.515625 306.304688 237.515625 306.304688 L 242.796875 303.144531 C 243.996094 302.335938 244.695312 301.164062 244.796875 299.902344 C 245.195312 293.769531 246.492188 275.738281 246.992188 269.605469 Z M 258.859375 282.5 "/>
<path style=" stroke:none;fill-rule:nonzero;fill:rgb(100%,100%,100%);fill-opacity:1;" d="M 307.839844 310 L 279.609375 310 C 276.316406 310 274.820312 306.300781 277.414062 304.410156 C 279.40625 302.96875 282.203125 302.695312 284.195312 302.695312 C 287.59375 302.695312 290.382812 302.695312 290.382812 302.695312 C 290.382812 298.007812 285.296875 295.664062 285.296875 295.664062 C 283.304688 295.664062 281.304688 295.390625 279.308594 294.941406 C 277.515625 294.578125 275.71875 293.945312 273.925781 293.230469 C 273.925781 293.230469 271.328125 301.25 270.03125 303.691406 C 268.835938 306.121094 268.039062 309.820312 264.847656 309.820312 L 251.480469 309.820312 C 250.78125 309.820312 250.28125 309.1875 250.582031 308.554688 C 251.183594 307.023438 252.574219 306.121094 252.574219 306.121094 L 256.371094 303.59375 C 257.464844 302.878906 258.160156 301.882812 258.261719 300.710938 C 258.761719 297.46875 259.859375 290.613281 260.257812 285.113281 C 252.074219 278.710938 244.996094 270.328125 240.007812 263.023438 C 230.328125 248.777344 235.417969 234.886719 240.507812 222.269531 L 275.019531 223.617188 C 275.019531 223.617188 275.117188 224.613281 275.21875 226.234375 C 275.519531 228.757812 276.019531 232.726562 276.917969 236.695312 C 277.617188 239.664062 278.613281 242.644531 280.007812 244.898438 C 287.191406 256.980469 293.671875 266.089844 296.871094 269.246094 C 300.058594 272.398438 310.335938 271.859375 312.527344 289.351562 C 314.925781 307.117188 307.839844 310 307.839844 310 Z M 307.839844 310 "/>
<path style=" stroke:none;fill-rule:nonzero;fill:rgb(90.196078%,92.156863%,93.333333%);fill-opacity:1;" d="M 277.015625 236.964844 C 274.226562 241.742188 269.335938 245.171875 264.648438 244.449219 C 259.160156 243.636719 261.652344 231.285156 258.960938 231.734375 L 272.828125 224.699219 C 272.828125 224.699219 274.027344 225.328125 275.320312 226.507812 C 275.519531 229.027344 276.019531 232.996094 277.015625 236.964844 Z M 277.015625 236.964844 "/>
<path style=" stroke:none;fill-rule:nonzero;fill:rgb(100%,100%,100%);fill-opacity:1;" d="M 251.480469 198.460938 L 242.996094 209.914062 C 242.996094 209.914062 237.816406 221.636719 235.917969 223.890625 C 234.019531 226.140625 232.328125 224.96875 232.328125 224.96875 L 234.019531 221.453125 C 231.429688 218.929688 230.230469 216.3125 229.929688 213.96875 C 229.4375 209.914062 231.726562 206.574219 234.019531 206.039062 C 237.816406 205.132812 237.914062 203.507812 240.007812 200.894531 C 242.203125 198.371094 245.792969 200.355469 251.480469 198.460938 Z M 251.480469 198.460938 "/>
<path style=" stroke:none;fill-rule:nonzero;fill:rgb(90.196078%,92.156863%,93.333333%);fill-opacity:1;" d="M 246.792969 201.347656 C 246.691406 201.527344 243.296875 207.929688 239.507812 211.898438 C 235.617188 215.863281 235.417969 218.746094 234.019531 221.546875 C 231.429688 219.019531 230.230469 216.402344 229.929688 214.058594 C 230.230469 210.277344 237.214844 210.726562 240.007812 207.296875 C 242.898438 203.871094 246.691406 201.4375 246.792969 201.347656 Z M 246.792969 201.347656 "/>
<path style=" stroke:none;fill-rule:nonzero;fill:rgb(100%,100%,100%);fill-opacity:1;" d="M 272.726562 224.699219 C 271.429688 227.496094 270.332031 228.304688 266.539062 229.027344 C 266.441406 229.027344 266.339844 229.027344 266.242188 229.117188 C 265.046875 229.390625 264.347656 229.75 263.550781 230.199219 C 262.050781 231.011719 260.359375 232.273438 254.871094 234.078125 C 246.195312 236.871094 240.304688 231.460938 241.207031 228.488281 C 241.40625 227.945312 241.40625 227.40625 241.304688 226.773438 C 241.304688 226.59375 241.304688 226.410156 241.207031 226.234375 C 241.003906 225.238281 240.707031 224.066406 240.40625 222.625 C 240.007812 220.824219 239.808594 218.570312 240.007812 215.863281 C 240.207031 214.242188 240.507812 212.4375 241.105469 210.453125 C 244.195312 200.265625 252.574219 196.660156 258.261719 197.738281 C 264.050781 198.820312 270.128906 203.238281 272.527344 206.488281 C 272.527344 206.488281 272.726562 209.191406 272.925781 212.523438 C 273.425781 217.125 273.527344 223.078125 272.726562 224.699219 Z M 272.726562 224.699219 "/>
<path style=" stroke:none;fill-rule:nonzero;fill:rgb(21.176471%,21.176471%,21.176471%);fill-opacity:1;" d="M 244.394531 209.007812 C 244.695312 206.9375 249.582031 206.125 249.285156 209.464844 C 249.183594 210.8125 247.886719 211.265625 246.492188 211.265625 C 245.195312 211.265625 244.195312 210.277344 244.394531 209.007812 Z M 244.394531 209.007812 "/>
<path style=" stroke:none;fill-rule:nonzero;fill:rgb(21.176471%,21.176471%,21.176471%);fill-opacity:1;" d="M 266.539062 215.863281 C 263.75 217.847656 259.859375 215.863281 260.757812 213.609375 C 261.058594 212.796875 262.550781 211.535156 264.648438 212.886719 C 266.539062 214.152344 266.742188 215.773438 266.539062 215.863281 Z M 266.539062 215.863281 "/>
<path style=" stroke:none;fill-rule:nonzero;fill:rgb(21.176471%,21.176471%,21.176471%);fill-opacity:1;" d="M 245.496094 219.742188 C 245.292969 218.117188 246.792969 215.6875 249.984375 216.761719 C 253.074219 217.847656 255.371094 218.480469 254.972656 220.914062 C 254.570312 223.980469 249.683594 224.066406 248.882812 223.890625 C 247.984375 223.707031 245.59375 221.273438 245.496094 219.742188 Z M 245.496094 219.742188 "/>
<path style=" stroke:none;fill-rule:nonzero;fill:rgb(100%,100%,100%);fill-opacity:1;" d="M 270.429688 211.265625 C 270.429688 211.265625 270.53125 211.265625 270.53125 211.351562 Z M 270.429688 211.265625 "/>
<path style=" stroke:none;fill-rule:nonzero;fill:rgb(90.196078%,92.156863%,93.333333%);fill-opacity:1;" d="M 272.726562 224.699219 C 271.429688 227.496094 270.332031 228.304688 266.539062 229.027344 C 265.148438 229.300781 264.449219 229.660156 263.550781 230.113281 C 267.839844 227.222656 271.628906 212.257812 270.429688 211.351562 L 273.027344 212.4375 C 273.425781 217.125 273.527344 223.078125 272.726562 224.699219 Z M 272.726562 224.699219 "/>
<path style=" stroke:none;fill-rule:nonzero;fill:rgb(90.196078%,92.156863%,93.333333%);fill-opacity:1;" d="M 245.394531 215.140625 C 242.597656 216.675781 240.105469 219.828125 240.507812 222.535156 C 240.105469 220.734375 239.90625 218.480469 240.105469 215.773438 C 240.707031 213.160156 247.285156 214.058594 245.394531 215.140625 Z M 245.394531 215.140625 "/>
<path style=" stroke:none;fill-rule:nonzero;fill:rgb(90.196078%,92.156863%,93.333333%);fill-opacity:1;" d="M 257.164062 217.308594 C 259.359375 220.191406 258.261719 223.441406 259.160156 224.613281 C 260.058594 225.785156 262.152344 225.0625 263.648438 225.328125 C 264.25 225.421875 263.75 224.339844 263.050781 223.527344 C 262.25 222.535156 261.160156 221.546875 260.660156 220.101562 C 259.359375 216.585938 255.472656 215.140625 257.164062 217.308594 Z M 257.164062 217.308594 "/>
<path style=" stroke:none;fill-rule:nonzero;fill:rgb(100%,100%,100%);fill-opacity:1;" d="M 278.910156 231.644531 C 277.414062 232.457031 276.515625 233.265625 275.816406 233.988281 C 275.519531 234.351562 275.21875 234.710938 275.117188 234.976562 C 274.820312 235.523438 274.027344 235.523438 273.625 235.160156 C 270.128906 231.644531 269.335938 225.0625 270.429688 220.191406 C 270.628906 219.46875 270.730469 218.746094 270.929688 218.03125 C 271.03125 217.574219 271.128906 217.125 271.230469 216.675781 C 271.929688 213.519531 272.128906 211.714844 270.429688 211.265625 L 272.726562 206.398438 C 275.117188 210.542969 279.308594 209.730469 279.707031 212.347656 C 280.105469 214.964844 281.804688 217.574219 285.195312 222.171875 C 288.585938 226.683594 282.804688 229.476562 278.910156 231.644531 Z M 278.910156 231.644531 "/>
<path style=" stroke:none;fill-rule:nonzero;fill:rgb(90.196078%,92.156863%,93.333333%);fill-opacity:1;" d="M 275.917969 233.988281 C 275.617188 234.351562 275.320312 234.710938 275.21875 234.976562 C 274.917969 235.523438 274.125 235.523438 273.726562 235.160156 C 270.230469 231.644531 269.4375 225.0625 270.53125 220.191406 C 270.730469 219.46875 270.828125 218.746094 271.03125 218.03125 C 270.234375 222.71875 271.828125 231.101562 275.917969 233.988281 Z M 275.917969 233.988281 "/>
<path style=" stroke:none;fill-rule:nonzero;fill:rgb(90.196078%,92.156863%,93.333333%);fill-opacity:1;" d="M 266.339844 229.027344 C 265.148438 229.300781 264.449219 229.660156 263.648438 230.113281 C 262.152344 230.921875 260.460938 232.183594 254.972656 233.988281 C 246.292969 236.78125 240.40625 231.371094 241.304688 228.394531 C 241.503906 227.855469 241.503906 227.316406 241.40625 226.683594 C 241.90625 228.488281 244.695312 228.757812 247.285156 227.945312 C 249.382812 227.222656 252.074219 232.996094 257.363281 231.195312 C 262.652344 229.390625 266.140625 227.765625 267.140625 225.421875 C 267.539062 224.25 267.039062 226.410156 266.339844 229.027344 Z M 266.339844 229.027344 "/>
<path style=" stroke:none;fill-rule:nonzero;fill:rgb(90.196078%,92.156863%,93.333333%);fill-opacity:1;" d="M 286.09375 302.785156 C 290.28125 302.785156 290.78125 310 294.371094 310 C 297.960938 310 303.75 310 305.246094 310 C 306.742188 310 301.160156 302.785156 290.28125 302.785156 Z M 286.09375 302.785156 "/>
<path style=" stroke:none;fill-rule:nonzero;fill:rgb(90.196078%,92.156863%,93.333333%);fill-opacity:1;" d="M 285.195312 295.753906 C 283.203125 295.753906 281.207031 295.480469 279.207031 295.03125 C 278.214844 292.234375 277.714844 288.085938 280.804688 283.757812 C 285.992188 276.453125 295.871094 277.898438 295.871094 277.898438 C 281.605469 279.070312 280.707031 291.785156 285.195312 295.753906 Z M 285.195312 295.753906 "/>
<path style=" stroke:none;fill-rule:nonzero;fill:rgb(90.196078%,92.156863%,93.333333%);fill-opacity:1;" d="M 260.359375 261.578125 C 261.953125 262.574219 261.453125 277.808594 260.359375 285.292969 C 260.359375 285.292969 259.160156 284.390625 258.960938 284.121094 C 258.761719 283.847656 260.359375 261.578125 260.359375 261.578125 Z M 260.359375 261.578125 "/>
<path style=" stroke:none;fill-rule:nonzero;fill:rgb(90.196078%,92.156863%,93.333333%);fill-opacity:1;" d="M 282.105469 273.484375 C 280.308594 273.300781 279.40625 273.933594 278.113281 279.882812 C 276.816406 285.742188 273.824219 293.40625 273.824219 293.40625 C 273.824219 293.40625 282.105469 278.347656 282.105469 273.484375 Z M 282.105469 273.484375 "/>
</g>
</svg>
