<svg width="501" height="278" viewBox="0 0 501 278" fill="none" xmlns="http://www.w3.org/2000/svg">
<g clip-path="url(#clip0_107_221)">
<path d="M307.479 15.0152C355.7 15.2603 408.166 16.2134 439.632 46.6788C472.471 78.4746 474.165 124.074 462.213 164.833C450.338 205.328 423.497 244.759 377.031 260.156C332.93 274.769 287.882 253.179 244.608 236.939C198.043 219.465 140.964 206.889 126.371 166.091C111.025 123.187 138.112 77.0057 176.074 45.3387C209.876 17.1416 259.664 14.772 307.479 15.0152Z" fill="#DEE5F6"/>
<path d="M214.632 69.6943H213.223V218.602H214.632V69.6943Z" fill="#E0E0E0"/>
<path d="M315.583 69.6943H314.174V218.602H315.583V69.6943Z" fill="#E0E0E0"/>
<path d="M416.535 69.6943H415.126V218.602H416.535V69.6943Z" fill="#E0E0E0"/>
<path d="M135.251 51.3843H114.943C113.87 51.3843 113 52.2541 113 53.327C113 54.3999 113.87 55.2697 114.943 55.2697H135.251C136.324 55.2697 137.193 54.3999 137.193 53.327C137.193 52.2541 136.324 51.3843 135.251 51.3843Z" fill="url(#paint0_linear_107_221)"/>
<path d="M145.356 58.5237H114.943C113.87 58.5237 113 59.3935 113 60.4664C113 61.5393 113.87 62.4091 114.943 62.4091H145.356C146.428 62.4091 147.298 61.5393 147.298 60.4664C147.298 59.3935 146.428 58.5237 145.356 58.5237Z" fill="url(#paint1_linear_107_221)"/>
<path d="M239.311 51.3843H214.825C213.752 51.3843 212.883 52.2541 212.883 53.327C212.883 54.3999 213.752 55.2697 214.825 55.2697H239.311C240.384 55.2697 241.254 54.3999 241.254 53.327C241.254 52.2541 240.384 51.3843 239.311 51.3843Z" fill="url(#paint2_linear_107_221)"/>
<path d="M229.109 58.5237H214.825C213.752 58.5237 212.883 59.3935 212.883 60.4664C212.883 61.5393 213.752 62.4091 214.825 62.4091H229.109C230.182 62.4091 231.052 61.5393 231.052 60.4664C231.052 59.3935 230.182 58.5237 229.109 58.5237Z" fill="url(#paint3_linear_107_221)"/>
<path d="M331.227 51.3843H317.526C316.453 51.3843 315.583 52.2541 315.583 53.327C315.583 54.3999 316.453 55.2697 317.526 55.2697H331.227C332.3 55.2697 333.169 54.3999 333.169 53.327C333.169 52.2541 332.3 51.3843 331.227 51.3843Z" fill="url(#paint4_linear_107_221)"/>
<path d="M334.142 58.5237H317.526C316.453 58.5237 315.583 59.3935 315.583 60.4664C315.583 61.5393 316.453 62.4091 317.526 62.4091H334.142C335.214 62.4091 336.084 61.5393 336.084 60.4664C336.084 59.3935 335.214 58.5237 334.142 58.5237Z" fill="url(#paint5_linear_107_221)"/>
<path d="M440.194 51.3843H418.477C417.404 51.3843 416.534 52.2541 416.534 53.327C416.534 54.3999 417.404 55.2697 418.477 55.2697H440.194C441.267 55.2697 442.137 54.3999 442.137 53.327C442.137 52.2541 441.267 51.3843 440.194 51.3843Z" fill="url(#paint6_linear_107_221)"/>
<path d="M435.093 58.5237H418.477C417.404 58.5237 416.534 59.3935 416.534 60.4664C416.534 61.5393 417.404 62.4091 418.477 62.4091H435.093C436.166 62.4091 437.036 61.5393 437.036 60.4664C437.036 59.3935 436.166 58.5237 435.093 58.5237Z" fill="url(#paint7_linear_107_221)"/>
<path d="M230.032 227.441H213.952V232.638H230.032V227.441Z" fill="#B8B8B8"/>
<path d="M329.065 227.441H318.181C316.746 227.441 315.583 228.605 315.583 230.04C315.583 231.475 316.746 232.638 318.181 232.638H329.065C330.5 232.638 331.663 231.475 331.663 230.04C331.663 228.605 330.5 227.441 329.065 227.441Z" fill="url(#paint8_linear_107_221)"/>
<path d="M430.016 227.441H419.133C417.698 227.441 416.534 228.605 416.534 230.04C416.534 231.475 417.698 232.638 419.133 232.638H430.016C431.451 232.638 432.615 231.475 432.615 230.04C432.615 228.605 431.451 227.441 430.016 227.441Z" fill="url(#paint9_linear_107_221)"/>
<path d="M516.806 168.869C503.835 173.24 493.438 174.357 481.827 174.357C450.347 174.357 422.947 160.758 394.43 146.577C359.209 129.044 322.773 110.977 274.24 115.931C243.246 119.087 223.813 131.715 206.616 142.837C191.07 152.939 176.398 161.778 156.48 162.555C124.319 163.769 113.194 150.073 113 149.199V140.409C113.049 140.554 120.044 155.95 156.48 155.756C174.406 155.659 187.62 147.062 202.972 137.155C220.753 125.595 240.962 112.531 273.56 109.18C324.036 104.032 361.346 122.584 397.442 140.506C435.19 159.301 471.237 176.883 516.806 161.632" fill="url(#paint10_linear_107_221)"/>
<path d="M516.806 127.247C455.448 65.6632 403.223 104.663 338.173 154.396C320.927 167.558 306.11 172.657 292.798 172.657C269.577 172.657 251.116 157.019 233.092 141.72C219.392 130.112 205.207 118.262 188.835 112.434C138.797 94.6094 113.243 127.198 113 127.49V117.582C113.291 117.242 117.858 111.317 131.024 105.683C143.023 100.535 163.233 96.4064 191.021 106.12C208.656 112.239 223.279 124.673 237.465 136.669C266.176 161.001 291.001 182.031 334.044 149.102C366.642 124.187 397.393 100.389 427.659 91.6954C457.245 83.1961 488.094 89.4127 517 118.31" fill="url(#paint11_linear_107_221)"/>
<path opacity="0.32" d="M411.774 83.4389H218.664C211.231 83.4389 205.207 77.4165 205.207 69.9857V13.4532C205.207 6.02236 211.231 0 218.664 0H411.774C419.207 0 425.231 6.02236 425.231 13.4532V69.9857C425.231 77.4165 419.207 83.4389 411.774 83.4389Z" fill="url(#paint12_linear_107_221)"/>
<path d="M377.378 71.0055C361.881 71.0055 349.298 58.4266 349.298 42.9336C349.298 27.4405 361.881 14.8616 377.378 14.8616C392.876 14.8616 405.458 27.4405 405.458 42.9336C405.458 58.4266 392.876 71.0055 377.378 71.0055ZM377.378 20.4468C364.99 20.4468 354.885 30.5489 354.885 42.9336C354.885 55.3182 364.99 65.4203 377.378 65.4203C389.766 65.4203 399.871 55.3182 399.871 42.9336C399.823 30.5489 389.766 20.4468 377.378 20.4468Z" fill="url(#paint13_linear_107_221)"/>
<path d="M327.705 22.1467H257.649C255.785 22.1467 254.274 23.658 254.274 25.5222C254.274 27.3864 255.785 28.8976 257.649 28.8976H327.705C329.569 28.8976 331.081 27.3864 331.081 25.5222C331.081 23.658 329.569 22.1467 327.705 22.1467Z" fill="white"/>
<path d="M327.705 39.5339H268.968C267.104 39.5339 265.593 41.0452 265.593 42.9094C265.593 44.7736 267.104 46.2848 268.968 46.2848H327.705C329.569 46.2848 331.08 44.7736 331.08 42.9094C331.08 41.0452 329.569 39.5339 327.705 39.5339Z" fill="white"/>
<path d="M327.705 56.9695H229.132C227.268 56.9695 225.757 58.4807 225.757 60.3449C225.757 62.2091 227.268 63.7204 229.132 63.7204H327.705C329.569 63.7204 331.08 62.2091 331.08 60.3449C331.08 58.4807 329.569 56.9695 327.705 56.9695Z" fill="white"/>
<g opacity="0.74">
<path opacity="0.74" d="M398.899 188.296H309.024C305.187 188.296 302.077 185.188 302.077 181.351V99.5633C302.077 95.7265 305.187 92.6182 309.024 92.6182H398.948C402.786 92.6182 405.895 95.7265 405.895 99.5633V181.399C405.846 185.188 402.737 188.296 398.899 188.296Z" fill="url(#paint14_linear_107_221)"/>
</g>
<path d="M347.647 163.964H316.36C315.26 163.964 314.368 164.855 314.368 165.955C314.368 167.055 315.26 167.946 316.36 167.946H347.647C348.747 167.946 349.638 167.055 349.638 165.955C349.638 164.855 348.747 163.964 347.647 163.964Z" fill="white"/>
<path d="M334.093 163.964H316.36C315.26 163.964 314.368 164.855 314.368 165.955C314.368 167.055 315.26 167.946 316.36 167.946H334.093C335.193 167.946 336.084 167.055 336.084 165.955C336.084 164.855 335.193 163.964 334.093 163.964Z" fill="url(#paint15_linear_107_221)"/>
<path d="M367.371 172.463H316.36C315.26 172.463 314.368 173.354 314.368 174.454C314.368 175.554 315.26 176.445 316.36 176.445H367.371C368.471 176.445 369.362 175.554 369.362 174.454C369.362 173.354 368.471 172.463 367.371 172.463Z" fill="white"/>
<path d="M343.178 172.463H316.36C315.26 172.463 314.368 173.354 314.368 174.454C314.368 175.554 315.26 176.445 316.36 176.445H343.178C344.277 176.445 345.169 175.554 345.169 174.454C345.169 173.354 344.277 172.463 343.178 172.463Z" fill="url(#paint16_linear_107_221)"/>
<path d="M393.458 170.229C393.458 174.794 389.766 178.534 385.151 178.534C380.584 178.534 376.844 174.843 376.844 170.229C376.844 165.664 380.536 161.924 385.151 161.924C389.718 161.924 393.458 165.615 393.458 170.229Z" fill="url(#paint17_linear_107_221)"/>
<path d="M384.325 174.066L380.682 170.423L382.285 168.772L384.325 170.86L388.017 167.169L389.621 168.772L384.325 174.066Z" fill="white"/>
<path d="M375.386 127.927L336.084 105.246V150.608L375.386 127.927Z" fill="url(#paint18_linear_107_221)"/>
<path d="M320.975 258.039C320.975 258.039 328.311 261.341 331.614 262.507C334.869 263.672 346.917 262.361 348.229 263.381C349.541 264.401 349.638 268.286 347.695 268.966C345.751 269.646 331.42 273.192 326.416 272.657C321.412 272.172 312.619 275.523 310.53 275.086C308.441 274.649 308.247 262.847 308.684 260.127C309.121 257.456 320.975 258.039 320.975 258.039Z" fill="#2860A3"/>
<path d="M319.324 253.279L321.024 257.99C321.024 257.99 312.182 261.147 308.733 260.127L307.567 255.319L319.324 253.279Z" fill="#FFD2C7"/>
<path d="M301.203 262.216C301.203 262.216 308.102 266.441 311.259 267.995C314.369 269.549 326.465 269.792 327.68 271.006C328.894 272.221 328.506 276.057 326.514 276.494C324.522 276.932 309.899 278.631 304.992 277.466C300.086 276.349 290.953 278.583 288.961 277.854C286.92 277.174 288.038 265.421 288.766 262.798C289.495 260.127 301.203 262.216 301.203 262.216Z" fill="#2860A3"/>
<path d="M300.183 257.31L301.203 262.216C301.203 262.216 292.07 264.207 288.718 262.798L288.086 257.845L300.183 257.31Z" fill="#FFD2C7"/>
<path d="M230.809 168.917C230.809 168.917 262.387 169.209 266.225 169.743C270.403 170.326 286.823 170.86 288.815 173.871C308.83 204.226 321.898 253.959 321.898 253.959L306.061 257.067C306.061 257.067 290.758 227.441 284.345 212.045C278.613 198.204 273.657 194.658 261.609 194.998C249.513 195.29 210.891 192.618 188.641 189.899L230.809 168.917Z" fill="#1B4E8B"/>
<path d="M227.457 95.7751C227.457 95.7751 236.833 115.931 236.056 123.41C235.278 130.889 227.262 151.628 226.679 155.804C226.096 159.981 230.177 168.189 230.177 168.189L188.009 187.713C188.009 187.713 186.309 175.377 188.009 161.147C189.709 146.917 190.972 131.666 192.818 123.653C199.231 96.2608 216.137 84.896 216.137 84.896L227.457 95.7751Z" fill="url(#paint19_linear_107_221)"/>
<path d="M230.226 168.189C230.226 168.189 261.804 168.481 265.642 169.015C269.82 169.598 286.629 169.889 288.232 173.143C299.697 196.31 302.272 258.088 302.272 258.088L287.503 259.885C287.503 259.885 280.265 228.51 277.981 213.6C275.698 198.641 272.88 196.504 260.784 196.795C248.687 197.087 201.369 209.18 188.009 187.713L230.226 168.189Z" fill="#2860A3"/>
<path d="M202.972 114.813C203.069 110.928 205.353 94.0751 214.826 95.2408C224.348 96.4064 223.23 107.771 222.356 116.368C221.433 125.353 216.769 147.402 218.275 148.519C219.781 149.636 231.052 153.036 233.432 153.522C235.861 154.007 250.484 157.601 251.65 157.941C252.816 158.281 250.484 163.964 250.484 163.964C250.484 163.964 210.016 162.798 203.264 159.593C196.511 156.387 202.972 114.813 202.972 114.813Z" fill="#FFD2C7"/>
<path d="M251.65 157.941C251.65 157.941 254.662 158.718 256.12 158.816C257.577 158.913 264.427 156.193 266.565 156.581C268.702 156.97 282.451 163.624 283.034 164.061C283.665 164.547 282.645 165.421 282.645 165.421L250.436 164.255L251.65 157.941Z" fill="#FFD2C7"/>
<path d="M291.955 165.632L238.413 163.469L238.215 168.371L291.757 170.534L291.955 165.632Z" fill="#807066"/>
<path d="M305.294 118.463L287.182 168.883L291.8 170.541L309.912 120.121L305.294 118.463Z" fill="#807066"/>
<path d="M252.039 64.0604C252.039 64.0604 253.059 72.3168 250.824 72.6568C248.978 72.9482 249.61 80.9133 249.61 82.176C249.61 83.4388 246.112 83.0017 245.189 83.4388C244.217 83.8759 238.873 91.7924 236.153 91.0153C233.432 90.2382 223.327 81.5932 221.433 77.0279C219.538 72.4625 222.793 56.4353 227.408 50.9472C231.975 45.459 250.193 49.5873 252.039 64.0604Z" fill="#FFD2C7"/>
<path d="M230.906 85.1873C230.906 85.1873 230.615 85.9158 230.226 87.0328C229.935 87.8585 229.546 88.927 229.206 90.044C228.186 93.1038 227.068 96.8435 226.971 98.689C226.826 102.089 216.186 84.9444 216.186 84.9444C216.186 84.9444 220.024 74.5996 222.405 62.5063C224.737 50.3644 230.906 85.1873 230.906 85.1873Z" fill="#FFD2C7"/>
<path d="M252.185 65.8088C252.185 65.8088 258.84 59.8836 254.128 51.7729C249.416 43.6135 233.092 48.276 231.538 48.1303C229.983 47.936 221.822 45.362 220.218 61.0978C218.615 76.8337 219.635 74.4539 219.635 74.4539C219.635 74.4539 223.668 67.703 226.485 68.7715C229.352 69.84 234.355 70.3742 234.355 70.3742C234.355 70.3742 234.453 63.0405 238.582 63.6233C242.711 64.1576 248.93 62.8948 252.185 65.8088Z" fill="#434343"/>
<path d="M202.243 115.542L223.91 116.319C223.91 116.319 227.262 93.7352 214.826 94.1723C202.34 94.6094 202.243 115.542 202.243 115.542Z" fill="url(#paint20_linear_107_221)"/>
<path d="M231.781 65.129C231.781 64.1091 232.218 59.9323 228.088 60.855C224.008 61.8264 226.437 70.9571 226.971 71.297C227.505 71.637 231.683 73.6283 231.781 65.129Z" fill="#FFD2C7"/>
<path d="M259.423 195.969H167.945V276.543H259.423V195.969Z" fill="url(#paint21_linear_107_221)"/>
<path opacity="0.2" d="M167.945 276.543H259C259 276.543 208.149 275.395 188.305 254.332C171.76 236.77 167.945 196 167.945 196V276.543Z" fill="url(#paint22_linear_107_221)"/>
<path d="M216.186 84.896C216.186 84.896 234.793 118.505 234.307 113.745C233.918 110.005 225.854 92.0354 225.854 92.0354L216.186 84.896Z" fill="#FFD2C7"/>
<path d="M230.226 87.0327C229.935 87.8584 229.546 88.9268 229.206 90.0439C225.465 85.3814 222.842 80.0876 222.064 78.4363C223.619 81.2532 230.226 87.0327 230.226 87.0327Z" fill="#E8B9AE"/>
<rect x="75" y="1" width="91" height="277" fill="url(#paint23_linear_107_221)"/>
<rect x="517" y="277" width="80" height="277" transform="rotate(-180 517 277)" fill="url(#paint24_linear_107_221)"/>
</g>
<defs>
<linearGradient id="paint0_linear_107_221" x1="112.623" y1="47.7576" x2="114.597" y2="61.1183" gradientUnits="userSpaceOnUse">
<stop offset="0.0353535" stop-color="#333EA4"/>
<stop offset="1" stop-color="#6F7DF9"/>
</linearGradient>
<linearGradient id="paint1_linear_107_221" x1="112.466" y1="54.897" x2="113.873" y2="68.4027" gradientUnits="userSpaceOnUse">
<stop offset="0.0353535" stop-color="#333EA4"/>
<stop offset="1" stop-color="#6F7DF9"/>
</linearGradient>
<linearGradient id="paint2_linear_107_221" x1="212.441" y1="47.7576" x2="214.134" y2="61.1967" gradientUnits="userSpaceOnUse">
<stop offset="0.0353535" stop-color="#333EA4"/>
<stop offset="1" stop-color="#6F7DF9"/>
</linearGradient>
<linearGradient id="paint3_linear_107_221" x1="212.6" y1="54.897" x2="215.185" y2="68.0407" gradientUnits="userSpaceOnUse">
<stop offset="0.0353535" stop-color="#333EA4"/>
<stop offset="1" stop-color="#6F7DF9"/>
</linearGradient>
<linearGradient id="paint4_linear_107_221" x1="315.309" y1="47.7576" x2="317.974" y2="60.8684" gradientUnits="userSpaceOnUse">
<stop offset="0.0353535" stop-color="#333EA4"/>
<stop offset="1" stop-color="#6F7DF9"/>
</linearGradient>
<linearGradient id="paint5_linear_107_221" x1="315.264" y1="54.897" x2="317.574" y2="68.1466" gradientUnits="userSpaceOnUse">
<stop offset="0.0353535" stop-color="#333EA4"/>
<stop offset="1" stop-color="#6F7DF9"/>
</linearGradient>
<linearGradient id="paint6_linear_107_221" x1="416.136" y1="47.7576" x2="418.005" y2="61.1489" gradientUnits="userSpaceOnUse">
<stop offset="0.0353535" stop-color="#333EA4"/>
<stop offset="1" stop-color="#6F7DF9"/>
</linearGradient>
<linearGradient id="paint7_linear_107_221" x1="416.215" y1="54.897" x2="418.525" y2="68.1466" gradientUnits="userSpaceOnUse">
<stop offset="0.0353535" stop-color="#333EA4"/>
<stop offset="1" stop-color="#6F7DF9"/>
</linearGradient>
<linearGradient id="paint8_linear_107_221" x1="315.333" y1="222.591" x2="320.32" y2="239.368" gradientUnits="userSpaceOnUse">
<stop offset="0.0353535" stop-color="#333EA4"/>
<stop offset="1" stop-color="#6F7DF9"/>
</linearGradient>
<linearGradient id="paint9_linear_107_221" x1="416.284" y1="222.591" x2="421.272" y2="239.368" gradientUnits="userSpaceOnUse">
<stop offset="0.0353535" stop-color="#333EA4"/>
<stop offset="1" stop-color="#6F7DF9"/>
</linearGradient>
<linearGradient id="paint10_linear_107_221" x1="106.711" y1="46.6551" x2="140.861" y2="273.601" gradientUnits="userSpaceOnUse">
<stop offset="0.0353535" stop-color="#333EA4"/>
<stop offset="1" stop-color="#6F7DF9"/>
</linearGradient>
<linearGradient id="paint11_linear_107_221" x1="295.633" y1="71.599" x2="290.01" y2="179.9" gradientUnits="userSpaceOnUse">
<stop offset="0.0353535" stop-color="#1968B3"/>
<stop offset="1" stop-color="#4C97DD"/>
</linearGradient>
<linearGradient id="paint12_linear_107_221" x1="205.214" y1="41.7153" x2="425.252" y2="41.7153" gradientUnits="userSpaceOnUse">
<stop stop-color="#40A9E6"/>
<stop offset="1" stop-color="#1FA9FF"/>
</linearGradient>
<linearGradient id="paint13_linear_107_221" x1="348.424" y1="-37.5436" x2="446.717" y2="69.3328" gradientUnits="userSpaceOnUse">
<stop offset="0.0353535" stop-color="#333EA4"/>
<stop offset="1" stop-color="#6F7DF9"/>
</linearGradient>
<linearGradient id="paint14_linear_107_221" x1="353.97" y1="195.004" x2="353.97" y2="33.0867" gradientUnits="userSpaceOnUse">
<stop stop-color="#8EC3F9"/>
<stop offset="1" stop-color="#B8EBFF"/>
</linearGradient>
<linearGradient id="paint15_linear_107_221" x1="314.03" y1="160.246" x2="316.326" y2="173.853" gradientUnits="userSpaceOnUse">
<stop offset="0.0353535" stop-color="#333EA4"/>
<stop offset="1" stop-color="#6F7DF9"/>
</linearGradient>
<linearGradient id="paint16_linear_107_221" x1="313.889" y1="168.746" x2="315.53" y2="182.544" gradientUnits="userSpaceOnUse">
<stop offset="0.0353535" stop-color="#333EA4"/>
<stop offset="1" stop-color="#6F7DF9"/>
</linearGradient>
<linearGradient id="paint17_linear_107_221" x1="376.585" y1="146.42" x2="405.665" y2="178.039" gradientUnits="userSpaceOnUse">
<stop offset="0.0353535" stop-color="#333EA4"/>
<stop offset="1" stop-color="#6F7DF9"/>
</linearGradient>
<linearGradient id="paint18_linear_107_221" x1="335.472" y1="62.9044" x2="415.024" y2="137.827" gradientUnits="userSpaceOnUse">
<stop offset="0.0353535" stop-color="#333EA4"/>
<stop offset="1" stop-color="#6F7DF9"/>
</linearGradient>
<linearGradient id="paint19_linear_107_221" x1="209.336" y1="64.7065" x2="155.075" y2="168.525" gradientUnits="userSpaceOnUse">
<stop offset="0.0353535" stop-color="#1968B3"/>
<stop offset="1" stop-color="#4C97DD"/>
</linearGradient>
<linearGradient id="paint20_linear_107_221" x1="212.224" y1="89.816" x2="205.543" y2="116.63" gradientUnits="userSpaceOnUse">
<stop offset="0.0353535" stop-color="#1968B3"/>
<stop offset="1" stop-color="#4C97DD"/>
</linearGradient>
<linearGradient id="paint21_linear_107_221" x1="166.52" y1="120.762" x2="305.003" y2="291.667" gradientUnits="userSpaceOnUse">
<stop offset="0.0353535" stop-color="#333EA4"/>
<stop offset="1" stop-color="#6F7DF9"/>
</linearGradient>
<linearGradient id="paint22_linear_107_221" x1="240.4" y1="359.749" x2="243.781" y2="377.163" gradientUnits="userSpaceOnUse">
<stop offset="0.0353535" stop-color="#065CAD"/>
<stop offset="1" stop-color="#3B92E4"/>
</linearGradient>
<linearGradient id="paint23_linear_107_221" x1="108.758" y1="129.5" x2="165.962" y2="128.02" gradientUnits="userSpaceOnUse">
<stop stop-color="white"/>
<stop offset="1" stop-color="white" stop-opacity="0"/>
</linearGradient>
<linearGradient id="paint24_linear_107_221" x1="546.677" y1="405.5" x2="596.974" y2="404.356" gradientUnits="userSpaceOnUse">
<stop stop-color="white"/>
<stop offset="1" stop-color="white" stop-opacity="0"/>
</linearGradient>
<clipPath id="clip0_107_221">
<rect width="501" height="278" fill="white"/>
</clipPath>
</defs>
</svg>
