<?xml version="1.0" standalone="no"?>
<!DOCTYPE svg PUBLIC "-//W3C//DTD SVG 20010904//EN"
 "http://www.w3.org/TR/2001/REC-SVG-20010904/DTD/svg10.dtd">
<svg version="1.0" xmlns="http://www.w3.org/2000/svg"
 width="71.000000pt" height="71.000000pt" viewBox="0 0 71.000000 71.000000"
 preserveAspectRatio="xMidYMid meet">
<metadata>
Created by potrace 1.14, written by Peter Selinger 2001-2017
</metadata>
<g transform="translate(0.000000,71.000000) scale(0.100000,-0.100000)"
fill="#000000" stroke="none">
<path d="M309 682 c4 -10 6 -23 4 -29 -3 -7 1 -13 7 -13 7 0 10 8 7 20 -3 10
0 21 6 23 6 2 2 6 -11 9 -18 5 -20 3 -13 -10z"/>
<path d="M245 680 c-26 -10 -52 -40 -36 -40 6 0 11 -7 11 -16 0 -8 5 -12 10
-9 6 3 10 -1 10 -9 0 -9 8 -16 17 -16 13 0 11 6 -11 29 -16 17 -25 34 -21 41
5 8 10 9 14 1 4 -6 11 -3 19 9 7 11 11 20 10 19 -2 0 -12 -4 -23 -9z"/>
<path d="M350 670 c0 -5 7 -10 16 -10 8 0 12 5 9 10 -3 6 -10 10 -16 10 -5 0
-9 -4 -9 -10z"/>
<path d="M515 650 c-16 -7 -17 -9 -3 -9 9 -1 20 4 23 9 7 11 7 11 -20 0z"/>
<path d="M260 634 c0 -14 3 -14 15 -4 8 7 15 14 15 16 0 2 -7 4 -15 4 -8 0
-15 -7 -15 -16z"/>
<path d="M357 644 c-3 -3 -3 -12 0 -20 3 -8 0 -14 -6 -14 -6 0 -8 -7 -5 -15
10 -24 21 -17 26 15 4 30 -3 46 -15 34z"/>
<path d="M140 624 c0 -8 -5 -12 -11 -8 -8 4 -8 1 -1 -12 5 -11 7 -25 5 -31 -3
-7 0 -13 5 -13 5 0 9 18 9 40 0 22 -1 40 -3 40 -2 0 -4 -7 -4 -16z"/>
<path d="M550 631 c0 -5 5 -13 10 -16 6 -3 10 -2 10 4 0 5 -4 13 -10 16 -5 3
-10 2 -10 -4z"/>
<path d="M176 622 c-7 -11 4 -52 14 -52 4 0 10 7 14 15 3 9 0 15 -9 15 -9 0
-12 6 -9 15 6 16 -1 21 -10 7z"/>
<path d="M300 621 c0 -6 5 -13 10 -16 6 -3 10 1 10 9 0 9 -4 16 -10 16 -5 0
-10 -4 -10 -9z"/>
<path d="M515 620 c-3 -5 1 -13 10 -16 22 -9 29 1 11 15 -10 8 -16 9 -21 1z"/>
<path d="M570 592 c0 -12 19 -26 26 -19 2 2 -2 10 -11 17 -9 8 -15 8 -15 2z"/>
<path d="M277 584 c-4 -4 -4 -10 -1 -15 6 -10 34 0 34 12 0 10 -24 12 -33 3z"/>
<path d="M524 579 c-9 -15 13 -36 25 -23 6 5 4 14 -4 21 -10 9 -16 10 -21 2z"/>
<path d="M90 570 c0 -5 5 -10 10 -10 6 0 10 5 10 10 0 6 -4 10 -10 10 -5 0
-10 -4 -10 -10z"/>
<path d="M214 566 c-8 -22 3 -33 18 -18 9 9 9 15 0 24 -9 9 -13 7 -18 -6z"/>
<path d="M324 559 c-8 -14 18 -31 30 -19 9 9 0 30 -14 30 -5 0 -12 -5 -16 -11z"/>
<path d="M147 553 c-12 -11 -8 -23 8 -23 8 0 15 7 15 15 0 16 -12 20 -23 8z"/>
<path d="M580 547 c0 -19 16 -31 24 -18 3 5 -1 14 -9 21 -12 10 -15 10 -15 -3z"/>
<path d="M615 550 c3 -5 11 -10 16 -10 6 0 7 5 4 10 -3 6 -11 10 -16 10 -6 0
-7 -4 -4 -10z"/>
<path d="M94 539 c-3 -6 -1 -15 6 -19 7 -4 10 -15 7 -24 -4 -10 -1 -16 8 -16
17 0 20 26 4 35 -6 4 -8 13 -5 21 6 17 -10 19 -20 3z"/>
<path d="M253 542 c-7 -4 -9 -13 -4 -21 10 -16 31 -6 31 15 0 16 -9 18 -27 6z"/>
<path d="M63 520 c1 -16 -3 -25 -12 -25 -8 0 -15 -6 -17 -13 -1 -7 0 -8 3 -2
3 8 9 8 18 0 18 -15 27 13 15 42 -10 23 -10 23 -7 -2z"/>
<path d="M516 532 c-2 -4 -1 -14 4 -22 7 -11 12 -12 21 -3 6 6 8 16 5 22 -8
13 -23 14 -30 3z"/>
<path d="M173 515 c-3 -9 -3 -18 0 -21 9 -9 27 6 27 22 0 19 -19 18 -27 -1z"/>
<path d="M296 505 c-6 -17 16 -31 33 -21 13 9 2 36 -14 36 -7 0 -16 -7 -19
-15z"/>
<path d="M620 513 c0 -14 19 -38 25 -32 8 8 -5 39 -16 39 -5 0 -9 -3 -9 -7z"/>
<path d="M576 503 c-12 -12 -6 -33 9 -33 8 0 15 6 15 14 0 17 -14 28 -24 19z"/>
<path d="M215 490 c-4 -6 -1 -18 6 -26 11 -14 13 -14 21 0 15 26 -12 51 -27
26z"/>
<path d="M134 469 c-3 -6 -1 -16 5 -22 9 -9 14 -8 21 3 9 15 4 30 -10 30 -5 0
-12 -5 -16 -11z"/>
<path d="M496 471 c-8 -12 21 -34 33 -27 6 4 8 13 4 21 -6 17 -29 20 -37 6z"/>
<path d="M660 464 c0 -8 5 -12 10 -9 6 4 8 11 5 16 -9 14 -15 11 -15 -7z"/>
<path d="M74 457 c-8 -21 2 -35 16 -21 5 5 6 15 0 24 -8 12 -10 12 -16 -3z"/>
<path d="M266 453 c-4 -9 -3 -20 1 -24 13 -13 37 7 30 25 -8 21 -23 20 -31 -1z"/>
<path d="M620 450 c0 -11 7 -20 15 -20 17 0 18 2 9 24 -9 23 -24 20 -24 -4z"/>
<path d="M26 435 c4 -8 10 -12 15 -9 14 8 10 24 -6 24 -9 0 -12 -6 -9 -15z"/>
<path d="M556 435 c-3 -9 1 -18 10 -22 19 -7 28 2 21 22 -8 19 -23 19 -31 0z"/>
<path d="M170 433 c0 -5 4 -14 9 -22 8 -12 12 -12 25 -2 9 7 13 17 10 22 -6
11 -44 12 -44 2z"/>
<path d="M97 417 c-9 -23 8 -40 22 -23 13 15 7 36 -9 36 -4 0 -10 -6 -13 -13z"/>
<path d="M480 414 c-9 -10 -10 -18 -2 -26 12 -12 32 -2 32 17 0 21 -16 26 -30
9z"/>
<path d="M660 404 c0 -22 2 -25 15 -14 12 10 13 16 4 26 -16 20 -19 18 -19
-12z"/>
<path d="M10 400 c0 -11 4 -20 9 -20 5 0 7 9 4 20 -3 11 -7 20 -9 20 -2 0 -4
-9 -4 -20z"/>
<path d="M46 404 c-4 -9 -3 -21 2 -26 12 -12 23 15 12 31 -5 9 -9 8 -14 -5z"/>
<path d="M234 395 c-3 -8 -3 -19 1 -25 9 -14 35 6 35 26 0 19 -29 18 -36 -1z"/>
<path d="M600 403 c0 -5 4 -14 9 -22 11 -17 32 -5 24 14 -5 15 -33 21 -33 8z"/>
<path d="M143 374 c-7 -20 8 -36 25 -25 14 8 6 41 -9 41 -5 0 -12 -7 -16 -16z"/>
<path d="M530 370 c0 -14 7 -20 21 -20 15 0 19 4 15 16 -3 9 -6 18 -6 20 0 2
-7 4 -15 4 -8 0 -15 -9 -15 -20z"/>
<path d="M685 371 c-3 -5 -1 -12 5 -16 5 -3 10 1 10 9 0 18 -6 21 -15 7z"/>
<path d="M72 353 c5 -25 28 -28 28 -4 0 12 -6 21 -16 21 -9 0 -14 -7 -12 -17z"/>
<path d="M450 355 c-14 -16 -5 -35 16 -35 15 0 20 35 5 44 -5 3 -14 -1 -21 -9z"/>
<path d="M645 360 c-3 -5 -3 -15 1 -21 6 -11 23 6 24 24 0 10 -18 9 -25 -3z"/>
<path d="M25 350 c-8 -13 -1 -24 14 -19 6 3 7 10 2 18 -6 10 -10 10 -16 1z"/>
<path d="M195 340 c-8 -13 14 -42 26 -34 5 3 9 14 9 25 0 20 -24 26 -35 9z"/>
<path d="M580 330 c0 -11 7 -20 15 -20 8 0 15 9 15 20 0 11 -7 20 -15 20 -8 0
-15 -9 -15 -20z"/>
<path d="M116 321 c-4 -5 -3 -16 0 -25 5 -12 10 -14 20 -6 7 7 10 18 7 26 -6
16 -19 18 -27 5z"/>
<path d="M500 315 c-10 -12 -9 -16 3 -21 21 -8 37 3 30 21 -7 19 -17 19 -33 0z"/>
<path d="M666 315 c-3 -8 -1 -17 5 -20 5 -4 6 -12 3 -18 -4 -7 -3 -9 1 -4 11
10 14 46 4 52 -4 3 -9 -2 -13 -10z"/>
<path d="M57 313 c-12 -12 -7 -33 8 -33 17 0 19 9 7 28 -5 7 -11 9 -15 5z"/>
<path d="M10 301 c0 -6 5 -13 10 -16 6 -3 10 1 10 9 0 9 -4 16 -10 16 -5 0
-10 -4 -10 -9z"/>
<path d="M620 296 c0 -8 4 -17 9 -20 10 -7 23 19 14 28 -11 11 -23 6 -23 -8z"/>
<path d="M411 286 c-9 -11 -8 -15 5 -20 20 -8 39 7 30 23 -10 15 -21 14 -35
-3z"/>
<path d="M554 285 c-9 -23 10 -40 25 -22 9 11 8 17 -4 27 -12 10 -16 9 -21 -5z"/>
<path d="M165 280 c-8 -14 3 -30 21 -30 8 0 14 9 14 20 0 21 -24 28 -35 10z"/>
<path d="M96 271 c-4 -6 -4 -16 -1 -21 4 -6 1 -17 -5 -25 -12 -15 -6 -35 12
-35 5 0 7 7 4 15 -3 9 0 25 6 35 9 14 10 22 1 31 -8 8 -13 8 -17 0z"/>
<path d="M647 260 c-3 -11 -1 -20 3 -20 4 0 6 -10 4 -22 -4 -20 -3 -21 4 -4 7
17 5 66 -3 66 -1 0 -5 -9 -8 -20z"/>
<path d="M470 252 c0 -10 3 -21 6 -25 10 -9 32 16 27 30 -8 20 -33 15 -33 -5z"/>
<path d="M42 248 c2 -6 10 -14 16 -16 7 -2 10 2 6 12 -7 18 -28 22 -22 4z"/>
<path d="M587 246 c-6 -16 2 -28 14 -20 12 7 11 34 0 34 -5 0 -11 -6 -14 -14z"/>
<path d="M146 232 c-7 -12 3 -42 14 -42 16 0 19 17 6 35 -8 11 -15 14 -20 7z"/>
<path d="M376 231 c-3 -5 1 -15 10 -22 13 -10 17 -10 25 2 5 8 9 17 9 22 0 10
-38 9 -44 -2z"/>
<path d="M521 226 c-9 -10 -9 -16 -1 -21 17 -10 37 12 24 25 -8 8 -15 6 -23
-4z"/>
<path d="M616 218 c-4 -9 -3 -24 2 -34 12 -22 21 -5 12 26 -6 21 -8 22 -14 8z"/>
<path d="M40 206 c0 -2 7 -9 15 -16 13 -11 14 -10 9 4 -5 14 -24 23 -24 12z"/>
<path d="M430 195 c0 -8 9 -15 20 -15 11 0 20 7 20 15 0 8 -9 15 -20 15 -11 0
-20 -7 -20 -15z"/>
<path d="M563 203 c-7 -3 -13 -11 -13 -19 0 -8 6 -11 15 -8 11 4 13 2 9 -9 -3
-8 0 -18 5 -22 6 -3 9 -11 6 -16 -4 -5 -2 -9 4 -9 5 0 13 5 16 10 3 6 1 10 -5
10 -6 0 -9 3 -7 8 8 13 -18 59 -30 55z"/>
<path d="M350 170 c0 -11 -6 -23 -14 -26 -18 -7 -9 -34 11 -34 10 0 12 6 8 20
-4 14 -2 20 8 20 16 0 30 24 20 34 -14 13 -33 5 -33 -14z"/>
<path d="M86 172 c-3 -5 1 -15 9 -22 16 -14 20 -3 6 19 -5 8 -11 9 -15 3z"/>
<path d="M132 168 c5 -15 28 -18 29 -3 0 6 -7 12 -17 13 -10 3 -15 -1 -12 -10z"/>
<path d="M480 165 c0 -8 4 -15 9 -15 5 0 14 7 21 15 10 13 9 15 -9 15 -12 0
-21 -6 -21 -15z"/>
<path d="M407 156 c-4 -10 -1 -19 9 -23 21 -8 26 1 11 22 -13 16 -14 16 -20 1z"/>
<path d="M523 153 c-7 -2 -9 -11 -6 -19 3 -7 10 -11 16 -7 6 4 8 0 5 -9 -4 -8
-2 -21 3 -29 7 -11 9 -11 9 -1 0 8 5 10 13 6 9 -6 9 -5 0 8 -7 8 -10 18 -6 21
3 4 1 7 -5 7 -6 0 -12 6 -14 13 -2 8 -8 12 -15 10z"/>
<path d="M130 131 c0 -6 5 -11 10 -11 6 0 10 -9 10 -20 0 -11 4 -20 9 -20 13
0 -3 53 -17 58 -7 2 -12 -1 -12 -7z"/>
<path d="M450 125 c0 -8 7 -15 15 -15 8 0 15 -4 15 -10 0 -5 7 -10 16 -10 8 0
13 -4 9 -9 -3 -5 -1 -12 5 -16 5 -3 10 1 10 9 0 8 -5 18 -10 21 -6 4 -8 11 -5
16 3 5 -1 6 -9 3 -9 -3 -16 -2 -16 4 0 5 -7 12 -15 16 -9 3 -15 0 -15 -9z"/>
<path d="M380 110 c-12 -8 -12 -10 3 -16 21 -8 35 2 21 16 -5 5 -15 6 -24 0z"/>
<path d="M312 70 c0 -16 4 -30 10 -30 5 0 8 6 5 14 -3 8 -1 16 5 18 6 2 8 10
4 16 -13 21 -23 13 -24 -18z"/>
<path d="M426 92 c-4 -7 10 -20 36 -33 41 -20 42 -20 23 -1 -11 10 -22 18 -24
16 -2 -2 -9 4 -16 13 -8 11 -14 12 -19 5z"/>
<path d="M360 70 c0 -5 7 -10 15 -10 8 0 15 5 15 10 0 6 -7 10 -15 10 -8 0
-15 -4 -15 -10z"/>
<path d="M405 59 c-9 -14 -2 -20 14 -10 8 6 9 11 3 15 -6 3 -14 1 -17 -5z"/>
<path d="M360 35 c7 -9 15 -13 17 -11 7 7 -7 26 -19 26 -6 0 -6 -6 2 -15z"/>
<path d="M438 33 c7 -3 16 -2 19 1 4 3 -2 6 -13 5 -11 0 -14 -3 -6 -6z"/>
</g>
</svg>
